<?xml version="1.0" encoding="utf-8" standalone="no"?>
<!DOCTYPE svg PUBLIC "-//W3C//DTD SVG 1.1//EN"
  "http://www.w3.org/Graphics/SVG/1.1/DTD/svg11.dtd">
<svg height="504pt" version="1.1" viewBox="0 0 648 504" width="648pt" xmlns="http://www.w3.org/2000/svg" xmlns:xlink="http://www.w3.org/1999/xlink">
 <metadata>
  <rdf:RDF xmlns:cc="http://creativecommons.org/ns#" xmlns:dc="http://purl.org/dc/elements/1.1/" xmlns:rdf="http://www.w3.org/1999/02/22-rdf-syntax-ns#">
   <cc:Work>
    <dc:type rdf:resource="http://purl.org/dc/dcmitype/StillImage"/>
    <dc:date>2022-03-09T16:32:35.980746</dc:date>
    <dc:format>image/svg+xml</dc:format>
    <dc:creator>
     <cc:Agent>
      <dc:title>Matplotlib v3.4.3, https://matplotlib.org/</dc:title>
     </cc:Agent>
    </dc:creator>
   </cc:Work>
  </rdf:RDF>
 </metadata>
 <defs>
  <style type="text/css">*{stroke-linecap:butt;stroke-linejoin:round;}</style>
 </defs>
 <g id="figure_1">
  <g id="patch_1">
   <path d="M 0 504 
L 648 504 
L 648 0 
L 0 0 
z
" style="fill:none;"/>
  </g>
  <g id="axes_1">
   <g id="patch_2">
    <path d="M 81 441 
L 583.2 441 
L 583.2 60.48 
L 81 60.48 
z
" style="fill:#ffffff;"/>
   </g>
   <g id="PolyCollection_1">
    <defs>
     <path d="M 103.827273 -120.802594 
L 103.827273 -120.802594 
L 119.045455 -118.022836 
L 134.263636 -115.459034 
L 149.481818 -113.094249 
L 164.7 -110.912912 
L 179.918182 -108.900703 
L 195.136364 -107.044454 
L 210.354545 -105.332049 
L 225.572727 -103.752338 
L 240.790909 -102.295058 
L 256.009091 -100.950758 
L 271.227273 -99.710735 
L 286.445455 -98.566974 
L 301.663636 -97.512086 
L 316.881818 -96.539264 
L 332.1 -95.642232 
L 347.318182 -94.815204 
L 362.536364 -94.052843 
L 377.754545 -93.350226 
L 392.972727 -92.702811 
L 408.190909 -92.106407 
L 423.409091 -91.557144 
L 438.627273 -91.051451 
L 453.845455 -90.586029 
L 469.063636 -90.157832 
L 484.281818 -89.764046 
L 499.5 -89.402072 
L 514.718182 -89.069506 
L 529.936364 -88.764129 
L 545.154545 -88.483887 
L 560.372727 -88.226883 
L 560.372727 -104.481359 
L 560.372727 -104.481359 
L 545.154545 -104.708124 
L 529.936364 -104.943303 
L 514.718182 -105.187592 
L 499.5 -105.441755 
L 484.281818 -105.706622 
L 469.063636 -105.983101 
L 453.845455 -106.272182 
L 438.627273 -106.574946 
L 423.409091 -106.892573 
L 408.190909 -107.226349 
L 392.972727 -107.577678 
L 377.754545 -107.948093 
L 362.536364 -108.339266 
L 347.318182 -108.753021 
L 332.1 -109.191348 
L 316.881818 -109.656422 
L 301.663636 -110.150612 
L 286.445455 -110.676508 
L 271.227273 -111.236933 
L 256.009091 -111.83497 
L 240.790909 -112.473984 
L 225.572727 -113.157651 
L 210.354545 -113.889981 
L 195.136364 -114.675353 
L 179.918182 -115.518551 
L 164.7 -116.424799 
L 149.481818 -117.3998 
L 134.263636 -118.449789 
L 119.045455 -119.581573 
L 103.827273 -120.802594 
z
" id="m6cd9997b20" style="stroke:#0000ff;stroke-opacity:0.3;"/>
    </defs>
    <g clip-path="url(#p537b5cb5f0)">
     <use style="fill:#0000ff;fill-opacity:0.3;stroke:#0000ff;stroke-opacity:0.3;" x="0" xlink:href="#m6cd9997b20" y="504"/>
    </g>
   </g>
   <g id="PolyCollection_2">
    <defs>
     <path d="M 103.827273 -154.738266 
L 103.827273 -154.738266 
L 119.045455 -148.722168 
L 134.263636 -143.204153 
L 149.481818 -138.142918 
L 164.7 -133.500666 
L 179.918182 -129.2428 
L 195.136364 -125.33764 
L 210.354545 -121.756173 
L 225.572727 -118.471819 
L 240.790909 -115.460225 
L 256.009091 -112.699068 
L 271.227273 -110.167885 
L 286.445455 -107.847911 
L 301.663636 -105.721936 
L 316.881818 -103.774172 
L 332.1 -101.99013 
L 347.318182 -100.356516 
L 362.536364 -98.861123 
L 377.754545 -97.492746 
L 392.972727 -96.241092 
L 408.190909 -95.096709 
L 423.409091 -94.050914 
L 438.627273 -93.095727 
L 453.845455 -92.223814 
L 469.063636 -91.428437 
L 484.281818 -90.703398 
L 499.5 -90.043 
L 514.718182 -89.442006 
L 529.936364 -88.895595 
L 545.154545 -88.399337 
L 560.372727 -87.949155 
L 560.372727 -120.816239 
L 560.372727 -120.816239 
L 545.154545 -121.269259 
L 529.936364 -121.738901 
L 514.718182 -122.226637 
L 499.5 -122.734088 
L 484.281818 -123.263029 
L 469.063636 -123.815412 
L 453.845455 -124.393379 
L 438.627273 -124.999281 
L 423.409091 -125.635698 
L 408.190909 -126.305461 
L 392.972727 -127.011677 
L 377.754545 -127.757755 
L 362.536364 -128.547437 
L 347.318182 -129.384824 
L 332.1 -130.274421 
L 316.881818 -131.221165 
L 301.663636 -132.230476 
L 286.445455 -133.308298 
L 271.227273 -134.461153 
L 256.009091 -135.696196 
L 240.790909 -137.021277 
L 225.572727 -138.445009 
L 210.354545 -139.976843 
L 195.136364 -141.627148 
L 179.918182 -143.407305 
L 164.7 -145.329803 
L 149.481818 -147.40835 
L 134.263636 -149.657995 
L 119.045455 -152.095254 
L 103.827273 -154.738266 
z
" id="mebe5cba1a2" style="stroke:#bfbf00;stroke-opacity:0.25;"/>
    </defs>
    <g clip-path="url(#p537b5cb5f0)">
     <use style="fill:#bfbf00;fill-opacity:0.25;stroke:#bfbf00;stroke-opacity:0.25;" x="0" xlink:href="#mebe5cba1a2" y="504"/>
    </g>
   </g>
   <g id="PolyCollection_3">
    <defs>
     <path d="M 103.827273 -256.54528 
L 103.827273 -256.54528 
L 119.045455 -240.114132 
L 134.263636 -225.147233 
L 149.481818 -211.515008 
L 164.7 -199.099548 
L 179.918182 -187.793527 
L 195.136364 -177.49923 
L 210.354545 -168.127674 
L 225.572727 -159.597803 
L 240.790909 -151.835765 
L 256.009091 -144.774262 
L 271.227273 -138.351948 
L 286.445455 -132.512896 
L 301.663636 -127.206103 
L 316.881818 -122.385053 
L 332.1 -118.007311 
L 347.318182 -114.034156 
L 362.536364 -110.430253 
L 377.754545 -107.16335 
L 392.972727 -104.204002 
L 408.190909 -101.525326 
L 423.409091 -99.102772 
L 438.627273 -96.913917 
L 453.845455 -94.938281 
L 469.063636 -93.157152 
L 484.281818 -91.553434 
L 499.5 -90.111507 
L 514.718182 -88.817095 
L 529.936364 -87.657152 
L 545.154545 -86.619752 
L 560.372727 -85.693996 
L 560.372727 -168.237557 
L 560.372727 -168.237557 
L 545.154545 -169.367565 
L 529.936364 -170.537805 
L 514.718182 -171.752124 
L 499.5 -173.014783 
L 484.281818 -174.330494 
L 469.063636 -175.704476 
L 453.845455 -177.142498 
L 438.627273 -178.650943 
L 423.409091 -180.236867 
L 408.190909 -181.90807 
L 392.972727 -183.673174 
L 377.754545 -185.541705 
L 362.536364 -187.52419 
L 347.318182 -189.632258 
L 332.1 -191.878754 
L 316.881818 -194.277865 
L 301.663636 -196.845258 
L 286.445455 -199.598237 
L 271.227273 -202.555908 
L 256.009091 -205.739368 
L 240.790909 -209.171911 
L 225.572727 -212.879258 
L 210.354545 -216.88981 
L 195.136364 -221.234922 
L 179.918182 -225.94922 
L 164.7 -231.070936 
L 149.481818 -236.64229 
L 134.263636 -242.709907 
L 119.045455 -249.325279 
L 103.827273 -256.54528 
z
" id="mcd7718a659" style="stroke:#008000;stroke-opacity:0.15;"/>
    </defs>
    <g clip-path="url(#p537b5cb5f0)">
     <use style="fill:#008000;fill-opacity:0.15;stroke:#008000;stroke-opacity:0.15;" x="0" xlink:href="#mcd7718a659" y="504"/>
    </g>
   </g>
   <g id="PolyCollection_4">
    <defs>
     <path d="M 103.827273 -426.223636 
L 103.827273 -426.223636 
L 119.045455 -391.403653 
L 134.263636 -359.843584 
L 149.481818 -331.241976 
L 164.7 -305.325621 
L 179.918182 -281.846848 
L 195.136364 -260.581083 
L 210.354545 -241.324646 
L 225.572727 -223.892769 
L 240.790909 -208.117797 
L 256.009091 -193.847576 
L 271.227273 -180.943988 
L 286.445455 -169.281633 
L 301.663636 -158.746637 
L 316.881818 -149.23557 
L 332.1 -140.654475 
L 347.318182 -132.917985 
L 362.536364 -125.948525 
L 377.754545 -119.675592 
L 392.972727 -114.035099 
L 408.190909 -108.968785 
L 423.409091 -104.423679 
L 438.627273 -100.351612 
L 453.845455 -96.708782 
L 469.063636 -93.455351 
L 484.281818 -90.555083 
L 499.5 -87.975021 
L 514.718182 -85.685182 
L 529.936364 -83.658293 
L 545.154545 -81.869544 
L 560.372727 -80.296364 
L 560.372727 -245.11112 
L 560.372727 -245.11112 
L 545.154545 -247.369408 
L 529.936364 -249.70556 
L 514.718182 -252.127394 
L 499.5 -254.643623 
L 484.281818 -257.263946 
L 469.063636 -259.99916 
L 453.845455 -262.861277 
L 438.627273 -265.863656 
L 423.409091 -269.02115 
L 408.190909 -272.350269 
L 392.972727 -275.869356 
L 377.754545 -279.598789 
L 362.536364 -283.5612 
L 347.318182 -287.781716 
L 332.1 -292.288234 
L 316.881818 -297.111717 
L 301.663636 -302.286528 
L 286.445455 -307.850795 
L 271.227273 -313.846822 
L 256.009091 -320.321542 
L 240.790909 -327.327014 
L 225.572727 -334.920986 
L 210.354545 -343.167509 
L 195.136364 -352.137625 
L 179.918182 -361.910127 
L 164.7 -372.572407 
L 149.481818 -384.221392 
L 134.263636 -396.964589 
L 119.045455 -410.921246 
L 103.827273 -426.223636 
z
" id="mc7956a02ce" style="stroke:#fa8072;stroke-opacity:0.15;"/>
    </defs>
    <g clip-path="url(#p537b5cb5f0)">
     <use style="fill:#fa8072;fill-opacity:0.15;stroke:#fa8072;stroke-opacity:0.15;" x="0" xlink:href="#mc7956a02ce" y="504"/>
    </g>
   </g>
   <g id="matplotlib.axis_1">
    <g id="xtick_1">
     <g id="line2d_1">
      <defs>
       <path d="M 0 0 
L 0 3.5 
" id="ma879eccb6a" style="stroke:#000000;stroke-width:0.8;"/>
      </defs>
      <g>
       <use style="stroke:#000000;stroke-width:0.8;" x="103.827273" xlink:href="#ma879eccb6a" y="441"/>
      </g>
     </g>
     <g id="text_1">
      <!-- 0 -->
      <g transform="translate(100.646023 455.598437)scale(0.1 -0.1)">
       <defs>
        <path d="M 2034 4250 
Q 1547 4250 1301 3770 
Q 1056 3291 1056 2328 
Q 1056 1369 1301 889 
Q 1547 409 2034 409 
Q 2525 409 2770 889 
Q 3016 1369 3016 2328 
Q 3016 3291 2770 3770 
Q 2525 4250 2034 4250 
z
M 2034 4750 
Q 2819 4750 3233 4129 
Q 3647 3509 3647 2328 
Q 3647 1150 3233 529 
Q 2819 -91 2034 -91 
Q 1250 -91 836 529 
Q 422 1150 422 2328 
Q 422 3509 836 4129 
Q 1250 4750 2034 4750 
z
" id="DejaVuSans-30" transform="scale(0.015625)"/>
       </defs>
       <use xlink:href="#DejaVuSans-30"/>
      </g>
     </g>
    </g>
    <g id="xtick_2">
     <g id="line2d_2">
      <g>
       <use style="stroke:#000000;stroke-width:0.8;" x="179.918182" xlink:href="#ma879eccb6a" y="441"/>
      </g>
     </g>
     <g id="text_2">
      <!-- 5 -->
      <g transform="translate(176.736932 455.598437)scale(0.1 -0.1)">
       <defs>
        <path d="M 691 4666 
L 3169 4666 
L 3169 4134 
L 1269 4134 
L 1269 2991 
Q 1406 3038 1543 3061 
Q 1681 3084 1819 3084 
Q 2600 3084 3056 2656 
Q 3513 2228 3513 1497 
Q 3513 744 3044 326 
Q 2575 -91 1722 -91 
Q 1428 -91 1123 -41 
Q 819 9 494 109 
L 494 744 
Q 775 591 1075 516 
Q 1375 441 1709 441 
Q 2250 441 2565 725 
Q 2881 1009 2881 1497 
Q 2881 1984 2565 2268 
Q 2250 2553 1709 2553 
Q 1456 2553 1204 2497 
Q 953 2441 691 2322 
L 691 4666 
z
" id="DejaVuSans-35" transform="scale(0.015625)"/>
       </defs>
       <use xlink:href="#DejaVuSans-35"/>
      </g>
     </g>
    </g>
    <g id="xtick_3">
     <g id="line2d_3">
      <g>
       <use style="stroke:#000000;stroke-width:0.8;" x="256.009091" xlink:href="#ma879eccb6a" y="441"/>
      </g>
     </g>
     <g id="text_3">
      <!-- 10 -->
      <g transform="translate(249.646591 455.598437)scale(0.1 -0.1)">
       <defs>
        <path d="M 794 531 
L 1825 531 
L 1825 4091 
L 703 3866 
L 703 4441 
L 1819 4666 
L 2450 4666 
L 2450 531 
L 3481 531 
L 3481 0 
L 794 0 
L 794 531 
z
" id="DejaVuSans-31" transform="scale(0.015625)"/>
       </defs>
       <use xlink:href="#DejaVuSans-31"/>
       <use x="63.623047" xlink:href="#DejaVuSans-30"/>
      </g>
     </g>
    </g>
    <g id="xtick_4">
     <g id="line2d_4">
      <g>
       <use style="stroke:#000000;stroke-width:0.8;" x="332.1" xlink:href="#ma879eccb6a" y="441"/>
      </g>
     </g>
     <g id="text_4">
      <!-- 15 -->
      <g transform="translate(325.7375 455.598437)scale(0.1 -0.1)">
       <use xlink:href="#DejaVuSans-31"/>
       <use x="63.623047" xlink:href="#DejaVuSans-35"/>
      </g>
     </g>
    </g>
    <g id="xtick_5">
     <g id="line2d_5">
      <g>
       <use style="stroke:#000000;stroke-width:0.8;" x="408.190909" xlink:href="#ma879eccb6a" y="441"/>
      </g>
     </g>
     <g id="text_5">
      <!-- 20 -->
      <g transform="translate(401.828409 455.598437)scale(0.1 -0.1)">
       <defs>
        <path d="M 1228 531 
L 3431 531 
L 3431 0 
L 469 0 
L 469 531 
Q 828 903 1448 1529 
Q 2069 2156 2228 2338 
Q 2531 2678 2651 2914 
Q 2772 3150 2772 3378 
Q 2772 3750 2511 3984 
Q 2250 4219 1831 4219 
Q 1534 4219 1204 4116 
Q 875 4013 500 3803 
L 500 4441 
Q 881 4594 1212 4672 
Q 1544 4750 1819 4750 
Q 2544 4750 2975 4387 
Q 3406 4025 3406 3419 
Q 3406 3131 3298 2873 
Q 3191 2616 2906 2266 
Q 2828 2175 2409 1742 
Q 1991 1309 1228 531 
z
" id="DejaVuSans-32" transform="scale(0.015625)"/>
       </defs>
       <use xlink:href="#DejaVuSans-32"/>
       <use x="63.623047" xlink:href="#DejaVuSans-30"/>
      </g>
     </g>
    </g>
    <g id="xtick_6">
     <g id="line2d_6">
      <g>
       <use style="stroke:#000000;stroke-width:0.8;" x="484.281818" xlink:href="#ma879eccb6a" y="441"/>
      </g>
     </g>
     <g id="text_6">
      <!-- 25 -->
      <g transform="translate(477.919318 455.598437)scale(0.1 -0.1)">
       <use xlink:href="#DejaVuSans-32"/>
       <use x="63.623047" xlink:href="#DejaVuSans-35"/>
      </g>
     </g>
    </g>
    <g id="xtick_7">
     <g id="line2d_7">
      <g>
       <use style="stroke:#000000;stroke-width:0.8;" x="560.372727" xlink:href="#ma879eccb6a" y="441"/>
      </g>
     </g>
     <g id="text_7">
      <!-- 30 -->
      <g transform="translate(554.010227 455.598437)scale(0.1 -0.1)">
       <defs>
        <path d="M 2597 2516 
Q 3050 2419 3304 2112 
Q 3559 1806 3559 1356 
Q 3559 666 3084 287 
Q 2609 -91 1734 -91 
Q 1441 -91 1130 -33 
Q 819 25 488 141 
L 488 750 
Q 750 597 1062 519 
Q 1375 441 1716 441 
Q 2309 441 2620 675 
Q 2931 909 2931 1356 
Q 2931 1769 2642 2001 
Q 2353 2234 1838 2234 
L 1294 2234 
L 1294 2753 
L 1863 2753 
Q 2328 2753 2575 2939 
Q 2822 3125 2822 3475 
Q 2822 3834 2567 4026 
Q 2313 4219 1838 4219 
Q 1578 4219 1281 4162 
Q 984 4106 628 3988 
L 628 4550 
Q 988 4650 1302 4700 
Q 1616 4750 1894 4750 
Q 2613 4750 3031 4423 
Q 3450 4097 3450 3541 
Q 3450 3153 3228 2886 
Q 3006 2619 2597 2516 
z
" id="DejaVuSans-33" transform="scale(0.015625)"/>
       </defs>
       <use xlink:href="#DejaVuSans-33"/>
       <use x="63.623047" xlink:href="#DejaVuSans-30"/>
      </g>
     </g>
    </g>
    <g id="text_8">
     <!-- $\Delta$T (years) -->
     <g transform="translate(300.924 472.190125)scale(0.144 -0.144)">
      <defs>
       <path d="M 2188 4044 
L 906 525 
L 3472 525 
L 2188 4044 
z
M 50 0 
L 1831 4666 
L 2547 4666 
L 4325 0 
L 50 0 
z
" id="DejaVuSans-394" transform="scale(0.015625)"/>
       <path d="M 3703 4238 
L 3750 3244 
L 3631 3244 
Q 3597 3506 3538 3619 
Q 3441 3800 3280 3886 
Q 3119 3972 2856 3972 
L 2259 3972 
L 2259 734 
Q 2259 344 2344 247 
Q 2463 116 2709 116 
L 2856 116 
L 2856 0 
L 1059 0 
L 1059 116 
L 1209 116 
Q 1478 116 1591 278 
Q 1659 378 1659 734 
L 1659 3972 
L 1150 3972 
Q 853 3972 728 3928 
Q 566 3869 450 3700 
Q 334 3531 313 3244 
L 194 3244 
L 244 4238 
L 3703 4238 
z
" id="TimesNewRomanPSMT-54" transform="scale(0.015625)"/>
       <path id="TimesNewRomanPSMT-20" transform="scale(0.015625)"/>
       <path d="M 1988 -1253 
L 1988 -1369 
Q 1516 -1131 1200 -813 
Q 750 -359 506 256 
Q 263 872 263 1534 
Q 263 2503 741 3301 
Q 1219 4100 1988 4444 
L 1988 4313 
Q 1603 4100 1356 3731 
Q 1109 3363 987 2797 
Q 866 2231 866 1616 
Q 866 947 969 400 
Q 1050 -31 1165 -292 
Q 1281 -553 1476 -793 
Q 1672 -1034 1988 -1253 
z
" id="TimesNewRomanPSMT-28" transform="scale(0.015625)"/>
       <path d="M 38 2863 
L 1372 2863 
L 1372 2747 
L 1306 2747 
Q 1166 2747 1095 2686 
Q 1025 2625 1025 2534 
Q 1025 2413 1128 2197 
L 1825 753 
L 2466 2334 
Q 2519 2463 2519 2588 
Q 2519 2644 2497 2672 
Q 2472 2706 2419 2726 
Q 2366 2747 2231 2747 
L 2231 2863 
L 3163 2863 
L 3163 2747 
Q 3047 2734 2984 2696 
Q 2922 2659 2847 2556 
Q 2819 2513 2741 2316 
L 1575 -541 
Q 1406 -956 1132 -1168 
Q 859 -1381 606 -1381 
Q 422 -1381 303 -1275 
Q 184 -1169 184 -1031 
Q 184 -900 270 -820 
Q 356 -741 506 -741 
Q 609 -741 788 -809 
Q 913 -856 944 -856 
Q 1038 -856 1148 -759 
Q 1259 -663 1372 -384 
L 1575 113 
L 547 2272 
Q 500 2369 397 2513 
Q 319 2622 269 2659 
Q 197 2709 38 2747 
L 38 2863 
z
" id="TimesNewRomanPSMT-79" transform="scale(0.015625)"/>
       <path d="M 681 1784 
Q 678 1147 991 784 
Q 1303 422 1725 422 
Q 2006 422 2214 576 
Q 2422 731 2563 1106 
L 2659 1044 
Q 2594 616 2278 264 
Q 1963 -88 1488 -88 
Q 972 -88 605 314 
Q 238 716 238 1394 
Q 238 2128 614 2539 
Q 991 2950 1559 2950 
Q 2041 2950 2350 2633 
Q 2659 2316 2659 1784 
L 681 1784 
z
M 681 1966 
L 2006 1966 
Q 1991 2241 1941 2353 
Q 1863 2528 1708 2628 
Q 1553 2728 1384 2728 
Q 1125 2728 920 2526 
Q 716 2325 681 1966 
z
" id="TimesNewRomanPSMT-65" transform="scale(0.015625)"/>
       <path d="M 1822 413 
Q 1381 72 1269 19 
Q 1100 -59 909 -59 
Q 613 -59 420 144 
Q 228 347 228 678 
Q 228 888 322 1041 
Q 450 1253 767 1440 
Q 1084 1628 1822 1897 
L 1822 2009 
Q 1822 2438 1686 2597 
Q 1550 2756 1291 2756 
Q 1094 2756 978 2650 
Q 859 2544 859 2406 
L 866 2225 
Q 866 2081 792 2003 
Q 719 1925 600 1925 
Q 484 1925 411 2006 
Q 338 2088 338 2228 
Q 338 2497 613 2722 
Q 888 2947 1384 2947 
Q 1766 2947 2009 2819 
Q 2194 2722 2281 2516 
Q 2338 2381 2338 1966 
L 2338 994 
Q 2338 584 2353 492 
Q 2369 400 2405 369 
Q 2441 338 2488 338 
Q 2538 338 2575 359 
Q 2641 400 2828 588 
L 2828 413 
Q 2478 -56 2159 -56 
Q 2006 -56 1915 50 
Q 1825 156 1822 413 
z
M 1822 616 
L 1822 1706 
Q 1350 1519 1213 1441 
Q 966 1303 859 1153 
Q 753 1003 753 825 
Q 753 600 887 451 
Q 1022 303 1197 303 
Q 1434 303 1822 616 
z
" id="TimesNewRomanPSMT-61" transform="scale(0.015625)"/>
       <path d="M 1038 2947 
L 1038 2303 
Q 1397 2947 1775 2947 
Q 1947 2947 2059 2842 
Q 2172 2738 2172 2600 
Q 2172 2478 2090 2393 
Q 2009 2309 1897 2309 
Q 1788 2309 1652 2417 
Q 1516 2525 1450 2525 
Q 1394 2525 1328 2463 
Q 1188 2334 1038 2041 
L 1038 669 
Q 1038 431 1097 309 
Q 1138 225 1241 169 
Q 1344 113 1538 113 
L 1538 0 
L 72 0 
L 72 113 
Q 291 113 397 181 
Q 475 231 506 341 
Q 522 394 522 644 
L 522 1753 
Q 522 2253 501 2348 
Q 481 2444 426 2487 
Q 372 2531 291 2531 
Q 194 2531 72 2484 
L 41 2597 
L 906 2947 
L 1038 2947 
z
" id="TimesNewRomanPSMT-72" transform="scale(0.015625)"/>
       <path d="M 2050 2947 
L 2050 1972 
L 1947 1972 
Q 1828 2431 1642 2597 
Q 1456 2763 1169 2763 
Q 950 2763 815 2647 
Q 681 2531 681 2391 
Q 681 2216 781 2091 
Q 878 1963 1175 1819 
L 1631 1597 
Q 2266 1288 2266 781 
Q 2266 391 1970 151 
Q 1675 -88 1309 -88 
Q 1047 -88 709 6 
Q 606 38 541 38 
Q 469 38 428 -44 
L 325 -44 
L 325 978 
L 428 978 
Q 516 541 762 319 
Q 1009 97 1316 97 
Q 1531 97 1667 223 
Q 1803 350 1803 528 
Q 1803 744 1651 891 
Q 1500 1038 1047 1263 
Q 594 1488 453 1669 
Q 313 1847 313 2119 
Q 313 2472 555 2709 
Q 797 2947 1181 2947 
Q 1350 2947 1591 2875 
Q 1750 2828 1803 2828 
Q 1853 2828 1881 2850 
Q 1909 2872 1947 2947 
L 2050 2947 
z
" id="TimesNewRomanPSMT-73" transform="scale(0.015625)"/>
       <path d="M 144 4313 
L 144 4444 
Q 619 4209 934 3891 
Q 1381 3434 1625 2820 
Q 1869 2206 1869 1541 
Q 1869 572 1392 -226 
Q 916 -1025 144 -1369 
L 144 -1253 
Q 528 -1038 776 -670 
Q 1025 -303 1145 264 
Q 1266 831 1266 1447 
Q 1266 2113 1163 2663 
Q 1084 3094 967 3353 
Q 850 3613 656 3853 
Q 463 4094 144 4313 
z
" id="TimesNewRomanPSMT-29" transform="scale(0.015625)"/>
      </defs>
      <use transform="translate(0 0.09375)" xlink:href="#DejaVuSans-394"/>
      <use transform="translate(68.408203 0.09375)" xlink:href="#TimesNewRomanPSMT-54"/>
      <use transform="translate(129.492188 0.09375)" xlink:href="#TimesNewRomanPSMT-20"/>
      <use transform="translate(154.492188 0.09375)" xlink:href="#TimesNewRomanPSMT-28"/>
      <use transform="translate(187.792969 0.09375)" xlink:href="#TimesNewRomanPSMT-79"/>
      <use transform="translate(237.792969 0.09375)" xlink:href="#TimesNewRomanPSMT-65"/>
      <use transform="translate(282.177734 0.09375)" xlink:href="#TimesNewRomanPSMT-61"/>
      <use transform="translate(326.5625 0.09375)" xlink:href="#TimesNewRomanPSMT-72"/>
      <use transform="translate(359.863281 0.09375)" xlink:href="#TimesNewRomanPSMT-73"/>
      <use transform="translate(398.779297 0.09375)" xlink:href="#TimesNewRomanPSMT-29"/>
     </g>
    </g>
   </g>
   <g id="matplotlib.axis_2">
    <g id="ytick_1">
     <g id="line2d_8">
      <defs>
       <path d="M 0 0 
L -3.5 0 
" id="mbfd957ca4e" style="stroke:#000000;stroke-width:0.8;"/>
      </defs>
      <g>
       <use style="stroke:#000000;stroke-width:0.8;" x="81" xlink:href="#mbfd957ca4e" y="417.133077"/>
      </g>
     </g>
     <g id="text_9">
      <!-- 0 -->
      <g transform="translate(67.6375 420.932296)scale(0.1 -0.1)">
       <use xlink:href="#DejaVuSans-30"/>
      </g>
     </g>
    </g>
    <g id="ytick_2">
     <g id="line2d_9">
      <g>
       <use style="stroke:#000000;stroke-width:0.8;" x="81" xlink:href="#mbfd957ca4e" y="349.261734"/>
      </g>
     </g>
     <g id="text_10">
      <!-- 200 -->
      <g transform="translate(54.9125 353.060953)scale(0.1 -0.1)">
       <use xlink:href="#DejaVuSans-32"/>
       <use x="63.623047" xlink:href="#DejaVuSans-30"/>
       <use x="127.246094" xlink:href="#DejaVuSans-30"/>
      </g>
     </g>
    </g>
    <g id="ytick_3">
     <g id="line2d_10">
      <g>
       <use style="stroke:#000000;stroke-width:0.8;" x="81" xlink:href="#mbfd957ca4e" y="281.390392"/>
      </g>
     </g>
     <g id="text_11">
      <!-- 400 -->
      <g transform="translate(54.9125 285.18961)scale(0.1 -0.1)">
       <defs>
        <path d="M 2419 4116 
L 825 1625 
L 2419 1625 
L 2419 4116 
z
M 2253 4666 
L 3047 4666 
L 3047 1625 
L 3713 1625 
L 3713 1100 
L 3047 1100 
L 3047 0 
L 2419 0 
L 2419 1100 
L 313 1100 
L 313 1709 
L 2253 4666 
z
" id="DejaVuSans-34" transform="scale(0.015625)"/>
       </defs>
       <use xlink:href="#DejaVuSans-34"/>
       <use x="63.623047" xlink:href="#DejaVuSans-30"/>
       <use x="127.246094" xlink:href="#DejaVuSans-30"/>
      </g>
     </g>
    </g>
    <g id="ytick_4">
     <g id="line2d_11">
      <g>
       <use style="stroke:#000000;stroke-width:0.8;" x="81" xlink:href="#mbfd957ca4e" y="213.519049"/>
      </g>
     </g>
     <g id="text_12">
      <!-- 600 -->
      <g transform="translate(54.9125 217.318268)scale(0.1 -0.1)">
       <defs>
        <path d="M 2113 2584 
Q 1688 2584 1439 2293 
Q 1191 2003 1191 1497 
Q 1191 994 1439 701 
Q 1688 409 2113 409 
Q 2538 409 2786 701 
Q 3034 994 3034 1497 
Q 3034 2003 2786 2293 
Q 2538 2584 2113 2584 
z
M 3366 4563 
L 3366 3988 
Q 3128 4100 2886 4159 
Q 2644 4219 2406 4219 
Q 1781 4219 1451 3797 
Q 1122 3375 1075 2522 
Q 1259 2794 1537 2939 
Q 1816 3084 2150 3084 
Q 2853 3084 3261 2657 
Q 3669 2231 3669 1497 
Q 3669 778 3244 343 
Q 2819 -91 2113 -91 
Q 1303 -91 875 529 
Q 447 1150 447 2328 
Q 447 3434 972 4092 
Q 1497 4750 2381 4750 
Q 2619 4750 2861 4703 
Q 3103 4656 3366 4563 
z
" id="DejaVuSans-36" transform="scale(0.015625)"/>
       </defs>
       <use xlink:href="#DejaVuSans-36"/>
       <use x="63.623047" xlink:href="#DejaVuSans-30"/>
       <use x="127.246094" xlink:href="#DejaVuSans-30"/>
      </g>
     </g>
    </g>
    <g id="ytick_5">
     <g id="line2d_12">
      <g>
       <use style="stroke:#000000;stroke-width:0.8;" x="81" xlink:href="#mbfd957ca4e" y="145.647706"/>
      </g>
     </g>
     <g id="text_13">
      <!-- 800 -->
      <g transform="translate(54.9125 149.446925)scale(0.1 -0.1)">
       <defs>
        <path d="M 2034 2216 
Q 1584 2216 1326 1975 
Q 1069 1734 1069 1313 
Q 1069 891 1326 650 
Q 1584 409 2034 409 
Q 2484 409 2743 651 
Q 3003 894 3003 1313 
Q 3003 1734 2745 1975 
Q 2488 2216 2034 2216 
z
M 1403 2484 
Q 997 2584 770 2862 
Q 544 3141 544 3541 
Q 544 4100 942 4425 
Q 1341 4750 2034 4750 
Q 2731 4750 3128 4425 
Q 3525 4100 3525 3541 
Q 3525 3141 3298 2862 
Q 3072 2584 2669 2484 
Q 3125 2378 3379 2068 
Q 3634 1759 3634 1313 
Q 3634 634 3220 271 
Q 2806 -91 2034 -91 
Q 1263 -91 848 271 
Q 434 634 434 1313 
Q 434 1759 690 2068 
Q 947 2378 1403 2484 
z
M 1172 3481 
Q 1172 3119 1398 2916 
Q 1625 2713 2034 2713 
Q 2441 2713 2670 2916 
Q 2900 3119 2900 3481 
Q 2900 3844 2670 4047 
Q 2441 4250 2034 4250 
Q 1625 4250 1398 4047 
Q 1172 3844 1172 3481 
z
" id="DejaVuSans-38" transform="scale(0.015625)"/>
       </defs>
       <use xlink:href="#DejaVuSans-38"/>
       <use x="63.623047" xlink:href="#DejaVuSans-30"/>
       <use x="127.246094" xlink:href="#DejaVuSans-30"/>
      </g>
     </g>
    </g>
    <g id="ytick_6">
     <g id="line2d_13">
      <g>
       <use style="stroke:#000000;stroke-width:0.8;" x="81" xlink:href="#mbfd957ca4e" y="77.776364"/>
      </g>
     </g>
     <g id="text_14">
      <!-- 1000 -->
      <g transform="translate(48.55 81.575582)scale(0.1 -0.1)">
       <use xlink:href="#DejaVuSans-31"/>
       <use x="63.623047" xlink:href="#DejaVuSans-30"/>
       <use x="127.246094" xlink:href="#DejaVuSans-30"/>
       <use x="190.869141" xlink:href="#DejaVuSans-30"/>
      </g>
     </g>
    </g>
    <g id="text_15">
     <!-- Return period -->
     <g transform="translate(41.46975 290.530125)rotate(-90)scale(0.144 -0.144)">
      <defs>
       <path d="M 4325 0 
L 3194 0 
L 1759 1981 
Q 1600 1975 1500 1975 
Q 1459 1975 1412 1976 
Q 1366 1978 1316 1981 
L 1316 750 
Q 1316 350 1403 253 
Q 1522 116 1759 116 
L 1925 116 
L 1925 0 
L 109 0 
L 109 116 
L 269 116 
Q 538 116 653 291 
Q 719 388 719 750 
L 719 3488 
Q 719 3888 631 3984 
Q 509 4122 269 4122 
L 109 4122 
L 109 4238 
L 1653 4238 
Q 2328 4238 2648 4139 
Q 2969 4041 3192 3777 
Q 3416 3513 3416 3147 
Q 3416 2756 3161 2468 
Q 2906 2181 2372 2063 
L 3247 847 
Q 3547 428 3762 290 
Q 3978 153 4325 116 
L 4325 0 
z
M 1316 2178 
Q 1375 2178 1419 2176 
Q 1463 2175 1491 2175 
Q 2097 2175 2405 2437 
Q 2713 2700 2713 3106 
Q 2713 3503 2464 3751 
Q 2216 4000 1806 4000 
Q 1625 4000 1316 3941 
L 1316 2178 
z
" id="TimesNewRomanPSMT-52" transform="scale(0.015625)"/>
       <path d="M 1031 3803 
L 1031 2863 
L 1700 2863 
L 1700 2644 
L 1031 2644 
L 1031 788 
Q 1031 509 1111 412 
Q 1191 316 1316 316 
Q 1419 316 1516 380 
Q 1613 444 1666 569 
L 1788 569 
Q 1678 263 1478 108 
Q 1278 -47 1066 -47 
Q 922 -47 784 33 
Q 647 113 581 261 
Q 516 409 516 719 
L 516 2644 
L 63 2644 
L 63 2747 
Q 234 2816 414 2980 
Q 594 3144 734 3369 
Q 806 3488 934 3803 
L 1031 3803 
z
" id="TimesNewRomanPSMT-74" transform="scale(0.015625)"/>
       <path d="M 2709 2863 
L 2709 1128 
Q 2709 631 2732 520 
Q 2756 409 2807 365 
Q 2859 322 2928 322 
Q 3025 322 3147 375 
L 3191 266 
L 2334 -88 
L 2194 -88 
L 2194 519 
Q 1825 119 1631 15 
Q 1438 -88 1222 -88 
Q 981 -88 804 51 
Q 628 191 559 409 
Q 491 628 491 1028 
L 491 2306 
Q 491 2509 447 2587 
Q 403 2666 317 2708 
Q 231 2750 6 2747 
L 6 2863 
L 1009 2863 
L 1009 947 
Q 1009 547 1148 422 
Q 1288 297 1484 297 
Q 1619 297 1789 381 
Q 1959 466 2194 703 
L 2194 2325 
Q 2194 2569 2105 2655 
Q 2016 2741 1734 2747 
L 1734 2863 
L 2709 2863 
z
" id="TimesNewRomanPSMT-75" transform="scale(0.015625)"/>
       <path d="M 1034 2341 
Q 1538 2947 1994 2947 
Q 2228 2947 2397 2830 
Q 2566 2713 2666 2444 
Q 2734 2256 2734 1869 
L 2734 647 
Q 2734 375 2778 278 
Q 2813 200 2889 156 
Q 2966 113 3172 113 
L 3172 0 
L 1756 0 
L 1756 113 
L 1816 113 
Q 2016 113 2095 173 
Q 2175 234 2206 353 
Q 2219 400 2219 647 
L 2219 1819 
Q 2219 2209 2117 2386 
Q 2016 2563 1775 2563 
Q 1403 2563 1034 2156 
L 1034 647 
Q 1034 356 1069 288 
Q 1113 197 1189 155 
Q 1266 113 1500 113 
L 1500 0 
L 84 0 
L 84 113 
L 147 113 
Q 366 113 442 223 
Q 519 334 519 647 
L 519 1709 
Q 519 2225 495 2337 
Q 472 2450 423 2490 
Q 375 2531 294 2531 
Q 206 2531 84 2484 
L 38 2597 
L 900 2947 
L 1034 2947 
L 1034 2341 
z
" id="TimesNewRomanPSMT-6e" transform="scale(0.015625)"/>
       <path d="M -6 2578 
L 875 2934 
L 994 2934 
L 994 2266 
Q 1216 2644 1439 2795 
Q 1663 2947 1909 2947 
Q 2341 2947 2628 2609 
Q 2981 2197 2981 1534 
Q 2981 794 2556 309 
Q 2206 -88 1675 -88 
Q 1444 -88 1275 -22 
Q 1150 25 994 166 
L 994 -706 
Q 994 -1000 1030 -1079 
Q 1066 -1159 1155 -1206 
Q 1244 -1253 1478 -1253 
L 1478 -1369 
L -22 -1369 
L -22 -1253 
L 56 -1253 
Q 228 -1256 350 -1188 
Q 409 -1153 442 -1076 
Q 475 -1000 475 -688 
L 475 2019 
Q 475 2297 450 2372 
Q 425 2447 370 2484 
Q 316 2522 222 2522 
Q 147 2522 31 2478 
L -6 2578 
z
M 994 2081 
L 994 1013 
Q 994 666 1022 556 
Q 1066 375 1236 237 
Q 1406 100 1666 100 
Q 1978 100 2172 344 
Q 2425 663 2425 1241 
Q 2425 1897 2138 2250 
Q 1938 2494 1663 2494 
Q 1513 2494 1366 2419 
Q 1253 2363 994 2081 
z
" id="TimesNewRomanPSMT-70" transform="scale(0.015625)"/>
       <path d="M 928 4444 
Q 1059 4444 1151 4351 
Q 1244 4259 1244 4128 
Q 1244 3997 1151 3903 
Q 1059 3809 928 3809 
Q 797 3809 703 3903 
Q 609 3997 609 4128 
Q 609 4259 701 4351 
Q 794 4444 928 4444 
z
M 1188 2947 
L 1188 647 
Q 1188 378 1227 289 
Q 1266 200 1342 156 
Q 1419 113 1622 113 
L 1622 0 
L 231 0 
L 231 113 
Q 441 113 512 153 
Q 584 194 626 287 
Q 669 381 669 647 
L 669 1750 
Q 669 2216 641 2353 
Q 619 2453 572 2492 
Q 525 2531 444 2531 
Q 356 2531 231 2484 
L 188 2597 
L 1050 2947 
L 1188 2947 
z
" id="TimesNewRomanPSMT-69" transform="scale(0.015625)"/>
       <path d="M 1600 2947 
Q 2250 2947 2644 2453 
Q 2978 2031 2978 1484 
Q 2978 1100 2793 706 
Q 2609 313 2286 112 
Q 1963 -88 1566 -88 
Q 919 -88 538 428 
Q 216 863 216 1403 
Q 216 1797 411 2186 
Q 606 2575 925 2761 
Q 1244 2947 1600 2947 
z
M 1503 2744 
Q 1338 2744 1170 2645 
Q 1003 2547 900 2300 
Q 797 2053 797 1666 
Q 797 1041 1045 587 
Q 1294 134 1700 134 
Q 2003 134 2200 384 
Q 2397 634 2397 1244 
Q 2397 2006 2069 2444 
Q 1847 2744 1503 2744 
z
" id="TimesNewRomanPSMT-6f" transform="scale(0.015625)"/>
       <path d="M 2222 322 
Q 2013 103 1813 7 
Q 1613 -88 1381 -88 
Q 913 -88 563 304 
Q 213 697 213 1313 
Q 213 1928 600 2439 
Q 988 2950 1597 2950 
Q 1975 2950 2222 2709 
L 2222 3238 
Q 2222 3728 2198 3840 
Q 2175 3953 2125 3993 
Q 2075 4034 2000 4034 
Q 1919 4034 1784 3984 
L 1744 4094 
L 2597 4444 
L 2738 4444 
L 2738 1134 
Q 2738 631 2761 520 
Q 2784 409 2836 365 
Q 2888 322 2956 322 
Q 3041 322 3181 375 
L 3216 266 
L 2366 -88 
L 2222 -88 
L 2222 322 
z
M 2222 541 
L 2222 2016 
Q 2203 2228 2109 2403 
Q 2016 2578 1861 2667 
Q 1706 2756 1559 2756 
Q 1284 2756 1069 2509 
Q 784 2184 784 1559 
Q 784 928 1059 592 
Q 1334 256 1672 256 
Q 1956 256 2222 541 
z
" id="TimesNewRomanPSMT-64" transform="scale(0.015625)"/>
      </defs>
      <use xlink:href="#TimesNewRomanPSMT-52"/>
      <use x="66.699219" xlink:href="#TimesNewRomanPSMT-65"/>
      <use x="111.083984" xlink:href="#TimesNewRomanPSMT-74"/>
      <use x="138.867188" xlink:href="#TimesNewRomanPSMT-75"/>
      <use x="188.867188" xlink:href="#TimesNewRomanPSMT-72"/>
      <use x="222.167969" xlink:href="#TimesNewRomanPSMT-6e"/>
      <use x="272.167969" xlink:href="#TimesNewRomanPSMT-20"/>
      <use x="297.167969" xlink:href="#TimesNewRomanPSMT-70"/>
      <use x="347.167969" xlink:href="#TimesNewRomanPSMT-65"/>
      <use x="391.552734" xlink:href="#TimesNewRomanPSMT-72"/>
      <use x="424.853516" xlink:href="#TimesNewRomanPSMT-69"/>
      <use x="452.636719" xlink:href="#TimesNewRomanPSMT-6f"/>
      <use x="502.636719" xlink:href="#TimesNewRomanPSMT-64"/>
     </g>
    </g>
   </g>
   <g id="line2d_14">
    <path clip-path="url(#p537b5cb5f0)" d="M 103.827273 383.197406 
L 119.045455 384.439385 
L 134.263636 385.63032 
L 149.481818 386.77249 
L 164.7 387.868064 
L 179.918182 388.919109 
L 195.136364 389.927593 
L 210.354545 390.895392 
L 225.572727 391.824293 
L 240.790909 392.715999 
L 256.009091 393.572132 
L 271.227273 394.394241 
L 286.445455 395.1838 
L 301.663636 395.942215 
L 316.881818 396.670829 
L 332.1 397.37092 
L 347.318182 398.04371 
L 362.536364 398.690361 
L 377.754545 399.311986 
L 392.972727 399.909645 
L 408.190909 400.484349 
L 423.409091 401.037066 
L 438.627273 401.568717 
L 453.845455 402.080182 
L 469.063636 402.572304 
L 484.281818 403.045886 
L 499.5 403.501695 
L 514.718182 403.940463 
L 529.936364 404.362893 
L 545.154545 404.769653 
L 560.372727 405.161384 
" style="fill:none;stroke:#1f77b4;stroke-linecap:square;stroke-width:0.8;"/>
   </g>
   <g id="line2d_15">
    <path clip-path="url(#p537b5cb5f0)" d="M 103.827273 349.261734 
L 119.045455 351.953185 
L 134.263636 354.526659 
L 149.481818 356.987729 
L 164.7 359.341685 
L 179.918182 361.593556 
L 195.136364 363.748115 
L 210.354545 365.809903 
L 225.572727 367.783232 
L 240.790909 369.672202 
L 256.009091 371.48071 
L 271.227273 373.212461 
L 286.445455 374.87098 
L 301.663636 376.459617 
L 316.881818 377.98156 
L 332.1 379.439843 
L 347.318182 380.83735 
L 362.536364 382.176828 
L 377.754545 383.46089 
L 392.972727 384.692025 
L 408.190909 385.8726 
L 423.409091 387.004871 
L 438.627273 388.090987 
L 453.845455 389.132991 
L 469.063636 390.132835 
L 484.281818 391.092372 
L 499.5 392.013374 
L 514.718182 392.897526 
L 529.936364 393.746434 
L 545.154545 394.561632 
L 560.372727 395.344578 
" style="fill:none;stroke:#ff7f0e;stroke-linecap:square;stroke-width:0.8;"/>
   </g>
   <g id="line2d_16">
    <path clip-path="url(#p537b5cb5f0)" d="M 103.827273 247.45472 
L 119.045455 254.817493 
L 134.263636 261.832532 
L 149.481818 268.517377 
L 164.7 274.888633 
L 179.918182 280.962023 
L 195.136364 286.752437 
L 210.354545 292.273977 
L 225.572727 297.540002 
L 240.790909 302.56317 
L 256.009091 307.355475 
L 271.227273 311.928283 
L 286.445455 316.29237 
L 301.663636 320.45795 
L 316.881818 324.434707 
L 332.1 328.231827 
L 347.318182 331.858019 
L 362.536364 335.321547 
L 377.754545 338.630251 
L 392.972727 341.791568 
L 408.190909 344.812559 
L 423.409091 347.699924 
L 438.627273 350.460023 
L 453.845455 353.098897 
L 469.063636 355.622279 
L 484.281818 358.035617 
L 499.5 360.344084 
L 514.718182 362.552594 
L 529.936364 364.665818 
L 545.154545 366.688194 
L 560.372727 368.623939 
" style="fill:none;stroke:#2ca02c;stroke-linecap:square;stroke-width:0.8;"/>
   </g>
   <g id="line2d_17">
    <path clip-path="url(#p537b5cb5f0)" d="M 103.827273 77.776364 
L 119.045455 93.397206 
L 134.263636 108.24242 
L 149.481818 122.352911 
L 164.7 135.767319 
L 179.918182 148.522141 
L 195.136364 160.651862 
L 210.354545 172.189067 
L 225.572727 183.164554 
L 240.790909 193.607432 
L 256.009091 203.545223 
L 271.227273 213.003947 
L 286.445455 222.008213 
L 301.663636 230.581297 
L 316.881818 238.745215 
L 332.1 246.5208 
L 347.318182 253.927763 
L 362.536364 260.98476 
L 377.754545 267.70945 
L 392.972727 274.118549 
L 408.190909 280.227888 
L 423.409091 286.052456 
L 438.627273 291.606449 
L 453.845455 296.903318 
L 469.063636 301.955804 
L 484.281818 306.775981 
L 499.5 311.375291 
L 514.718182 315.76458 
L 529.936364 319.954131 
L 545.154545 323.953691 
L 560.372727 327.772505 
" style="fill:none;stroke:#d62728;stroke-linecap:square;stroke-width:0.8;"/>
   </g>
   <g id="patch_3">
    <path d="M 81 441 
L 81 60.48 
" style="fill:none;stroke:#000000;stroke-linecap:square;stroke-linejoin:miter;stroke-width:0.8;"/>
   </g>
   <g id="patch_4">
    <path d="M 583.2 441 
L 583.2 60.48 
" style="fill:none;stroke:#000000;stroke-linecap:square;stroke-linejoin:miter;stroke-width:0.8;"/>
   </g>
   <g id="patch_5">
    <path d="M 81 441 
L 583.2 441 
" style="fill:none;stroke:#000000;stroke-linecap:square;stroke-linejoin:miter;stroke-width:0.8;"/>
   </g>
   <g id="patch_6">
    <path d="M 81 60.48 
L 583.2 60.48 
" style="fill:none;stroke:#000000;stroke-linecap:square;stroke-linejoin:miter;stroke-width:0.8;"/>
   </g>
   <g id="text_16">
    <!-- Return Period Reduction -->
    <g transform="translate(246.19275 54.48)scale(0.1728 -0.1728)">
     <defs>
      <path d="M 1313 1984 
L 1313 750 
Q 1313 350 1400 253 
Q 1519 116 1759 116 
L 1922 116 
L 1922 0 
L 106 0 
L 106 116 
L 266 116 
Q 534 116 650 291 
Q 713 388 713 750 
L 713 3488 
Q 713 3888 628 3984 
Q 506 4122 266 4122 
L 106 4122 
L 106 4238 
L 1659 4238 
Q 2228 4238 2556 4120 
Q 2884 4003 3109 3725 
Q 3334 3447 3334 3066 
Q 3334 2547 2992 2222 
Q 2650 1897 2025 1897 
Q 1872 1897 1694 1919 
Q 1516 1941 1313 1984 
z
M 1313 2163 
Q 1478 2131 1606 2115 
Q 1734 2100 1825 2100 
Q 2150 2100 2386 2351 
Q 2622 2603 2622 3003 
Q 2622 3278 2509 3514 
Q 2397 3750 2190 3867 
Q 1984 3984 1722 3984 
Q 1563 3984 1313 3925 
L 1313 2163 
z
" id="TimesNewRomanPSMT-50" transform="scale(0.015625)"/>
      <path d="M 2631 1088 
Q 2516 522 2178 217 
Q 1841 -88 1431 -88 
Q 944 -88 581 321 
Q 219 731 219 1428 
Q 219 2103 620 2525 
Q 1022 2947 1584 2947 
Q 2006 2947 2278 2723 
Q 2550 2500 2550 2259 
Q 2550 2141 2473 2067 
Q 2397 1994 2259 1994 
Q 2075 1994 1981 2113 
Q 1928 2178 1911 2362 
Q 1894 2547 1784 2644 
Q 1675 2738 1481 2738 
Q 1169 2738 978 2506 
Q 725 2200 725 1697 
Q 725 1184 976 792 
Q 1228 400 1656 400 
Q 1963 400 2206 609 
Q 2378 753 2541 1131 
L 2631 1088 
z
" id="TimesNewRomanPSMT-63" transform="scale(0.015625)"/>
     </defs>
     <use xlink:href="#TimesNewRomanPSMT-52"/>
     <use x="66.699219" xlink:href="#TimesNewRomanPSMT-65"/>
     <use x="111.083984" xlink:href="#TimesNewRomanPSMT-74"/>
     <use x="138.867188" xlink:href="#TimesNewRomanPSMT-75"/>
     <use x="188.867188" xlink:href="#TimesNewRomanPSMT-72"/>
     <use x="222.167969" xlink:href="#TimesNewRomanPSMT-6e"/>
     <use x="272.167969" xlink:href="#TimesNewRomanPSMT-20"/>
     <use x="297.167969" xlink:href="#TimesNewRomanPSMT-50"/>
     <use x="352.783203" xlink:href="#TimesNewRomanPSMT-65"/>
     <use x="397.167969" xlink:href="#TimesNewRomanPSMT-72"/>
     <use x="430.46875" xlink:href="#TimesNewRomanPSMT-69"/>
     <use x="458.251953" xlink:href="#TimesNewRomanPSMT-6f"/>
     <use x="508.251953" xlink:href="#TimesNewRomanPSMT-64"/>
     <use x="558.251953" xlink:href="#TimesNewRomanPSMT-20"/>
     <use x="583.251953" xlink:href="#TimesNewRomanPSMT-52"/>
     <use x="649.951172" xlink:href="#TimesNewRomanPSMT-65"/>
     <use x="694.335938" xlink:href="#TimesNewRomanPSMT-64"/>
     <use x="744.335938" xlink:href="#TimesNewRomanPSMT-75"/>
     <use x="794.335938" xlink:href="#TimesNewRomanPSMT-63"/>
     <use x="838.720703" xlink:href="#TimesNewRomanPSMT-74"/>
     <use x="866.503906" xlink:href="#TimesNewRomanPSMT-69"/>
     <use x="894.287109" xlink:href="#TimesNewRomanPSMT-6f"/>
     <use x="944.287109" xlink:href="#TimesNewRomanPSMT-6e"/>
    </g>
   </g>
   <g id="legend_1">
    <g id="patch_7">
     <path d="M 464.94375 127.1925 
L 576.2 127.1925 
Q 578.2 127.1925 578.2 125.1925 
L 578.2 67.48 
Q 578.2 65.48 576.2 65.48 
L 464.94375 65.48 
Q 462.94375 65.48 462.94375 67.48 
L 462.94375 125.1925 
Q 462.94375 127.1925 464.94375 127.1925 
z
" style="fill:#ffffff;opacity:0.8;stroke:#cccccc;stroke-linejoin:miter;"/>
    </g>
    <g id="line2d_18">
     <path d="M 466.94375 73.578438 
L 486.94375 73.578438 
" style="fill:none;stroke:#1f77b4;stroke-linecap:square;stroke-width:0.8;"/>
    </g>
    <g id="line2d_19"/>
    <g id="text_17">
     <!-- 100-year flood -->
     <g transform="translate(494.94375 77.078438)scale(0.1 -0.1)">
      <defs>
       <path d="M 313 2009 
L 1997 2009 
L 1997 1497 
L 313 1497 
L 313 2009 
z
" id="DejaVuSans-2d" transform="scale(0.015625)"/>
       <path d="M 2059 -325 
Q 1816 -950 1584 -1140 
Q 1353 -1331 966 -1331 
L 506 -1331 
L 506 -850 
L 844 -850 
Q 1081 -850 1212 -737 
Q 1344 -625 1503 -206 
L 1606 56 
L 191 3500 
L 800 3500 
L 1894 763 
L 2988 3500 
L 3597 3500 
L 2059 -325 
z
" id="DejaVuSans-79" transform="scale(0.015625)"/>
       <path d="M 3597 1894 
L 3597 1613 
L 953 1613 
Q 991 1019 1311 708 
Q 1631 397 2203 397 
Q 2534 397 2845 478 
Q 3156 559 3463 722 
L 3463 178 
Q 3153 47 2828 -22 
Q 2503 -91 2169 -91 
Q 1331 -91 842 396 
Q 353 884 353 1716 
Q 353 2575 817 3079 
Q 1281 3584 2069 3584 
Q 2775 3584 3186 3129 
Q 3597 2675 3597 1894 
z
M 3022 2063 
Q 3016 2534 2758 2815 
Q 2500 3097 2075 3097 
Q 1594 3097 1305 2825 
Q 1016 2553 972 2059 
L 3022 2063 
z
" id="DejaVuSans-65" transform="scale(0.015625)"/>
       <path d="M 2194 1759 
Q 1497 1759 1228 1600 
Q 959 1441 959 1056 
Q 959 750 1161 570 
Q 1363 391 1709 391 
Q 2188 391 2477 730 
Q 2766 1069 2766 1631 
L 2766 1759 
L 2194 1759 
z
M 3341 1997 
L 3341 0 
L 2766 0 
L 2766 531 
Q 2569 213 2275 61 
Q 1981 -91 1556 -91 
Q 1019 -91 701 211 
Q 384 513 384 1019 
Q 384 1609 779 1909 
Q 1175 2209 1959 2209 
L 2766 2209 
L 2766 2266 
Q 2766 2663 2505 2880 
Q 2244 3097 1772 3097 
Q 1472 3097 1187 3025 
Q 903 2953 641 2809 
L 641 3341 
Q 956 3463 1253 3523 
Q 1550 3584 1831 3584 
Q 2591 3584 2966 3190 
Q 3341 2797 3341 1997 
z
" id="DejaVuSans-61" transform="scale(0.015625)"/>
       <path d="M 2631 2963 
Q 2534 3019 2420 3045 
Q 2306 3072 2169 3072 
Q 1681 3072 1420 2755 
Q 1159 2438 1159 1844 
L 1159 0 
L 581 0 
L 581 3500 
L 1159 3500 
L 1159 2956 
Q 1341 3275 1631 3429 
Q 1922 3584 2338 3584 
Q 2397 3584 2469 3576 
Q 2541 3569 2628 3553 
L 2631 2963 
z
" id="DejaVuSans-72" transform="scale(0.015625)"/>
       <path id="DejaVuSans-20" transform="scale(0.015625)"/>
       <path d="M 2375 4863 
L 2375 4384 
L 1825 4384 
Q 1516 4384 1395 4259 
Q 1275 4134 1275 3809 
L 1275 3500 
L 2222 3500 
L 2222 3053 
L 1275 3053 
L 1275 0 
L 697 0 
L 697 3053 
L 147 3053 
L 147 3500 
L 697 3500 
L 697 3744 
Q 697 4328 969 4595 
Q 1241 4863 1831 4863 
L 2375 4863 
z
" id="DejaVuSans-66" transform="scale(0.015625)"/>
       <path d="M 603 4863 
L 1178 4863 
L 1178 0 
L 603 0 
L 603 4863 
z
" id="DejaVuSans-6c" transform="scale(0.015625)"/>
       <path d="M 1959 3097 
Q 1497 3097 1228 2736 
Q 959 2375 959 1747 
Q 959 1119 1226 758 
Q 1494 397 1959 397 
Q 2419 397 2687 759 
Q 2956 1122 2956 1747 
Q 2956 2369 2687 2733 
Q 2419 3097 1959 3097 
z
M 1959 3584 
Q 2709 3584 3137 3096 
Q 3566 2609 3566 1747 
Q 3566 888 3137 398 
Q 2709 -91 1959 -91 
Q 1206 -91 779 398 
Q 353 888 353 1747 
Q 353 2609 779 3096 
Q 1206 3584 1959 3584 
z
" id="DejaVuSans-6f" transform="scale(0.015625)"/>
       <path d="M 2906 2969 
L 2906 4863 
L 3481 4863 
L 3481 0 
L 2906 0 
L 2906 525 
Q 2725 213 2448 61 
Q 2172 -91 1784 -91 
Q 1150 -91 751 415 
Q 353 922 353 1747 
Q 353 2572 751 3078 
Q 1150 3584 1784 3584 
Q 2172 3584 2448 3432 
Q 2725 3281 2906 2969 
z
M 947 1747 
Q 947 1113 1208 752 
Q 1469 391 1925 391 
Q 2381 391 2643 752 
Q 2906 1113 2906 1747 
Q 2906 2381 2643 2742 
Q 2381 3103 1925 3103 
Q 1469 3103 1208 2742 
Q 947 2381 947 1747 
z
" id="DejaVuSans-64" transform="scale(0.015625)"/>
      </defs>
      <use xlink:href="#DejaVuSans-31"/>
      <use x="63.623047" xlink:href="#DejaVuSans-30"/>
      <use x="127.246094" xlink:href="#DejaVuSans-30"/>
      <use x="190.869141" xlink:href="#DejaVuSans-2d"/>
      <use x="225.203125" xlink:href="#DejaVuSans-79"/>
      <use x="284.382812" xlink:href="#DejaVuSans-65"/>
      <use x="345.90625" xlink:href="#DejaVuSans-61"/>
      <use x="407.185547" xlink:href="#DejaVuSans-72"/>
      <use x="448.298828" xlink:href="#DejaVuSans-20"/>
      <use x="480.085938" xlink:href="#DejaVuSans-66"/>
      <use x="515.291016" xlink:href="#DejaVuSans-6c"/>
      <use x="543.074219" xlink:href="#DejaVuSans-6f"/>
      <use x="604.255859" xlink:href="#DejaVuSans-6f"/>
      <use x="665.4375" xlink:href="#DejaVuSans-64"/>
     </g>
    </g>
    <g id="line2d_20">
     <path d="M 466.94375 88.256563 
L 486.94375 88.256563 
" style="fill:none;stroke:#ff7f0e;stroke-linecap:square;stroke-width:0.8;"/>
    </g>
    <g id="line2d_21"/>
    <g id="text_18">
     <!-- 200-year flood -->
     <g transform="translate(494.94375 91.756563)scale(0.1 -0.1)">
      <use xlink:href="#DejaVuSans-32"/>
      <use x="63.623047" xlink:href="#DejaVuSans-30"/>
      <use x="127.246094" xlink:href="#DejaVuSans-30"/>
      <use x="190.869141" xlink:href="#DejaVuSans-2d"/>
      <use x="225.203125" xlink:href="#DejaVuSans-79"/>
      <use x="284.382812" xlink:href="#DejaVuSans-65"/>
      <use x="345.90625" xlink:href="#DejaVuSans-61"/>
      <use x="407.185547" xlink:href="#DejaVuSans-72"/>
      <use x="448.298828" xlink:href="#DejaVuSans-20"/>
      <use x="480.085938" xlink:href="#DejaVuSans-66"/>
      <use x="515.291016" xlink:href="#DejaVuSans-6c"/>
      <use x="543.074219" xlink:href="#DejaVuSans-6f"/>
      <use x="604.255859" xlink:href="#DejaVuSans-6f"/>
      <use x="665.4375" xlink:href="#DejaVuSans-64"/>
     </g>
    </g>
    <g id="line2d_22">
     <path d="M 466.94375 102.934687 
L 486.94375 102.934687 
" style="fill:none;stroke:#2ca02c;stroke-linecap:square;stroke-width:0.8;"/>
    </g>
    <g id="line2d_23"/>
    <g id="text_19">
     <!-- 500-year flood -->
     <g transform="translate(494.94375 106.434687)scale(0.1 -0.1)">
      <use xlink:href="#DejaVuSans-35"/>
      <use x="63.623047" xlink:href="#DejaVuSans-30"/>
      <use x="127.246094" xlink:href="#DejaVuSans-30"/>
      <use x="190.869141" xlink:href="#DejaVuSans-2d"/>
      <use x="225.203125" xlink:href="#DejaVuSans-79"/>
      <use x="284.382812" xlink:href="#DejaVuSans-65"/>
      <use x="345.90625" xlink:href="#DejaVuSans-61"/>
      <use x="407.185547" xlink:href="#DejaVuSans-72"/>
      <use x="448.298828" xlink:href="#DejaVuSans-20"/>
      <use x="480.085938" xlink:href="#DejaVuSans-66"/>
      <use x="515.291016" xlink:href="#DejaVuSans-6c"/>
      <use x="543.074219" xlink:href="#DejaVuSans-6f"/>
      <use x="604.255859" xlink:href="#DejaVuSans-6f"/>
      <use x="665.4375" xlink:href="#DejaVuSans-64"/>
     </g>
    </g>
    <g id="line2d_24">
     <path d="M 466.94375 117.612813 
L 486.94375 117.612813 
" style="fill:none;stroke:#d62728;stroke-linecap:square;stroke-width:0.8;"/>
    </g>
    <g id="line2d_25"/>
    <g id="text_20">
     <!-- 1000-year flood -->
     <g transform="translate(494.94375 121.112813)scale(0.1 -0.1)">
      <use xlink:href="#DejaVuSans-31"/>
      <use x="63.623047" xlink:href="#DejaVuSans-30"/>
      <use x="127.246094" xlink:href="#DejaVuSans-30"/>
      <use x="190.869141" xlink:href="#DejaVuSans-30"/>
      <use x="254.492188" xlink:href="#DejaVuSans-2d"/>
      <use x="288.826172" xlink:href="#DejaVuSans-79"/>
      <use x="348.005859" xlink:href="#DejaVuSans-65"/>
      <use x="409.529297" xlink:href="#DejaVuSans-61"/>
      <use x="470.808594" xlink:href="#DejaVuSans-72"/>
      <use x="511.921875" xlink:href="#DejaVuSans-20"/>
      <use x="543.708984" xlink:href="#DejaVuSans-66"/>
      <use x="578.914062" xlink:href="#DejaVuSans-6c"/>
      <use x="606.697266" xlink:href="#DejaVuSans-6f"/>
      <use x="667.878906" xlink:href="#DejaVuSans-6f"/>
      <use x="729.060547" xlink:href="#DejaVuSans-64"/>
     </g>
    </g>
   </g>
  </g>
 </g>
 <defs>
  <clipPath id="p537b5cb5f0">
   <rect height="380.52" width="502.2" x="81" y="60.48"/>
  </clipPath>
 </defs>
</svg>
