<?xml version="1.0" encoding="utf-8" standalone="no"?>
<!DOCTYPE svg PUBLIC "-//W3C//DTD SVG 1.1//EN"
  "http://www.w3.org/Graphics/SVG/1.1/DTD/svg11.dtd">
<svg height="576pt" version="1.1" viewBox="0 0 1008 576" width="1008pt" xmlns="http://www.w3.org/2000/svg" xmlns:xlink="http://www.w3.org/1999/xlink">
 <metadata>
  <rdf:RDF xmlns:cc="http://creativecommons.org/ns#" xmlns:dc="http://purl.org/dc/elements/1.1/" xmlns:rdf="http://www.w3.org/1999/02/22-rdf-syntax-ns#">
   <cc:Work>
    <dc:type rdf:resource="http://purl.org/dc/dcmitype/StillImage"/>
    <dc:date>2022-03-08T23:29:55.280093</dc:date>
    <dc:format>image/svg+xml</dc:format>
    <dc:creator>
     <cc:Agent>
      <dc:title>Matplotlib v3.4.3, https://matplotlib.org/</dc:title>
     </cc:Agent>
    </dc:creator>
   </cc:Work>
  </rdf:RDF>
 </metadata>
 <defs>
  <style type="text/css">*{stroke-linecap:butt;stroke-linejoin:round;}</style>
 </defs>
 <g id="figure_1">
  <g id="patch_1">
   <path d="M 0 576 
L 1008 576 
L 1008 0 
L 0 0 
z
" style="fill:none;"/>
  </g>
  <g id="axes_1">
   <g id="patch_2">
    <path d="M 126 267.054545 
L 443.73913 267.054545 
L 443.73913 57.6 
L 126 57.6 
z
" style="fill:#ffffff;"/>
   </g>
   <g id="matplotlib.axis_1">
    <g id="xtick_1">
     <g id="line2d_1">
      <defs>
       <path d="M 0 0 
L 0 3.5 
" id="m6c32262299" style="stroke:#000000;stroke-width:0.8;"/>
      </defs>
      <g>
       <use style="stroke:#000000;stroke-width:0.8;" x="140.442688" xlink:href="#m6c32262299" y="267.054545"/>
      </g>
     </g>
     <g id="text_1">
      <!-- 0.0 -->
      <g transform="translate(132.491125 281.652983)scale(0.1 -0.1)">
       <defs>
        <path d="M 2034 4250 
Q 1547 4250 1301 3770 
Q 1056 3291 1056 2328 
Q 1056 1369 1301 889 
Q 1547 409 2034 409 
Q 2525 409 2770 889 
Q 3016 1369 3016 2328 
Q 3016 3291 2770 3770 
Q 2525 4250 2034 4250 
z
M 2034 4750 
Q 2819 4750 3233 4129 
Q 3647 3509 3647 2328 
Q 3647 1150 3233 529 
Q 2819 -91 2034 -91 
Q 1250 -91 836 529 
Q 422 1150 422 2328 
Q 422 3509 836 4129 
Q 1250 4750 2034 4750 
z
" id="DejaVuSans-30" transform="scale(0.015625)"/>
        <path d="M 684 794 
L 1344 794 
L 1344 0 
L 684 0 
L 684 794 
z
" id="DejaVuSans-2e" transform="scale(0.015625)"/>
       </defs>
       <use xlink:href="#DejaVuSans-30"/>
       <use x="63.623047" xlink:href="#DejaVuSans-2e"/>
       <use x="95.410156" xlink:href="#DejaVuSans-30"/>
      </g>
     </g>
    </g>
    <g id="xtick_2">
     <g id="line2d_2">
      <g>
       <use style="stroke:#000000;stroke-width:0.8;" x="176.549407" xlink:href="#m6c32262299" y="267.054545"/>
      </g>
     </g>
     <g id="text_2">
      <!-- 2.5 -->
      <g transform="translate(168.597845 281.652983)scale(0.1 -0.1)">
       <defs>
        <path d="M 1228 531 
L 3431 531 
L 3431 0 
L 469 0 
L 469 531 
Q 828 903 1448 1529 
Q 2069 2156 2228 2338 
Q 2531 2678 2651 2914 
Q 2772 3150 2772 3378 
Q 2772 3750 2511 3984 
Q 2250 4219 1831 4219 
Q 1534 4219 1204 4116 
Q 875 4013 500 3803 
L 500 4441 
Q 881 4594 1212 4672 
Q 1544 4750 1819 4750 
Q 2544 4750 2975 4387 
Q 3406 4025 3406 3419 
Q 3406 3131 3298 2873 
Q 3191 2616 2906 2266 
Q 2828 2175 2409 1742 
Q 1991 1309 1228 531 
z
" id="DejaVuSans-32" transform="scale(0.015625)"/>
        <path d="M 691 4666 
L 3169 4666 
L 3169 4134 
L 1269 4134 
L 1269 2991 
Q 1406 3038 1543 3061 
Q 1681 3084 1819 3084 
Q 2600 3084 3056 2656 
Q 3513 2228 3513 1497 
Q 3513 744 3044 326 
Q 2575 -91 1722 -91 
Q 1428 -91 1123 -41 
Q 819 9 494 109 
L 494 744 
Q 775 591 1075 516 
Q 1375 441 1709 441 
Q 2250 441 2565 725 
Q 2881 1009 2881 1497 
Q 2881 1984 2565 2268 
Q 2250 2553 1709 2553 
Q 1456 2553 1204 2497 
Q 953 2441 691 2322 
L 691 4666 
z
" id="DejaVuSans-35" transform="scale(0.015625)"/>
       </defs>
       <use xlink:href="#DejaVuSans-32"/>
       <use x="63.623047" xlink:href="#DejaVuSans-2e"/>
       <use x="95.410156" xlink:href="#DejaVuSans-35"/>
      </g>
     </g>
    </g>
    <g id="xtick_3">
     <g id="line2d_3">
      <g>
       <use style="stroke:#000000;stroke-width:0.8;" x="212.656126" xlink:href="#m6c32262299" y="267.054545"/>
      </g>
     </g>
     <g id="text_3">
      <!-- 5.0 -->
      <g transform="translate(204.704564 281.652983)scale(0.1 -0.1)">
       <use xlink:href="#DejaVuSans-35"/>
       <use x="63.623047" xlink:href="#DejaVuSans-2e"/>
       <use x="95.410156" xlink:href="#DejaVuSans-30"/>
      </g>
     </g>
    </g>
    <g id="xtick_4">
     <g id="line2d_4">
      <g>
       <use style="stroke:#000000;stroke-width:0.8;" x="248.762846" xlink:href="#m6c32262299" y="267.054545"/>
      </g>
     </g>
     <g id="text_4">
      <!-- 7.5 -->
      <g transform="translate(240.811283 281.652983)scale(0.1 -0.1)">
       <defs>
        <path d="M 525 4666 
L 3525 4666 
L 3525 4397 
L 1831 0 
L 1172 0 
L 2766 4134 
L 525 4134 
L 525 4666 
z
" id="DejaVuSans-37" transform="scale(0.015625)"/>
       </defs>
       <use xlink:href="#DejaVuSans-37"/>
       <use x="63.623047" xlink:href="#DejaVuSans-2e"/>
       <use x="95.410156" xlink:href="#DejaVuSans-35"/>
      </g>
     </g>
    </g>
    <g id="xtick_5">
     <g id="line2d_5">
      <g>
       <use style="stroke:#000000;stroke-width:0.8;" x="284.869565" xlink:href="#m6c32262299" y="267.054545"/>
      </g>
     </g>
     <g id="text_5">
      <!-- 10.0 -->
      <g transform="translate(273.736753 281.652983)scale(0.1 -0.1)">
       <defs>
        <path d="M 794 531 
L 1825 531 
L 1825 4091 
L 703 3866 
L 703 4441 
L 1819 4666 
L 2450 4666 
L 2450 531 
L 3481 531 
L 3481 0 
L 794 0 
L 794 531 
z
" id="DejaVuSans-31" transform="scale(0.015625)"/>
       </defs>
       <use xlink:href="#DejaVuSans-31"/>
       <use x="63.623047" xlink:href="#DejaVuSans-30"/>
       <use x="127.246094" xlink:href="#DejaVuSans-2e"/>
       <use x="159.033203" xlink:href="#DejaVuSans-30"/>
      </g>
     </g>
    </g>
    <g id="xtick_6">
     <g id="line2d_6">
      <g>
       <use style="stroke:#000000;stroke-width:0.8;" x="320.976285" xlink:href="#m6c32262299" y="267.054545"/>
      </g>
     </g>
     <g id="text_6">
      <!-- 12.5 -->
      <g transform="translate(309.843472 281.652983)scale(0.1 -0.1)">
       <use xlink:href="#DejaVuSans-31"/>
       <use x="63.623047" xlink:href="#DejaVuSans-32"/>
       <use x="127.246094" xlink:href="#DejaVuSans-2e"/>
       <use x="159.033203" xlink:href="#DejaVuSans-35"/>
      </g>
     </g>
    </g>
    <g id="xtick_7">
     <g id="line2d_7">
      <g>
       <use style="stroke:#000000;stroke-width:0.8;" x="357.083004" xlink:href="#m6c32262299" y="267.054545"/>
      </g>
     </g>
     <g id="text_7">
      <!-- 15.0 -->
      <g transform="translate(345.950191 281.652983)scale(0.1 -0.1)">
       <use xlink:href="#DejaVuSans-31"/>
       <use x="63.623047" xlink:href="#DejaVuSans-35"/>
       <use x="127.246094" xlink:href="#DejaVuSans-2e"/>
       <use x="159.033203" xlink:href="#DejaVuSans-30"/>
      </g>
     </g>
    </g>
    <g id="xtick_8">
     <g id="line2d_8">
      <g>
       <use style="stroke:#000000;stroke-width:0.8;" x="393.189723" xlink:href="#m6c32262299" y="267.054545"/>
      </g>
     </g>
     <g id="text_8">
      <!-- 17.5 -->
      <g transform="translate(382.056911 281.652983)scale(0.1 -0.1)">
       <use xlink:href="#DejaVuSans-31"/>
       <use x="63.623047" xlink:href="#DejaVuSans-37"/>
       <use x="127.246094" xlink:href="#DejaVuSans-2e"/>
       <use x="159.033203" xlink:href="#DejaVuSans-35"/>
      </g>
     </g>
    </g>
    <g id="xtick_9">
     <g id="line2d_9">
      <g>
       <use style="stroke:#000000;stroke-width:0.8;" x="429.296443" xlink:href="#m6c32262299" y="267.054545"/>
      </g>
     </g>
     <g id="text_9">
      <!-- 20.0 -->
      <g transform="translate(418.16363 281.652983)scale(0.1 -0.1)">
       <use xlink:href="#DejaVuSans-32"/>
       <use x="63.623047" xlink:href="#DejaVuSans-30"/>
       <use x="127.246094" xlink:href="#DejaVuSans-2e"/>
       <use x="159.033203" xlink:href="#DejaVuSans-30"/>
      </g>
     </g>
    </g>
   </g>
   <g id="matplotlib.axis_2">
    <g id="ytick_1">
     <g id="line2d_10">
      <defs>
       <path d="M 0 0 
L -3.5 0 
" id="m828ad1a2c7" style="stroke:#000000;stroke-width:0.8;"/>
      </defs>
      <g>
       <use style="stroke:#000000;stroke-width:0.8;" x="126" xlink:href="#m828ad1a2c7" y="227.310079"/>
      </g>
     </g>
     <g id="text_10">
      <!-- 200 -->
      <g transform="translate(99.9125 231.109298)scale(0.1 -0.1)">
       <use xlink:href="#DejaVuSans-32"/>
       <use x="63.623047" xlink:href="#DejaVuSans-30"/>
       <use x="127.246094" xlink:href="#DejaVuSans-30"/>
      </g>
     </g>
    </g>
    <g id="ytick_2">
     <g id="line2d_11">
      <g>
       <use style="stroke:#000000;stroke-width:0.8;" x="126" xlink:href="#m828ad1a2c7" y="187.262725"/>
      </g>
     </g>
     <g id="text_11">
      <!-- 400 -->
      <g transform="translate(99.9125 191.061943)scale(0.1 -0.1)">
       <defs>
        <path d="M 2419 4116 
L 825 1625 
L 2419 1625 
L 2419 4116 
z
M 2253 4666 
L 3047 4666 
L 3047 1625 
L 3713 1625 
L 3713 1100 
L 3047 1100 
L 3047 0 
L 2419 0 
L 2419 1100 
L 313 1100 
L 313 1709 
L 2253 4666 
z
" id="DejaVuSans-34" transform="scale(0.015625)"/>
       </defs>
       <use xlink:href="#DejaVuSans-34"/>
       <use x="63.623047" xlink:href="#DejaVuSans-30"/>
       <use x="127.246094" xlink:href="#DejaVuSans-30"/>
      </g>
     </g>
    </g>
    <g id="ytick_3">
     <g id="line2d_12">
      <g>
       <use style="stroke:#000000;stroke-width:0.8;" x="126" xlink:href="#m828ad1a2c7" y="147.21537"/>
      </g>
     </g>
     <g id="text_12">
      <!-- 600 -->
      <g transform="translate(99.9125 151.014589)scale(0.1 -0.1)">
       <defs>
        <path d="M 2113 2584 
Q 1688 2584 1439 2293 
Q 1191 2003 1191 1497 
Q 1191 994 1439 701 
Q 1688 409 2113 409 
Q 2538 409 2786 701 
Q 3034 994 3034 1497 
Q 3034 2003 2786 2293 
Q 2538 2584 2113 2584 
z
M 3366 4563 
L 3366 3988 
Q 3128 4100 2886 4159 
Q 2644 4219 2406 4219 
Q 1781 4219 1451 3797 
Q 1122 3375 1075 2522 
Q 1259 2794 1537 2939 
Q 1816 3084 2150 3084 
Q 2853 3084 3261 2657 
Q 3669 2231 3669 1497 
Q 3669 778 3244 343 
Q 2819 -91 2113 -91 
Q 1303 -91 875 529 
Q 447 1150 447 2328 
Q 447 3434 972 4092 
Q 1497 4750 2381 4750 
Q 2619 4750 2861 4703 
Q 3103 4656 3366 4563 
z
" id="DejaVuSans-36" transform="scale(0.015625)"/>
       </defs>
       <use xlink:href="#DejaVuSans-36"/>
       <use x="63.623047" xlink:href="#DejaVuSans-30"/>
       <use x="127.246094" xlink:href="#DejaVuSans-30"/>
      </g>
     </g>
    </g>
    <g id="ytick_4">
     <g id="line2d_13">
      <g>
       <use style="stroke:#000000;stroke-width:0.8;" x="126" xlink:href="#m828ad1a2c7" y="107.168016"/>
      </g>
     </g>
     <g id="text_13">
      <!-- 800 -->
      <g transform="translate(99.9125 110.967234)scale(0.1 -0.1)">
       <defs>
        <path d="M 2034 2216 
Q 1584 2216 1326 1975 
Q 1069 1734 1069 1313 
Q 1069 891 1326 650 
Q 1584 409 2034 409 
Q 2484 409 2743 651 
Q 3003 894 3003 1313 
Q 3003 1734 2745 1975 
Q 2488 2216 2034 2216 
z
M 1403 2484 
Q 997 2584 770 2862 
Q 544 3141 544 3541 
Q 544 4100 942 4425 
Q 1341 4750 2034 4750 
Q 2731 4750 3128 4425 
Q 3525 4100 3525 3541 
Q 3525 3141 3298 2862 
Q 3072 2584 2669 2484 
Q 3125 2378 3379 2068 
Q 3634 1759 3634 1313 
Q 3634 634 3220 271 
Q 2806 -91 2034 -91 
Q 1263 -91 848 271 
Q 434 634 434 1313 
Q 434 1759 690 2068 
Q 947 2378 1403 2484 
z
M 1172 3481 
Q 1172 3119 1398 2916 
Q 1625 2713 2034 2713 
Q 2441 2713 2670 2916 
Q 2900 3119 2900 3481 
Q 2900 3844 2670 4047 
Q 2441 4250 2034 4250 
Q 1625 4250 1398 4047 
Q 1172 3844 1172 3481 
z
" id="DejaVuSans-38" transform="scale(0.015625)"/>
       </defs>
       <use xlink:href="#DejaVuSans-38"/>
       <use x="63.623047" xlink:href="#DejaVuSans-30"/>
       <use x="127.246094" xlink:href="#DejaVuSans-30"/>
      </g>
     </g>
    </g>
    <g id="ytick_5">
     <g id="line2d_14">
      <g>
       <use style="stroke:#000000;stroke-width:0.8;" x="126" xlink:href="#m828ad1a2c7" y="67.120661"/>
      </g>
     </g>
     <g id="text_14">
      <!-- 1000 -->
      <g transform="translate(93.55 70.91988)scale(0.1 -0.1)">
       <use xlink:href="#DejaVuSans-31"/>
       <use x="63.623047" xlink:href="#DejaVuSans-30"/>
       <use x="127.246094" xlink:href="#DejaVuSans-30"/>
       <use x="190.869141" xlink:href="#DejaVuSans-30"/>
      </g>
     </g>
    </g>
   </g>
   <g id="line2d_15">
    <path clip-path="url(#p042bdbd094)" d="M 140.442688 247.333757 
L 154.885375 248.066584 
L 169.328063 248.769293 
L 183.770751 249.443228 
L 198.213439 250.089669 
L 212.656126 250.709836 
L 227.098814 251.304891 
L 241.541502 251.875939 
L 255.98419 252.424035 
L 270.426877 252.950184 
L 284.869565 253.455344 
L 299.312253 253.940428 
L 313.754941 254.406305 
L 328.197628 254.853807 
L 342.640316 255.283724 
L 357.083004 255.696811 
L 371.525692 256.093789 
L 385.968379 256.475345 
L 400.411067 256.842134 
L 414.853755 257.194781 
L 429.296443 257.533884 
" style="fill:none;stroke:#1f77b4;stroke-linecap:square;stroke-width:1.5;"/>
   </g>
   <g id="line2d_16">
    <path clip-path="url(#p042bdbd094)" d="M 140.442688 227.310079 
L 154.885375 228.898165 
L 169.328063 230.416638 
L 183.770751 231.868787 
L 198.213439 233.257735 
L 212.656126 234.586447 
L 227.098814 235.85774 
L 241.541502 237.074294 
L 255.98419 238.238653 
L 270.426877 239.353236 
L 284.869565 240.420343 
L 299.312253 241.442159 
L 313.754941 242.420765 
L 328.197628 243.358137 
L 342.640316 244.256157 
L 357.083004 245.116614 
L 371.525692 245.94121 
L 385.968379 246.731567 
L 400.411067 247.489225 
L 414.853755 248.215654 
L 429.296443 248.91225 
" style="fill:none;stroke:#ff7f0e;stroke-linecap:square;stroke-width:1.5;"/>
   </g>
   <g id="line2d_17">
    <path clip-path="url(#p042bdbd094)" d="M 140.442688 167.239047 
L 154.885375 171.583437 
L 169.328063 175.722647 
L 183.770751 179.667027 
L 198.213439 183.426375 
L 212.656126 187.009967 
L 227.098814 190.426589 
L 241.541502 193.684563 
L 255.98419 196.791771 
L 270.426877 199.755682 
L 284.869565 202.583372 
L 299.312253 205.281549 
L 313.754941 207.85657 
L 328.197628 210.314462 
L 342.640316 212.66094 
L 357.083004 214.901423 
L 371.525692 217.041051 
L 385.968379 219.084699 
L 400.411067 221.036993 
L 414.853755 222.902322 
L 429.296443 224.684852 
" style="fill:none;stroke:#2ca02c;stroke-linecap:square;stroke-width:1.5;"/>
   </g>
   <g id="line2d_18">
    <path clip-path="url(#p042bdbd094)" d="M 140.442688 67.120661 
L 154.885375 76.337709 
L 169.328063 85.097099 
L 183.770751 93.422967 
L 198.213439 101.338112 
L 212.656126 108.86407 
L 227.098814 116.021189 
L 241.541502 122.828694 
L 255.98419 129.304759 
L 270.426877 135.466559 
L 284.869565 141.330333 
L 299.312253 146.911435 
L 313.754941 152.224385 
L 328.197628 157.282916 
L 342.640316 162.100021 
L 357.083004 166.68799 
L 371.525692 171.058454 
L 385.968379 175.222421 
L 400.411067 179.190311 
L 414.853755 182.971988 
L 429.296443 186.576792 
" style="fill:none;stroke:#d62728;stroke-linecap:square;stroke-width:1.5;"/>
   </g>
   <g id="patch_3">
    <path d="M 126 267.054545 
L 126 57.6 
" style="fill:none;stroke:#000000;stroke-linecap:square;stroke-linejoin:miter;stroke-width:0.8;"/>
   </g>
   <g id="patch_4">
    <path d="M 443.73913 267.054545 
L 443.73913 57.6 
" style="fill:none;stroke:#000000;stroke-linecap:square;stroke-linejoin:miter;stroke-width:0.8;"/>
   </g>
   <g id="patch_5">
    <path d="M 126 267.054545 
L 443.73913 267.054545 
" style="fill:none;stroke:#000000;stroke-linecap:square;stroke-linejoin:miter;stroke-width:0.8;"/>
   </g>
   <g id="patch_6">
    <path d="M 126 57.6 
L 443.73913 57.6 
" style="fill:none;stroke:#000000;stroke-linecap:square;stroke-linejoin:miter;stroke-width:0.8;"/>
   </g>
   <g id="text_15">
    <!-- Station 1 -->
    <g transform="translate(259.068815 51.6)scale(0.144 -0.144)">
     <defs>
      <path d="M 2934 4334 
L 2934 2869 
L 2819 2869 
Q 2763 3291 2617 3541 
Q 2472 3791 2203 3937 
Q 1934 4084 1647 4084 
Q 1322 4084 1109 3886 
Q 897 3688 897 3434 
Q 897 3241 1031 3081 
Q 1225 2847 1953 2456 
Q 2547 2138 2764 1967 
Q 2981 1797 3098 1565 
Q 3216 1334 3216 1081 
Q 3216 600 2842 251 
Q 2469 -97 1881 -97 
Q 1697 -97 1534 -69 
Q 1438 -53 1133 45 
Q 828 144 747 144 
Q 669 144 623 97 
Q 578 50 556 -97 
L 441 -97 
L 441 1356 
L 556 1356 
Q 638 900 775 673 
Q 913 447 1195 297 
Q 1478 147 1816 147 
Q 2206 147 2432 353 
Q 2659 559 2659 841 
Q 2659 997 2573 1156 
Q 2488 1316 2306 1453 
Q 2184 1547 1640 1851 
Q 1097 2156 867 2337 
Q 638 2519 519 2737 
Q 400 2956 400 3219 
Q 400 3675 750 4004 
Q 1100 4334 1641 4334 
Q 1978 4334 2356 4169 
Q 2531 4091 2603 4091 
Q 2684 4091 2736 4139 
Q 2788 4188 2819 4334 
L 2934 4334 
z
" id="TimesNewRomanPSMT-53" transform="scale(0.015625)"/>
      <path d="M 1031 3803 
L 1031 2863 
L 1700 2863 
L 1700 2644 
L 1031 2644 
L 1031 788 
Q 1031 509 1111 412 
Q 1191 316 1316 316 
Q 1419 316 1516 380 
Q 1613 444 1666 569 
L 1788 569 
Q 1678 263 1478 108 
Q 1278 -47 1066 -47 
Q 922 -47 784 33 
Q 647 113 581 261 
Q 516 409 516 719 
L 516 2644 
L 63 2644 
L 63 2747 
Q 234 2816 414 2980 
Q 594 3144 734 3369 
Q 806 3488 934 3803 
L 1031 3803 
z
" id="TimesNewRomanPSMT-74" transform="scale(0.015625)"/>
      <path d="M 1822 413 
Q 1381 72 1269 19 
Q 1100 -59 909 -59 
Q 613 -59 420 144 
Q 228 347 228 678 
Q 228 888 322 1041 
Q 450 1253 767 1440 
Q 1084 1628 1822 1897 
L 1822 2009 
Q 1822 2438 1686 2597 
Q 1550 2756 1291 2756 
Q 1094 2756 978 2650 
Q 859 2544 859 2406 
L 866 2225 
Q 866 2081 792 2003 
Q 719 1925 600 1925 
Q 484 1925 411 2006 
Q 338 2088 338 2228 
Q 338 2497 613 2722 
Q 888 2947 1384 2947 
Q 1766 2947 2009 2819 
Q 2194 2722 2281 2516 
Q 2338 2381 2338 1966 
L 2338 994 
Q 2338 584 2353 492 
Q 2369 400 2405 369 
Q 2441 338 2488 338 
Q 2538 338 2575 359 
Q 2641 400 2828 588 
L 2828 413 
Q 2478 -56 2159 -56 
Q 2006 -56 1915 50 
Q 1825 156 1822 413 
z
M 1822 616 
L 1822 1706 
Q 1350 1519 1213 1441 
Q 966 1303 859 1153 
Q 753 1003 753 825 
Q 753 600 887 451 
Q 1022 303 1197 303 
Q 1434 303 1822 616 
z
" id="TimesNewRomanPSMT-61" transform="scale(0.015625)"/>
      <path d="M 928 4444 
Q 1059 4444 1151 4351 
Q 1244 4259 1244 4128 
Q 1244 3997 1151 3903 
Q 1059 3809 928 3809 
Q 797 3809 703 3903 
Q 609 3997 609 4128 
Q 609 4259 701 4351 
Q 794 4444 928 4444 
z
M 1188 2947 
L 1188 647 
Q 1188 378 1227 289 
Q 1266 200 1342 156 
Q 1419 113 1622 113 
L 1622 0 
L 231 0 
L 231 113 
Q 441 113 512 153 
Q 584 194 626 287 
Q 669 381 669 647 
L 669 1750 
Q 669 2216 641 2353 
Q 619 2453 572 2492 
Q 525 2531 444 2531 
Q 356 2531 231 2484 
L 188 2597 
L 1050 2947 
L 1188 2947 
z
" id="TimesNewRomanPSMT-69" transform="scale(0.015625)"/>
      <path d="M 1600 2947 
Q 2250 2947 2644 2453 
Q 2978 2031 2978 1484 
Q 2978 1100 2793 706 
Q 2609 313 2286 112 
Q 1963 -88 1566 -88 
Q 919 -88 538 428 
Q 216 863 216 1403 
Q 216 1797 411 2186 
Q 606 2575 925 2761 
Q 1244 2947 1600 2947 
z
M 1503 2744 
Q 1338 2744 1170 2645 
Q 1003 2547 900 2300 
Q 797 2053 797 1666 
Q 797 1041 1045 587 
Q 1294 134 1700 134 
Q 2003 134 2200 384 
Q 2397 634 2397 1244 
Q 2397 2006 2069 2444 
Q 1847 2744 1503 2744 
z
" id="TimesNewRomanPSMT-6f" transform="scale(0.015625)"/>
      <path d="M 1034 2341 
Q 1538 2947 1994 2947 
Q 2228 2947 2397 2830 
Q 2566 2713 2666 2444 
Q 2734 2256 2734 1869 
L 2734 647 
Q 2734 375 2778 278 
Q 2813 200 2889 156 
Q 2966 113 3172 113 
L 3172 0 
L 1756 0 
L 1756 113 
L 1816 113 
Q 2016 113 2095 173 
Q 2175 234 2206 353 
Q 2219 400 2219 647 
L 2219 1819 
Q 2219 2209 2117 2386 
Q 2016 2563 1775 2563 
Q 1403 2563 1034 2156 
L 1034 647 
Q 1034 356 1069 288 
Q 1113 197 1189 155 
Q 1266 113 1500 113 
L 1500 0 
L 84 0 
L 84 113 
L 147 113 
Q 366 113 442 223 
Q 519 334 519 647 
L 519 1709 
Q 519 2225 495 2337 
Q 472 2450 423 2490 
Q 375 2531 294 2531 
Q 206 2531 84 2484 
L 38 2597 
L 900 2947 
L 1034 2947 
L 1034 2341 
z
" id="TimesNewRomanPSMT-6e" transform="scale(0.015625)"/>
      <path id="TimesNewRomanPSMT-20" transform="scale(0.015625)"/>
      <path d="M 750 3822 
L 1781 4325 
L 1884 4325 
L 1884 747 
Q 1884 391 1914 303 
Q 1944 216 2037 169 
Q 2131 122 2419 116 
L 2419 0 
L 825 0 
L 825 116 
Q 1125 122 1212 167 
Q 1300 213 1334 289 
Q 1369 366 1369 747 
L 1369 3034 
Q 1369 3497 1338 3628 
Q 1316 3728 1258 3775 
Q 1200 3822 1119 3822 
Q 1003 3822 797 3725 
L 750 3822 
z
" id="TimesNewRomanPSMT-31" transform="scale(0.015625)"/>
     </defs>
     <use xlink:href="#TimesNewRomanPSMT-53"/>
     <use x="55.615234" xlink:href="#TimesNewRomanPSMT-74"/>
     <use x="83.398438" xlink:href="#TimesNewRomanPSMT-61"/>
     <use x="127.783203" xlink:href="#TimesNewRomanPSMT-74"/>
     <use x="155.566406" xlink:href="#TimesNewRomanPSMT-69"/>
     <use x="183.349609" xlink:href="#TimesNewRomanPSMT-6f"/>
     <use x="233.349609" xlink:href="#TimesNewRomanPSMT-6e"/>
     <use x="283.349609" xlink:href="#TimesNewRomanPSMT-20"/>
     <use x="308.349609" xlink:href="#TimesNewRomanPSMT-31"/>
    </g>
   </g>
  </g>
  <g id="axes_2">
   <g id="patch_7">
    <path d="M 539.06087 267.054545 
L 856.8 267.054545 
L 856.8 57.6 
L 539.06087 57.6 
z
" style="fill:#ffffff;"/>
   </g>
   <g id="matplotlib.axis_3">
    <g id="xtick_10">
     <g id="line2d_19">
      <g>
       <use style="stroke:#000000;stroke-width:0.8;" x="553.503557" xlink:href="#m6c32262299" y="267.054545"/>
      </g>
     </g>
     <g id="text_16">
      <!-- 0.0 -->
      <g transform="translate(545.551995 281.652983)scale(0.1 -0.1)">
       <use xlink:href="#DejaVuSans-30"/>
       <use x="63.623047" xlink:href="#DejaVuSans-2e"/>
       <use x="95.410156" xlink:href="#DejaVuSans-30"/>
      </g>
     </g>
    </g>
    <g id="xtick_11">
     <g id="line2d_20">
      <g>
       <use style="stroke:#000000;stroke-width:0.8;" x="589.610277" xlink:href="#m6c32262299" y="267.054545"/>
      </g>
     </g>
     <g id="text_17">
      <!-- 2.5 -->
      <g transform="translate(581.658714 281.652983)scale(0.1 -0.1)">
       <use xlink:href="#DejaVuSans-32"/>
       <use x="63.623047" xlink:href="#DejaVuSans-2e"/>
       <use x="95.410156" xlink:href="#DejaVuSans-35"/>
      </g>
     </g>
    </g>
    <g id="xtick_12">
     <g id="line2d_21">
      <g>
       <use style="stroke:#000000;stroke-width:0.8;" x="625.716996" xlink:href="#m6c32262299" y="267.054545"/>
      </g>
     </g>
     <g id="text_18">
      <!-- 5.0 -->
      <g transform="translate(617.765434 281.652983)scale(0.1 -0.1)">
       <use xlink:href="#DejaVuSans-35"/>
       <use x="63.623047" xlink:href="#DejaVuSans-2e"/>
       <use x="95.410156" xlink:href="#DejaVuSans-30"/>
      </g>
     </g>
    </g>
    <g id="xtick_13">
     <g id="line2d_22">
      <g>
       <use style="stroke:#000000;stroke-width:0.8;" x="661.823715" xlink:href="#m6c32262299" y="267.054545"/>
      </g>
     </g>
     <g id="text_19">
      <!-- 7.5 -->
      <g transform="translate(653.872153 281.652983)scale(0.1 -0.1)">
       <use xlink:href="#DejaVuSans-37"/>
       <use x="63.623047" xlink:href="#DejaVuSans-2e"/>
       <use x="95.410156" xlink:href="#DejaVuSans-35"/>
      </g>
     </g>
    </g>
    <g id="xtick_14">
     <g id="line2d_23">
      <g>
       <use style="stroke:#000000;stroke-width:0.8;" x="697.930435" xlink:href="#m6c32262299" y="267.054545"/>
      </g>
     </g>
     <g id="text_20">
      <!-- 10.0 -->
      <g transform="translate(686.797622 281.652983)scale(0.1 -0.1)">
       <use xlink:href="#DejaVuSans-31"/>
       <use x="63.623047" xlink:href="#DejaVuSans-30"/>
       <use x="127.246094" xlink:href="#DejaVuSans-2e"/>
       <use x="159.033203" xlink:href="#DejaVuSans-30"/>
      </g>
     </g>
    </g>
    <g id="xtick_15">
     <g id="line2d_24">
      <g>
       <use style="stroke:#000000;stroke-width:0.8;" x="734.037154" xlink:href="#m6c32262299" y="267.054545"/>
      </g>
     </g>
     <g id="text_21">
      <!-- 12.5 -->
      <g transform="translate(722.904342 281.652983)scale(0.1 -0.1)">
       <use xlink:href="#DejaVuSans-31"/>
       <use x="63.623047" xlink:href="#DejaVuSans-32"/>
       <use x="127.246094" xlink:href="#DejaVuSans-2e"/>
       <use x="159.033203" xlink:href="#DejaVuSans-35"/>
      </g>
     </g>
    </g>
    <g id="xtick_16">
     <g id="line2d_25">
      <g>
       <use style="stroke:#000000;stroke-width:0.8;" x="770.143874" xlink:href="#m6c32262299" y="267.054545"/>
      </g>
     </g>
     <g id="text_22">
      <!-- 15.0 -->
      <g transform="translate(759.011061 281.652983)scale(0.1 -0.1)">
       <use xlink:href="#DejaVuSans-31"/>
       <use x="63.623047" xlink:href="#DejaVuSans-35"/>
       <use x="127.246094" xlink:href="#DejaVuSans-2e"/>
       <use x="159.033203" xlink:href="#DejaVuSans-30"/>
      </g>
     </g>
    </g>
    <g id="xtick_17">
     <g id="line2d_26">
      <g>
       <use style="stroke:#000000;stroke-width:0.8;" x="806.250593" xlink:href="#m6c32262299" y="267.054545"/>
      </g>
     </g>
     <g id="text_23">
      <!-- 17.5 -->
      <g transform="translate(795.11778 281.652983)scale(0.1 -0.1)">
       <use xlink:href="#DejaVuSans-31"/>
       <use x="63.623047" xlink:href="#DejaVuSans-37"/>
       <use x="127.246094" xlink:href="#DejaVuSans-2e"/>
       <use x="159.033203" xlink:href="#DejaVuSans-35"/>
      </g>
     </g>
    </g>
    <g id="xtick_18">
     <g id="line2d_27">
      <g>
       <use style="stroke:#000000;stroke-width:0.8;" x="842.357312" xlink:href="#m6c32262299" y="267.054545"/>
      </g>
     </g>
     <g id="text_24">
      <!-- 20.0 -->
      <g transform="translate(831.2245 281.652983)scale(0.1 -0.1)">
       <use xlink:href="#DejaVuSans-32"/>
       <use x="63.623047" xlink:href="#DejaVuSans-30"/>
       <use x="127.246094" xlink:href="#DejaVuSans-2e"/>
       <use x="159.033203" xlink:href="#DejaVuSans-30"/>
      </g>
     </g>
    </g>
   </g>
   <g id="matplotlib.axis_4">
    <g id="ytick_6">
     <g id="line2d_28">
      <g>
       <use style="stroke:#000000;stroke-width:0.8;" x="539.06087" xlink:href="#m828ad1a2c7" y="266.357076"/>
      </g>
     </g>
     <g id="text_25">
      <!-- 0 -->
      <g transform="translate(525.69837 270.156295)scale(0.1 -0.1)">
       <use xlink:href="#DejaVuSans-30"/>
      </g>
     </g>
    </g>
    <g id="ytick_7">
     <g id="line2d_29">
      <g>
       <use style="stroke:#000000;stroke-width:0.8;" x="539.06087" xlink:href="#m828ad1a2c7" y="226.509793"/>
      </g>
     </g>
     <g id="text_26">
      <!-- 200 -->
      <g transform="translate(512.97337 230.309012)scale(0.1 -0.1)">
       <use xlink:href="#DejaVuSans-32"/>
       <use x="63.623047" xlink:href="#DejaVuSans-30"/>
       <use x="127.246094" xlink:href="#DejaVuSans-30"/>
      </g>
     </g>
    </g>
    <g id="ytick_8">
     <g id="line2d_30">
      <g>
       <use style="stroke:#000000;stroke-width:0.8;" x="539.06087" xlink:href="#m828ad1a2c7" y="186.66251"/>
      </g>
     </g>
     <g id="text_27">
      <!-- 400 -->
      <g transform="translate(512.97337 190.461729)scale(0.1 -0.1)">
       <use xlink:href="#DejaVuSans-34"/>
       <use x="63.623047" xlink:href="#DejaVuSans-30"/>
       <use x="127.246094" xlink:href="#DejaVuSans-30"/>
      </g>
     </g>
    </g>
    <g id="ytick_9">
     <g id="line2d_31">
      <g>
       <use style="stroke:#000000;stroke-width:0.8;" x="539.06087" xlink:href="#m828ad1a2c7" y="146.815227"/>
      </g>
     </g>
     <g id="text_28">
      <!-- 600 -->
      <g transform="translate(512.97337 150.614446)scale(0.1 -0.1)">
       <use xlink:href="#DejaVuSans-36"/>
       <use x="63.623047" xlink:href="#DejaVuSans-30"/>
       <use x="127.246094" xlink:href="#DejaVuSans-30"/>
      </g>
     </g>
    </g>
    <g id="ytick_10">
     <g id="line2d_32">
      <g>
       <use style="stroke:#000000;stroke-width:0.8;" x="539.06087" xlink:href="#m828ad1a2c7" y="106.967944"/>
      </g>
     </g>
     <g id="text_29">
      <!-- 800 -->
      <g transform="translate(512.97337 110.767163)scale(0.1 -0.1)">
       <use xlink:href="#DejaVuSans-38"/>
       <use x="63.623047" xlink:href="#DejaVuSans-30"/>
       <use x="127.246094" xlink:href="#DejaVuSans-30"/>
      </g>
     </g>
    </g>
    <g id="ytick_11">
     <g id="line2d_33">
      <g>
       <use style="stroke:#000000;stroke-width:0.8;" x="539.06087" xlink:href="#m828ad1a2c7" y="67.120661"/>
      </g>
     </g>
     <g id="text_30">
      <!-- 1000 -->
      <g transform="translate(506.61087 70.91988)scale(0.1 -0.1)">
       <use xlink:href="#DejaVuSans-31"/>
       <use x="63.623047" xlink:href="#DejaVuSans-30"/>
       <use x="127.246094" xlink:href="#DejaVuSans-30"/>
       <use x="190.869141" xlink:href="#DejaVuSans-30"/>
      </g>
     </g>
    </g>
   </g>
   <g id="line2d_34">
    <path clip-path="url(#p46f4aeef3b)" d="M 553.503557 246.433435 
L 567.946245 247.27109 
L 582.388933 248.069218 
L 596.831621 248.829844 
L 611.274308 249.554882 
L 625.716996 250.246141 
L 640.159684 250.905334 
L 654.602372 251.534077 
L 669.045059 252.133904 
L 683.487747 252.706261 
L 697.930435 253.252521 
L 712.373123 253.77398 
L 726.81581 254.271868 
L 741.258498 254.747348 
L 755.701186 255.201521 
L 770.143874 255.63543 
L 784.586561 256.050066 
L 799.029249 256.446364 
L 813.471937 256.825212 
L 827.914625 257.187453 
L 842.357312 257.533884 
" style="fill:none;stroke:#1f77b4;stroke-linecap:square;stroke-width:1.5;"/>
   </g>
   <g id="line2d_35">
    <path clip-path="url(#p46f4aeef3b)" d="M 553.503557 226.509793 
L 567.946245 228.324658 
L 582.388933 230.048202 
L 596.831621 231.685374 
L 611.274308 233.240838 
L 625.716996 234.718989 
L 640.159684 236.123972 
L 654.602372 237.459696 
L 669.045059 238.729845 
L 683.487747 239.937898 
L 697.930435 241.087135 
L 712.373123 242.180652 
L 726.81581 243.221373 
L 741.258498 244.212056 
L 755.701186 245.155308 
L 770.143874 246.053588 
L 784.586561 246.909221 
L 799.029249 247.724404 
L 813.471937 248.501213 
L 827.914625 249.241608 
L 842.357312 249.947445 
" style="fill:none;stroke:#ff7f0e;stroke-linecap:square;stroke-width:1.5;"/>
   </g>
   <g id="line2d_36">
    <path clip-path="url(#p46f4aeef3b)" d="M 553.503557 166.738869 
L 567.946245 171.702315 
L 582.388933 176.396732 
L 596.831621 180.837687 
L 611.274308 185.039795 
L 625.716996 189.016783 
L 640.159684 192.781542 
L 654.602372 196.346183 
L 669.045059 199.722088 
L 683.487747 202.919953 
L 697.930435 205.949834 
L 712.373123 208.821184 
L 726.81581 211.542894 
L 741.258498 214.123328 
L 755.701186 216.570352 
L 770.143874 218.89137 
L 784.586561 221.093351 
L 799.029249 223.182853 
L 813.471937 225.166053 
L 827.914625 227.048767 
L 842.357312 228.836472 
" style="fill:none;stroke:#2ca02c;stroke-linecap:square;stroke-width:1.5;"/>
   </g>
   <g id="line2d_37">
    <path clip-path="url(#p46f4aeef3b)" d="M 553.503557 67.120661 
L 567.946245 77.649089 
L 582.388933 87.577658 
L 596.831621 96.942655 
L 611.274308 105.778059 
L 625.716996 114.115694 
L 640.159684 121.985369 
L 654.602372 129.415017 
L 669.045059 136.430812 
L 683.487747 143.05729 
L 697.930435 149.317455 
L 712.373123 155.232876 
L 726.81581 160.823785 
L 741.258498 166.109161 
L 755.701186 171.106812 
L 770.143874 175.833452 
L 784.586561 180.304767 
L 799.029249 184.535488 
L 813.471937 188.539446 
L 827.914625 192.329633 
L 842.357312 195.918254 
" style="fill:none;stroke:#d62728;stroke-linecap:square;stroke-width:1.5;"/>
   </g>
   <g id="patch_8">
    <path d="M 539.06087 267.054545 
L 539.06087 57.6 
" style="fill:none;stroke:#000000;stroke-linecap:square;stroke-linejoin:miter;stroke-width:0.8;"/>
   </g>
   <g id="patch_9">
    <path d="M 856.8 267.054545 
L 856.8 57.6 
" style="fill:none;stroke:#000000;stroke-linecap:square;stroke-linejoin:miter;stroke-width:0.8;"/>
   </g>
   <g id="patch_10">
    <path d="M 539.06087 267.054545 
L 856.8 267.054545 
" style="fill:none;stroke:#000000;stroke-linecap:square;stroke-linejoin:miter;stroke-width:0.8;"/>
   </g>
   <g id="patch_11">
    <path d="M 539.06087 57.6 
L 856.8 57.6 
" style="fill:none;stroke:#000000;stroke-linecap:square;stroke-linejoin:miter;stroke-width:0.8;"/>
   </g>
   <g id="text_31">
    <!-- Station 2 -->
    <g transform="translate(672.129685 51.6)scale(0.144 -0.144)">
     <defs>
      <path d="M 2934 816 
L 2638 0 
L 138 0 
L 138 116 
Q 1241 1122 1691 1759 
Q 2141 2397 2141 2925 
Q 2141 3328 1894 3587 
Q 1647 3847 1303 3847 
Q 991 3847 742 3664 
Q 494 3481 375 3128 
L 259 3128 
Q 338 3706 661 4015 
Q 984 4325 1469 4325 
Q 1984 4325 2329 3994 
Q 2675 3663 2675 3213 
Q 2675 2891 2525 2569 
Q 2294 2063 1775 1497 
Q 997 647 803 472 
L 1909 472 
Q 2247 472 2383 497 
Q 2519 522 2628 598 
Q 2738 675 2819 816 
L 2934 816 
z
" id="TimesNewRomanPSMT-32" transform="scale(0.015625)"/>
     </defs>
     <use xlink:href="#TimesNewRomanPSMT-53"/>
     <use x="55.615234" xlink:href="#TimesNewRomanPSMT-74"/>
     <use x="83.398438" xlink:href="#TimesNewRomanPSMT-61"/>
     <use x="127.783203" xlink:href="#TimesNewRomanPSMT-74"/>
     <use x="155.566406" xlink:href="#TimesNewRomanPSMT-69"/>
     <use x="183.349609" xlink:href="#TimesNewRomanPSMT-6f"/>
     <use x="233.349609" xlink:href="#TimesNewRomanPSMT-6e"/>
     <use x="283.349609" xlink:href="#TimesNewRomanPSMT-20"/>
     <use x="308.349609" xlink:href="#TimesNewRomanPSMT-32"/>
    </g>
   </g>
  </g>
  <g id="axes_3">
   <g id="patch_12">
    <path d="M 126 518.4 
L 443.73913 518.4 
L 443.73913 308.945455 
L 126 308.945455 
z
" style="fill:#ffffff;"/>
   </g>
   <g id="matplotlib.axis_5">
    <g id="xtick_19">
     <g id="line2d_38">
      <g>
       <use style="stroke:#000000;stroke-width:0.8;" x="140.442688" xlink:href="#m6c32262299" y="518.4"/>
      </g>
     </g>
     <g id="text_32">
      <!-- 0.0 -->
      <g transform="translate(132.491125 532.998438)scale(0.1 -0.1)">
       <use xlink:href="#DejaVuSans-30"/>
       <use x="63.623047" xlink:href="#DejaVuSans-2e"/>
       <use x="95.410156" xlink:href="#DejaVuSans-30"/>
      </g>
     </g>
    </g>
    <g id="xtick_20">
     <g id="line2d_39">
      <g>
       <use style="stroke:#000000;stroke-width:0.8;" x="176.549407" xlink:href="#m6c32262299" y="518.4"/>
      </g>
     </g>
     <g id="text_33">
      <!-- 2.5 -->
      <g transform="translate(168.597845 532.998438)scale(0.1 -0.1)">
       <use xlink:href="#DejaVuSans-32"/>
       <use x="63.623047" xlink:href="#DejaVuSans-2e"/>
       <use x="95.410156" xlink:href="#DejaVuSans-35"/>
      </g>
     </g>
    </g>
    <g id="xtick_21">
     <g id="line2d_40">
      <g>
       <use style="stroke:#000000;stroke-width:0.8;" x="212.656126" xlink:href="#m6c32262299" y="518.4"/>
      </g>
     </g>
     <g id="text_34">
      <!-- 5.0 -->
      <g transform="translate(204.704564 532.998438)scale(0.1 -0.1)">
       <use xlink:href="#DejaVuSans-35"/>
       <use x="63.623047" xlink:href="#DejaVuSans-2e"/>
       <use x="95.410156" xlink:href="#DejaVuSans-30"/>
      </g>
     </g>
    </g>
    <g id="xtick_22">
     <g id="line2d_41">
      <g>
       <use style="stroke:#000000;stroke-width:0.8;" x="248.762846" xlink:href="#m6c32262299" y="518.4"/>
      </g>
     </g>
     <g id="text_35">
      <!-- 7.5 -->
      <g transform="translate(240.811283 532.998438)scale(0.1 -0.1)">
       <use xlink:href="#DejaVuSans-37"/>
       <use x="63.623047" xlink:href="#DejaVuSans-2e"/>
       <use x="95.410156" xlink:href="#DejaVuSans-35"/>
      </g>
     </g>
    </g>
    <g id="xtick_23">
     <g id="line2d_42">
      <g>
       <use style="stroke:#000000;stroke-width:0.8;" x="284.869565" xlink:href="#m6c32262299" y="518.4"/>
      </g>
     </g>
     <g id="text_36">
      <!-- 10.0 -->
      <g transform="translate(273.736753 532.998438)scale(0.1 -0.1)">
       <use xlink:href="#DejaVuSans-31"/>
       <use x="63.623047" xlink:href="#DejaVuSans-30"/>
       <use x="127.246094" xlink:href="#DejaVuSans-2e"/>
       <use x="159.033203" xlink:href="#DejaVuSans-30"/>
      </g>
     </g>
    </g>
    <g id="xtick_24">
     <g id="line2d_43">
      <g>
       <use style="stroke:#000000;stroke-width:0.8;" x="320.976285" xlink:href="#m6c32262299" y="518.4"/>
      </g>
     </g>
     <g id="text_37">
      <!-- 12.5 -->
      <g transform="translate(309.843472 532.998438)scale(0.1 -0.1)">
       <use xlink:href="#DejaVuSans-31"/>
       <use x="63.623047" xlink:href="#DejaVuSans-32"/>
       <use x="127.246094" xlink:href="#DejaVuSans-2e"/>
       <use x="159.033203" xlink:href="#DejaVuSans-35"/>
      </g>
     </g>
    </g>
    <g id="xtick_25">
     <g id="line2d_44">
      <g>
       <use style="stroke:#000000;stroke-width:0.8;" x="357.083004" xlink:href="#m6c32262299" y="518.4"/>
      </g>
     </g>
     <g id="text_38">
      <!-- 15.0 -->
      <g transform="translate(345.950191 532.998438)scale(0.1 -0.1)">
       <use xlink:href="#DejaVuSans-31"/>
       <use x="63.623047" xlink:href="#DejaVuSans-35"/>
       <use x="127.246094" xlink:href="#DejaVuSans-2e"/>
       <use x="159.033203" xlink:href="#DejaVuSans-30"/>
      </g>
     </g>
    </g>
    <g id="xtick_26">
     <g id="line2d_45">
      <g>
       <use style="stroke:#000000;stroke-width:0.8;" x="393.189723" xlink:href="#m6c32262299" y="518.4"/>
      </g>
     </g>
     <g id="text_39">
      <!-- 17.5 -->
      <g transform="translate(382.056911 532.998438)scale(0.1 -0.1)">
       <use xlink:href="#DejaVuSans-31"/>
       <use x="63.623047" xlink:href="#DejaVuSans-37"/>
       <use x="127.246094" xlink:href="#DejaVuSans-2e"/>
       <use x="159.033203" xlink:href="#DejaVuSans-35"/>
      </g>
     </g>
    </g>
    <g id="xtick_27">
     <g id="line2d_46">
      <g>
       <use style="stroke:#000000;stroke-width:0.8;" x="429.296443" xlink:href="#m6c32262299" y="518.4"/>
      </g>
     </g>
     <g id="text_40">
      <!-- 20.0 -->
      <g transform="translate(418.16363 532.998438)scale(0.1 -0.1)">
       <use xlink:href="#DejaVuSans-32"/>
       <use x="63.623047" xlink:href="#DejaVuSans-30"/>
       <use x="127.246094" xlink:href="#DejaVuSans-2e"/>
       <use x="159.033203" xlink:href="#DejaVuSans-30"/>
      </g>
     </g>
    </g>
   </g>
   <g id="matplotlib.axis_6">
    <g id="ytick_12">
     <g id="line2d_47">
      <g>
       <use style="stroke:#000000;stroke-width:0.8;" x="126" xlink:href="#m828ad1a2c7" y="479.943839"/>
      </g>
     </g>
     <g id="text_41">
      <!-- 200 -->
      <g transform="translate(99.9125 483.743058)scale(0.1 -0.1)">
       <use xlink:href="#DejaVuSans-32"/>
       <use x="63.623047" xlink:href="#DejaVuSans-30"/>
       <use x="127.246094" xlink:href="#DejaVuSans-30"/>
      </g>
     </g>
    </g>
    <g id="ytick_13">
     <g id="line2d_48">
      <g>
       <use style="stroke:#000000;stroke-width:0.8;" x="126" xlink:href="#m828ad1a2c7" y="439.574408"/>
      </g>
     </g>
     <g id="text_42">
      <!-- 400 -->
      <g transform="translate(99.9125 443.373627)scale(0.1 -0.1)">
       <use xlink:href="#DejaVuSans-34"/>
       <use x="63.623047" xlink:href="#DejaVuSans-30"/>
       <use x="127.246094" xlink:href="#DejaVuSans-30"/>
      </g>
     </g>
    </g>
    <g id="ytick_14">
     <g id="line2d_49">
      <g>
       <use style="stroke:#000000;stroke-width:0.8;" x="126" xlink:href="#m828ad1a2c7" y="399.204977"/>
      </g>
     </g>
     <g id="text_43">
      <!-- 600 -->
      <g transform="translate(99.9125 403.004196)scale(0.1 -0.1)">
       <use xlink:href="#DejaVuSans-36"/>
       <use x="63.623047" xlink:href="#DejaVuSans-30"/>
       <use x="127.246094" xlink:href="#DejaVuSans-30"/>
      </g>
     </g>
    </g>
    <g id="ytick_15">
     <g id="line2d_50">
      <g>
       <use style="stroke:#000000;stroke-width:0.8;" x="126" xlink:href="#m828ad1a2c7" y="358.835547"/>
      </g>
     </g>
     <g id="text_44">
      <!-- 800 -->
      <g transform="translate(99.9125 362.634765)scale(0.1 -0.1)">
       <use xlink:href="#DejaVuSans-38"/>
       <use x="63.623047" xlink:href="#DejaVuSans-30"/>
       <use x="127.246094" xlink:href="#DejaVuSans-30"/>
      </g>
     </g>
    </g>
    <g id="ytick_16">
     <g id="line2d_51">
      <g>
       <use style="stroke:#000000;stroke-width:0.8;" x="126" xlink:href="#m828ad1a2c7" y="318.466116"/>
      </g>
     </g>
     <g id="text_45">
      <!-- 1000 -->
      <g transform="translate(93.55 322.265334)scale(0.1 -0.1)">
       <use xlink:href="#DejaVuSans-31"/>
       <use x="63.623047" xlink:href="#DejaVuSans-30"/>
       <use x="127.246094" xlink:href="#DejaVuSans-30"/>
       <use x="190.869141" xlink:href="#DejaVuSans-30"/>
      </g>
     </g>
    </g>
   </g>
   <g id="line2d_52">
    <path clip-path="url(#pf37c21c9b9)" d="M 140.442688 500.128555 
L 154.885375 500.714623 
L 169.328063 501.281568 
L 183.770751 501.830067 
L 198.213439 502.360772 
L 212.656126 502.874312 
L 227.098814 503.37129 
L 241.541502 503.852288 
L 255.98419 504.317866 
L 270.426877 504.768561 
L 284.869565 505.204892 
L 299.312253 505.627359 
L 313.754941 506.036441 
L 328.197628 506.432601 
L 342.640316 506.816286 
L 357.083004 507.187923 
L 371.525692 507.547925 
L 385.968379 507.896692 
L 400.411067 508.234606 
L 414.853755 508.562036 
L 429.296443 508.879339 
" style="fill:none;stroke:#1f77b4;stroke-linecap:square;stroke-width:1.5;"/>
   </g>
   <g id="line2d_53">
    <path clip-path="url(#pf37c21c9b9)" d="M 140.442688 479.943839 
L 154.885375 481.214265 
L 169.328063 482.440465 
L 183.770751 483.6241 
L 198.213439 484.766761 
L 212.656126 485.86998 
L 227.098814 486.935226 
L 241.541502 487.963909 
L 255.98419 488.957386 
L 270.426877 489.916956 
L 284.869565 490.843871 
L 299.312253 491.739333 
L 313.754941 492.604495 
L 328.197628 493.440467 
L 342.640316 494.248313 
L 357.083004 495.02906 
L 371.525692 495.783691 
L 385.968379 496.513152 
L 400.411067 497.218353 
L 414.853755 497.90017 
L 429.296443 498.559442 
" style="fill:none;stroke:#ff7f0e;stroke-linecap:square;stroke-width:1.5;"/>
   </g>
   <g id="line2d_54">
    <path clip-path="url(#pf37c21c9b9)" d="M 140.442688 419.389693 
L 154.885375 422.86637 
L 169.328063 426.212602 
L 183.770751 429.433618 
L 198.213439 432.534427 
L 212.656126 435.519825 
L 227.098814 438.394407 
L 241.541502 441.162575 
L 255.98419 443.828543 
L 270.426877 446.396352 
L 284.869565 448.869872 
L 299.312253 451.252811 
L 313.754941 453.548725 
L 328.197628 455.761019 
L 342.640316 457.89296 
L 357.083004 459.947677 
L 371.525692 461.928172 
L 385.968379 463.837323 
L 400.411067 465.677888 
L 414.853755 467.452513 
L 429.296443 469.163738 
" style="fill:none;stroke:#2ca02c;stroke-linecap:square;stroke-width:1.5;"/>
   </g>
   <g id="line2d_55">
    <path clip-path="url(#pf37c21c9b9)" d="M 140.442688 318.466116 
L 154.885375 325.844174 
L 169.328063 332.931122 
L 183.770751 339.739169 
L 198.213439 346.279982 
L 212.656126 352.564716 
L 227.098814 358.604034 
L 241.541502 364.408133 
L 255.98419 369.986762 
L 270.426877 375.349247 
L 284.869565 380.504503 
L 299.312253 385.461061 
L 313.754941 390.227082 
L 328.197628 394.81037 
L 342.640316 399.218394 
L 357.083004 403.458302 
L 371.525692 407.536933 
L 385.968379 411.460832 
L 400.411067 415.236265 
L 414.853755 418.869228 
L 429.296443 422.365463 
" style="fill:none;stroke:#d62728;stroke-linecap:square;stroke-width:1.5;"/>
   </g>
   <g id="patch_13">
    <path d="M 126 518.4 
L 126 308.945455 
" style="fill:none;stroke:#000000;stroke-linecap:square;stroke-linejoin:miter;stroke-width:0.8;"/>
   </g>
   <g id="patch_14">
    <path d="M 443.73913 518.4 
L 443.73913 308.945455 
" style="fill:none;stroke:#000000;stroke-linecap:square;stroke-linejoin:miter;stroke-width:0.8;"/>
   </g>
   <g id="patch_15">
    <path d="M 126 518.4 
L 443.73913 518.4 
" style="fill:none;stroke:#000000;stroke-linecap:square;stroke-linejoin:miter;stroke-width:0.8;"/>
   </g>
   <g id="patch_16">
    <path d="M 126 308.945455 
L 443.73913 308.945455 
" style="fill:none;stroke:#000000;stroke-linecap:square;stroke-linejoin:miter;stroke-width:0.8;"/>
   </g>
   <g id="text_46">
    <!-- Station 3 -->
    <g transform="translate(259.068815 302.945455)scale(0.144 -0.144)">
     <defs>
      <path d="M 325 3431 
Q 506 3859 782 4092 
Q 1059 4325 1472 4325 
Q 1981 4325 2253 3994 
Q 2459 3747 2459 3466 
Q 2459 3003 1878 2509 
Q 2269 2356 2469 2072 
Q 2669 1788 2669 1403 
Q 2669 853 2319 450 
Q 1863 -75 997 -75 
Q 569 -75 414 31 
Q 259 138 259 259 
Q 259 350 332 419 
Q 406 488 509 488 
Q 588 488 669 463 
Q 722 447 909 348 
Q 1097 250 1169 231 
Q 1284 197 1416 197 
Q 1734 197 1970 444 
Q 2206 691 2206 1028 
Q 2206 1275 2097 1509 
Q 2016 1684 1919 1775 
Q 1784 1900 1550 2001 
Q 1316 2103 1072 2103 
L 972 2103 
L 972 2197 
Q 1219 2228 1467 2375 
Q 1716 2522 1828 2728 
Q 1941 2934 1941 3181 
Q 1941 3503 1739 3701 
Q 1538 3900 1238 3900 
Q 753 3900 428 3381 
L 325 3431 
z
" id="TimesNewRomanPSMT-33" transform="scale(0.015625)"/>
     </defs>
     <use xlink:href="#TimesNewRomanPSMT-53"/>
     <use x="55.615234" xlink:href="#TimesNewRomanPSMT-74"/>
     <use x="83.398438" xlink:href="#TimesNewRomanPSMT-61"/>
     <use x="127.783203" xlink:href="#TimesNewRomanPSMT-74"/>
     <use x="155.566406" xlink:href="#TimesNewRomanPSMT-69"/>
     <use x="183.349609" xlink:href="#TimesNewRomanPSMT-6f"/>
     <use x="233.349609" xlink:href="#TimesNewRomanPSMT-6e"/>
     <use x="283.349609" xlink:href="#TimesNewRomanPSMT-20"/>
     <use x="308.349609" xlink:href="#TimesNewRomanPSMT-33"/>
    </g>
   </g>
  </g>
  <g id="axes_4">
   <g id="patch_17">
    <path d="M 539.06087 518.4 
L 856.8 518.4 
L 856.8 308.945455 
L 539.06087 308.945455 
z
" style="fill:#ffffff;"/>
   </g>
   <g id="matplotlib.axis_7">
    <g id="xtick_28">
     <g id="line2d_56">
      <g>
       <use style="stroke:#000000;stroke-width:0.8;" x="553.503557" xlink:href="#m6c32262299" y="518.4"/>
      </g>
     </g>
     <g id="text_47">
      <!-- 0.0 -->
      <g transform="translate(545.551995 532.998438)scale(0.1 -0.1)">
       <use xlink:href="#DejaVuSans-30"/>
       <use x="63.623047" xlink:href="#DejaVuSans-2e"/>
       <use x="95.410156" xlink:href="#DejaVuSans-30"/>
      </g>
     </g>
    </g>
    <g id="xtick_29">
     <g id="line2d_57">
      <g>
       <use style="stroke:#000000;stroke-width:0.8;" x="589.610277" xlink:href="#m6c32262299" y="518.4"/>
      </g>
     </g>
     <g id="text_48">
      <!-- 2.5 -->
      <g transform="translate(581.658714 532.998438)scale(0.1 -0.1)">
       <use xlink:href="#DejaVuSans-32"/>
       <use x="63.623047" xlink:href="#DejaVuSans-2e"/>
       <use x="95.410156" xlink:href="#DejaVuSans-35"/>
      </g>
     </g>
    </g>
    <g id="xtick_30">
     <g id="line2d_58">
      <g>
       <use style="stroke:#000000;stroke-width:0.8;" x="625.716996" xlink:href="#m6c32262299" y="518.4"/>
      </g>
     </g>
     <g id="text_49">
      <!-- 5.0 -->
      <g transform="translate(617.765434 532.998438)scale(0.1 -0.1)">
       <use xlink:href="#DejaVuSans-35"/>
       <use x="63.623047" xlink:href="#DejaVuSans-2e"/>
       <use x="95.410156" xlink:href="#DejaVuSans-30"/>
      </g>
     </g>
    </g>
    <g id="xtick_31">
     <g id="line2d_59">
      <g>
       <use style="stroke:#000000;stroke-width:0.8;" x="661.823715" xlink:href="#m6c32262299" y="518.4"/>
      </g>
     </g>
     <g id="text_50">
      <!-- 7.5 -->
      <g transform="translate(653.872153 532.998438)scale(0.1 -0.1)">
       <use xlink:href="#DejaVuSans-37"/>
       <use x="63.623047" xlink:href="#DejaVuSans-2e"/>
       <use x="95.410156" xlink:href="#DejaVuSans-35"/>
      </g>
     </g>
    </g>
    <g id="xtick_32">
     <g id="line2d_60">
      <g>
       <use style="stroke:#000000;stroke-width:0.8;" x="697.930435" xlink:href="#m6c32262299" y="518.4"/>
      </g>
     </g>
     <g id="text_51">
      <!-- 10.0 -->
      <g transform="translate(686.797622 532.998438)scale(0.1 -0.1)">
       <use xlink:href="#DejaVuSans-31"/>
       <use x="63.623047" xlink:href="#DejaVuSans-30"/>
       <use x="127.246094" xlink:href="#DejaVuSans-2e"/>
       <use x="159.033203" xlink:href="#DejaVuSans-30"/>
      </g>
     </g>
    </g>
    <g id="xtick_33">
     <g id="line2d_61">
      <g>
       <use style="stroke:#000000;stroke-width:0.8;" x="734.037154" xlink:href="#m6c32262299" y="518.4"/>
      </g>
     </g>
     <g id="text_52">
      <!-- 12.5 -->
      <g transform="translate(722.904342 532.998438)scale(0.1 -0.1)">
       <use xlink:href="#DejaVuSans-31"/>
       <use x="63.623047" xlink:href="#DejaVuSans-32"/>
       <use x="127.246094" xlink:href="#DejaVuSans-2e"/>
       <use x="159.033203" xlink:href="#DejaVuSans-35"/>
      </g>
     </g>
    </g>
    <g id="xtick_34">
     <g id="line2d_62">
      <g>
       <use style="stroke:#000000;stroke-width:0.8;" x="770.143874" xlink:href="#m6c32262299" y="518.4"/>
      </g>
     </g>
     <g id="text_53">
      <!-- 15.0 -->
      <g transform="translate(759.011061 532.998438)scale(0.1 -0.1)">
       <use xlink:href="#DejaVuSans-31"/>
       <use x="63.623047" xlink:href="#DejaVuSans-35"/>
       <use x="127.246094" xlink:href="#DejaVuSans-2e"/>
       <use x="159.033203" xlink:href="#DejaVuSans-30"/>
      </g>
     </g>
    </g>
    <g id="xtick_35">
     <g id="line2d_63">
      <g>
       <use style="stroke:#000000;stroke-width:0.8;" x="806.250593" xlink:href="#m6c32262299" y="518.4"/>
      </g>
     </g>
     <g id="text_54">
      <!-- 17.5 -->
      <g transform="translate(795.11778 532.998438)scale(0.1 -0.1)">
       <use xlink:href="#DejaVuSans-31"/>
       <use x="63.623047" xlink:href="#DejaVuSans-37"/>
       <use x="127.246094" xlink:href="#DejaVuSans-2e"/>
       <use x="159.033203" xlink:href="#DejaVuSans-35"/>
      </g>
     </g>
    </g>
    <g id="xtick_36">
     <g id="line2d_64">
      <g>
       <use style="stroke:#000000;stroke-width:0.8;" x="842.357312" xlink:href="#m6c32262299" y="518.4"/>
      </g>
     </g>
     <g id="text_55">
      <!-- 20.0 -->
      <g transform="translate(831.2245 532.998438)scale(0.1 -0.1)">
       <use xlink:href="#DejaVuSans-32"/>
       <use x="63.623047" xlink:href="#DejaVuSans-30"/>
       <use x="127.246094" xlink:href="#DejaVuSans-2e"/>
       <use x="159.033203" xlink:href="#DejaVuSans-30"/>
      </g>
     </g>
    </g>
   </g>
   <g id="matplotlib.axis_8">
    <g id="ytick_17">
     <g id="line2d_65">
      <g>
       <use style="stroke:#000000;stroke-width:0.8;" x="539.06087" xlink:href="#m828ad1a2c7" y="480.090542"/>
      </g>
     </g>
     <g id="text_56">
      <!-- 200 -->
      <g transform="translate(512.97337 483.88976)scale(0.1 -0.1)">
       <use xlink:href="#DejaVuSans-32"/>
       <use x="63.623047" xlink:href="#DejaVuSans-30"/>
       <use x="127.246094" xlink:href="#DejaVuSans-30"/>
      </g>
     </g>
    </g>
    <g id="ytick_18">
     <g id="line2d_66">
      <g>
       <use style="stroke:#000000;stroke-width:0.8;" x="539.06087" xlink:href="#m828ad1a2c7" y="439.684435"/>
      </g>
     </g>
     <g id="text_57">
      <!-- 400 -->
      <g transform="translate(512.97337 443.483654)scale(0.1 -0.1)">
       <use xlink:href="#DejaVuSans-34"/>
       <use x="63.623047" xlink:href="#DejaVuSans-30"/>
       <use x="127.246094" xlink:href="#DejaVuSans-30"/>
      </g>
     </g>
    </g>
    <g id="ytick_19">
     <g id="line2d_67">
      <g>
       <use style="stroke:#000000;stroke-width:0.8;" x="539.06087" xlink:href="#m828ad1a2c7" y="399.278329"/>
      </g>
     </g>
     <g id="text_58">
      <!-- 600 -->
      <g transform="translate(512.97337 403.077547)scale(0.1 -0.1)">
       <use xlink:href="#DejaVuSans-36"/>
       <use x="63.623047" xlink:href="#DejaVuSans-30"/>
       <use x="127.246094" xlink:href="#DejaVuSans-30"/>
      </g>
     </g>
    </g>
    <g id="ytick_20">
     <g id="line2d_68">
      <g>
       <use style="stroke:#000000;stroke-width:0.8;" x="539.06087" xlink:href="#m828ad1a2c7" y="358.872222"/>
      </g>
     </g>
     <g id="text_59">
      <!-- 800 -->
      <g transform="translate(512.97337 362.671441)scale(0.1 -0.1)">
       <use xlink:href="#DejaVuSans-38"/>
       <use x="63.623047" xlink:href="#DejaVuSans-30"/>
       <use x="127.246094" xlink:href="#DejaVuSans-30"/>
      </g>
     </g>
    </g>
    <g id="ytick_21">
     <g id="line2d_69">
      <g>
       <use style="stroke:#000000;stroke-width:0.8;" x="539.06087" xlink:href="#m828ad1a2c7" y="318.466116"/>
      </g>
     </g>
     <g id="text_60">
      <!-- 1000 -->
      <g transform="translate(506.61087 322.265334)scale(0.1 -0.1)">
       <use xlink:href="#DejaVuSans-31"/>
       <use x="63.623047" xlink:href="#DejaVuSans-30"/>
       <use x="127.246094" xlink:href="#DejaVuSans-30"/>
       <use x="190.869141" xlink:href="#DejaVuSans-30"/>
      </g>
     </g>
    </g>
   </g>
   <g id="line2d_70">
    <path clip-path="url(#p7bd7f4d037)" d="M 553.503557 500.293595 
L 567.946245 500.864365 
L 582.388933 501.417011 
L 596.831621 501.952159 
L 611.274308 502.470411 
L 625.716996 502.972347 
L 640.159684 503.458527 
L 654.602372 503.929488 
L 669.045059 504.38575 
L 683.487747 504.827812 
L 697.930435 505.256156 
L 712.373123 505.671245 
L 726.81581 506.073527 
L 741.258498 506.463434 
L 755.701186 506.84138 
L 770.143874 507.207766 
L 784.586561 507.562978 
L 799.029249 507.907389 
L 813.471937 508.241357 
L 827.914625 508.565229 
L 842.357312 508.879339 
" style="fill:none;stroke:#1f77b4;stroke-linecap:square;stroke-width:1.5;"/>
   </g>
   <g id="line2d_71">
    <path clip-path="url(#p7bd7f4d037)" d="M 553.503557 480.090542 
L 567.946245 481.327842 
L 582.388933 482.523227 
L 596.831621 483.678229 
L 611.274308 484.794318 
L 625.716996 485.872909 
L 640.159684 486.915361 
L 654.602372 487.922982 
L 669.045059 488.897028 
L 683.487747 489.838708 
L 697.930435 490.749184 
L 712.373123 491.629574 
L 726.81581 492.480953 
L 741.258498 493.304354 
L 755.701186 494.100774 
L 770.143874 494.871168 
L 784.586561 495.616458 
L 799.029249 496.33753 
L 813.471937 497.035237 
L 827.914625 497.7104 
L 842.357312 498.363808 
" style="fill:none;stroke:#ff7f0e;stroke-linecap:square;stroke-width:1.5;"/>
   </g>
   <g id="line2d_72">
    <path clip-path="url(#p7bd7f4d037)" d="M 553.503557 419.481382 
L 567.946245 422.867535 
L 582.388933 426.13005 
L 596.831621 429.273752 
L 611.274308 432.303266 
L 625.716996 435.223026 
L 640.159684 438.037287 
L 654.602372 440.750126 
L 669.045059 443.365455 
L 683.487747 445.887027 
L 697.930435 448.318441 
L 712.373123 450.66315 
L 726.81581 452.924467 
L 741.258498 455.105572 
L 755.701186 457.209514 
L 770.143874 459.239223 
L 784.586561 461.197507 
L 799.029249 463.087064 
L 813.471937 464.910484 
L 827.914625 466.670253 
L 842.357312 468.368756 
" style="fill:none;stroke:#2ca02c;stroke-linecap:square;stroke-width:1.5;"/>
   </g>
   <g id="line2d_73">
    <path clip-path="url(#p7bd7f4d037)" d="M 553.503557 318.466116 
L 567.946245 325.652263 
L 582.388933 332.562479 
L 596.831621 339.208026 
L 611.274308 345.599681 
L 625.716996 351.747757 
L 640.159684 357.66213 
L 654.602372 363.352251 
L 669.045059 368.827169 
L 683.487747 374.095549 
L 697.930435 379.165688 
L 712.373123 384.045531 
L 726.81581 388.742688 
L 741.258498 393.264447 
L 755.701186 397.617791 
L 770.143874 401.809409 
L 784.586561 405.845707 
L 799.029249 409.732829 
L 813.471937 413.476656 
L 827.914625 417.082829 
L 842.357312 420.556752 
" style="fill:none;stroke:#d62728;stroke-linecap:square;stroke-width:1.5;"/>
   </g>
   <g id="patch_18">
    <path d="M 539.06087 518.4 
L 539.06087 308.945455 
" style="fill:none;stroke:#000000;stroke-linecap:square;stroke-linejoin:miter;stroke-width:0.8;"/>
   </g>
   <g id="patch_19">
    <path d="M 856.8 518.4 
L 856.8 308.945455 
" style="fill:none;stroke:#000000;stroke-linecap:square;stroke-linejoin:miter;stroke-width:0.8;"/>
   </g>
   <g id="patch_20">
    <path d="M 539.06087 518.4 
L 856.8 518.4 
" style="fill:none;stroke:#000000;stroke-linecap:square;stroke-linejoin:miter;stroke-width:0.8;"/>
   </g>
   <g id="patch_21">
    <path d="M 539.06087 308.945455 
L 856.8 308.945455 
" style="fill:none;stroke:#000000;stroke-linecap:square;stroke-linejoin:miter;stroke-width:0.8;"/>
   </g>
   <g id="text_61">
    <!-- Station 4 -->
    <g transform="translate(672.129685 302.945455)scale(0.144 -0.144)">
     <defs>
      <path d="M 2978 1563 
L 2978 1119 
L 2409 1119 
L 2409 0 
L 1894 0 
L 1894 1119 
L 100 1119 
L 100 1519 
L 2066 4325 
L 2409 4325 
L 2409 1563 
L 2978 1563 
z
M 1894 1563 
L 1894 3666 
L 406 1563 
L 1894 1563 
z
" id="TimesNewRomanPSMT-34" transform="scale(0.015625)"/>
     </defs>
     <use xlink:href="#TimesNewRomanPSMT-53"/>
     <use x="55.615234" xlink:href="#TimesNewRomanPSMT-74"/>
     <use x="83.398438" xlink:href="#TimesNewRomanPSMT-61"/>
     <use x="127.783203" xlink:href="#TimesNewRomanPSMT-74"/>
     <use x="155.566406" xlink:href="#TimesNewRomanPSMT-69"/>
     <use x="183.349609" xlink:href="#TimesNewRomanPSMT-6f"/>
     <use x="233.349609" xlink:href="#TimesNewRomanPSMT-6e"/>
     <use x="283.349609" xlink:href="#TimesNewRomanPSMT-20"/>
     <use x="308.349609" xlink:href="#TimesNewRomanPSMT-34"/>
    </g>
   </g>
  </g>
  <g id="text_62">
   <!-- Return Period Reduction -->
   <g transform="translate(418.09275 23.5188)scale(0.1728 -0.1728)">
    <defs>
     <path d="M 4325 0 
L 3194 0 
L 1759 1981 
Q 1600 1975 1500 1975 
Q 1459 1975 1412 1976 
Q 1366 1978 1316 1981 
L 1316 750 
Q 1316 350 1403 253 
Q 1522 116 1759 116 
L 1925 116 
L 1925 0 
L 109 0 
L 109 116 
L 269 116 
Q 538 116 653 291 
Q 719 388 719 750 
L 719 3488 
Q 719 3888 631 3984 
Q 509 4122 269 4122 
L 109 4122 
L 109 4238 
L 1653 4238 
Q 2328 4238 2648 4139 
Q 2969 4041 3192 3777 
Q 3416 3513 3416 3147 
Q 3416 2756 3161 2468 
Q 2906 2181 2372 2063 
L 3247 847 
Q 3547 428 3762 290 
Q 3978 153 4325 116 
L 4325 0 
z
M 1316 2178 
Q 1375 2178 1419 2176 
Q 1463 2175 1491 2175 
Q 2097 2175 2405 2437 
Q 2713 2700 2713 3106 
Q 2713 3503 2464 3751 
Q 2216 4000 1806 4000 
Q 1625 4000 1316 3941 
L 1316 2178 
z
" id="TimesNewRomanPSMT-52" transform="scale(0.015625)"/>
     <path d="M 681 1784 
Q 678 1147 991 784 
Q 1303 422 1725 422 
Q 2006 422 2214 576 
Q 2422 731 2563 1106 
L 2659 1044 
Q 2594 616 2278 264 
Q 1963 -88 1488 -88 
Q 972 -88 605 314 
Q 238 716 238 1394 
Q 238 2128 614 2539 
Q 991 2950 1559 2950 
Q 2041 2950 2350 2633 
Q 2659 2316 2659 1784 
L 681 1784 
z
M 681 1966 
L 2006 1966 
Q 1991 2241 1941 2353 
Q 1863 2528 1708 2628 
Q 1553 2728 1384 2728 
Q 1125 2728 920 2526 
Q 716 2325 681 1966 
z
" id="TimesNewRomanPSMT-65" transform="scale(0.015625)"/>
     <path d="M 2709 2863 
L 2709 1128 
Q 2709 631 2732 520 
Q 2756 409 2807 365 
Q 2859 322 2928 322 
Q 3025 322 3147 375 
L 3191 266 
L 2334 -88 
L 2194 -88 
L 2194 519 
Q 1825 119 1631 15 
Q 1438 -88 1222 -88 
Q 981 -88 804 51 
Q 628 191 559 409 
Q 491 628 491 1028 
L 491 2306 
Q 491 2509 447 2587 
Q 403 2666 317 2708 
Q 231 2750 6 2747 
L 6 2863 
L 1009 2863 
L 1009 947 
Q 1009 547 1148 422 
Q 1288 297 1484 297 
Q 1619 297 1789 381 
Q 1959 466 2194 703 
L 2194 2325 
Q 2194 2569 2105 2655 
Q 2016 2741 1734 2747 
L 1734 2863 
L 2709 2863 
z
" id="TimesNewRomanPSMT-75" transform="scale(0.015625)"/>
     <path d="M 1038 2947 
L 1038 2303 
Q 1397 2947 1775 2947 
Q 1947 2947 2059 2842 
Q 2172 2738 2172 2600 
Q 2172 2478 2090 2393 
Q 2009 2309 1897 2309 
Q 1788 2309 1652 2417 
Q 1516 2525 1450 2525 
Q 1394 2525 1328 2463 
Q 1188 2334 1038 2041 
L 1038 669 
Q 1038 431 1097 309 
Q 1138 225 1241 169 
Q 1344 113 1538 113 
L 1538 0 
L 72 0 
L 72 113 
Q 291 113 397 181 
Q 475 231 506 341 
Q 522 394 522 644 
L 522 1753 
Q 522 2253 501 2348 
Q 481 2444 426 2487 
Q 372 2531 291 2531 
Q 194 2531 72 2484 
L 41 2597 
L 906 2947 
L 1038 2947 
z
" id="TimesNewRomanPSMT-72" transform="scale(0.015625)"/>
     <path d="M 1313 1984 
L 1313 750 
Q 1313 350 1400 253 
Q 1519 116 1759 116 
L 1922 116 
L 1922 0 
L 106 0 
L 106 116 
L 266 116 
Q 534 116 650 291 
Q 713 388 713 750 
L 713 3488 
Q 713 3888 628 3984 
Q 506 4122 266 4122 
L 106 4122 
L 106 4238 
L 1659 4238 
Q 2228 4238 2556 4120 
Q 2884 4003 3109 3725 
Q 3334 3447 3334 3066 
Q 3334 2547 2992 2222 
Q 2650 1897 2025 1897 
Q 1872 1897 1694 1919 
Q 1516 1941 1313 1984 
z
M 1313 2163 
Q 1478 2131 1606 2115 
Q 1734 2100 1825 2100 
Q 2150 2100 2386 2351 
Q 2622 2603 2622 3003 
Q 2622 3278 2509 3514 
Q 2397 3750 2190 3867 
Q 1984 3984 1722 3984 
Q 1563 3984 1313 3925 
L 1313 2163 
z
" id="TimesNewRomanPSMT-50" transform="scale(0.015625)"/>
     <path d="M 2222 322 
Q 2013 103 1813 7 
Q 1613 -88 1381 -88 
Q 913 -88 563 304 
Q 213 697 213 1313 
Q 213 1928 600 2439 
Q 988 2950 1597 2950 
Q 1975 2950 2222 2709 
L 2222 3238 
Q 2222 3728 2198 3840 
Q 2175 3953 2125 3993 
Q 2075 4034 2000 4034 
Q 1919 4034 1784 3984 
L 1744 4094 
L 2597 4444 
L 2738 4444 
L 2738 1134 
Q 2738 631 2761 520 
Q 2784 409 2836 365 
Q 2888 322 2956 322 
Q 3041 322 3181 375 
L 3216 266 
L 2366 -88 
L 2222 -88 
L 2222 322 
z
M 2222 541 
L 2222 2016 
Q 2203 2228 2109 2403 
Q 2016 2578 1861 2667 
Q 1706 2756 1559 2756 
Q 1284 2756 1069 2509 
Q 784 2184 784 1559 
Q 784 928 1059 592 
Q 1334 256 1672 256 
Q 1956 256 2222 541 
z
" id="TimesNewRomanPSMT-64" transform="scale(0.015625)"/>
     <path d="M 2631 1088 
Q 2516 522 2178 217 
Q 1841 -88 1431 -88 
Q 944 -88 581 321 
Q 219 731 219 1428 
Q 219 2103 620 2525 
Q 1022 2947 1584 2947 
Q 2006 2947 2278 2723 
Q 2550 2500 2550 2259 
Q 2550 2141 2473 2067 
Q 2397 1994 2259 1994 
Q 2075 1994 1981 2113 
Q 1928 2178 1911 2362 
Q 1894 2547 1784 2644 
Q 1675 2738 1481 2738 
Q 1169 2738 978 2506 
Q 725 2200 725 1697 
Q 725 1184 976 792 
Q 1228 400 1656 400 
Q 1963 400 2206 609 
Q 2378 753 2541 1131 
L 2631 1088 
z
" id="TimesNewRomanPSMT-63" transform="scale(0.015625)"/>
    </defs>
    <use xlink:href="#TimesNewRomanPSMT-52"/>
    <use x="66.699219" xlink:href="#TimesNewRomanPSMT-65"/>
    <use x="111.083984" xlink:href="#TimesNewRomanPSMT-74"/>
    <use x="138.867188" xlink:href="#TimesNewRomanPSMT-75"/>
    <use x="188.867188" xlink:href="#TimesNewRomanPSMT-72"/>
    <use x="222.167969" xlink:href="#TimesNewRomanPSMT-6e"/>
    <use x="272.167969" xlink:href="#TimesNewRomanPSMT-20"/>
    <use x="297.167969" xlink:href="#TimesNewRomanPSMT-50"/>
    <use x="352.783203" xlink:href="#TimesNewRomanPSMT-65"/>
    <use x="397.167969" xlink:href="#TimesNewRomanPSMT-72"/>
    <use x="430.46875" xlink:href="#TimesNewRomanPSMT-69"/>
    <use x="458.251953" xlink:href="#TimesNewRomanPSMT-6f"/>
    <use x="508.251953" xlink:href="#TimesNewRomanPSMT-64"/>
    <use x="558.251953" xlink:href="#TimesNewRomanPSMT-20"/>
    <use x="583.251953" xlink:href="#TimesNewRomanPSMT-52"/>
    <use x="649.951172" xlink:href="#TimesNewRomanPSMT-65"/>
    <use x="694.335938" xlink:href="#TimesNewRomanPSMT-64"/>
    <use x="744.335938" xlink:href="#TimesNewRomanPSMT-75"/>
    <use x="794.335938" xlink:href="#TimesNewRomanPSMT-63"/>
    <use x="838.720703" xlink:href="#TimesNewRomanPSMT-74"/>
    <use x="866.503906" xlink:href="#TimesNewRomanPSMT-69"/>
    <use x="894.287109" xlink:href="#TimesNewRomanPSMT-6f"/>
    <use x="944.287109" xlink:href="#TimesNewRomanPSMT-6e"/>
   </g>
  </g>
  <g id="text_63">
   <!-- $\Delta$T -->
   <g transform="translate(494.64 552.96)scale(0.144 -0.144)">
    <defs>
     <path d="M 2188 4044 
L 906 525 
L 3472 525 
L 2188 4044 
z
M 50 0 
L 1831 4666 
L 2547 4666 
L 4325 0 
L 50 0 
z
" id="DejaVuSans-394" transform="scale(0.015625)"/>
     <path d="M 3703 4238 
L 3750 3244 
L 3631 3244 
Q 3597 3506 3538 3619 
Q 3441 3800 3280 3886 
Q 3119 3972 2856 3972 
L 2259 3972 
L 2259 734 
Q 2259 344 2344 247 
Q 2463 116 2709 116 
L 2856 116 
L 2856 0 
L 1059 0 
L 1059 116 
L 1209 116 
Q 1478 116 1591 278 
Q 1659 378 1659 734 
L 1659 3972 
L 1150 3972 
Q 853 3972 728 3928 
Q 566 3869 450 3700 
Q 334 3531 313 3244 
L 194 3244 
L 244 4238 
L 3703 4238 
z
" id="TimesNewRomanPSMT-54" transform="scale(0.015625)"/>
    </defs>
    <use transform="translate(0 0.09375)" xlink:href="#DejaVuSans-394"/>
    <use transform="translate(68.408203 0.09375)" xlink:href="#TimesNewRomanPSMT-54"/>
   </g>
  </g>
  <g id="text_64">
   <!-- Return Period -->
   <g transform="translate(70.479 328.194)rotate(-90)scale(0.144 -0.144)">
    <use xlink:href="#TimesNewRomanPSMT-52"/>
    <use x="66.699219" xlink:href="#TimesNewRomanPSMT-65"/>
    <use x="111.083984" xlink:href="#TimesNewRomanPSMT-74"/>
    <use x="138.867188" xlink:href="#TimesNewRomanPSMT-75"/>
    <use x="188.867188" xlink:href="#TimesNewRomanPSMT-72"/>
    <use x="222.167969" xlink:href="#TimesNewRomanPSMT-6e"/>
    <use x="272.167969" xlink:href="#TimesNewRomanPSMT-20"/>
    <use x="297.167969" xlink:href="#TimesNewRomanPSMT-50"/>
    <use x="352.783203" xlink:href="#TimesNewRomanPSMT-65"/>
    <use x="397.167969" xlink:href="#TimesNewRomanPSMT-72"/>
    <use x="430.46875" xlink:href="#TimesNewRomanPSMT-69"/>
    <use x="458.251953" xlink:href="#TimesNewRomanPSMT-6f"/>
    <use x="508.251953" xlink:href="#TimesNewRomanPSMT-64"/>
   </g>
  </g>
  <g id="legend_1">
   <g id="patch_22">
    <path d="M 889.660938 318.85625 
L 1001 318.85625 
Q 1003 318.85625 1003 316.85625 
L 1003 259.14375 
Q 1003 257.14375 1001 257.14375 
L 889.660938 257.14375 
Q 887.660938 257.14375 887.660938 259.14375 
L 887.660938 316.85625 
Q 887.660938 318.85625 889.660938 318.85625 
z
" style="fill:#ffffff;opacity:0.8;stroke:#cccccc;stroke-linejoin:miter;"/>
   </g>
   <g id="line2d_74">
    <path d="M 891.660938 265.242188 
L 911.660938 265.242188 
" style="fill:none;stroke:#1f77b4;stroke-linecap:square;stroke-width:1.5;"/>
   </g>
   <g id="line2d_75"/>
   <g id="text_65">
    <!-- 100-Year Flood -->
    <g transform="translate(919.660938 268.742188)scale(0.1 -0.1)">
     <defs>
      <path d="M 313 2009 
L 1997 2009 
L 1997 1497 
L 313 1497 
L 313 2009 
z
" id="DejaVuSans-2d" transform="scale(0.015625)"/>
      <path d="M -13 4666 
L 666 4666 
L 1959 2747 
L 3244 4666 
L 3922 4666 
L 2272 2222 
L 2272 0 
L 1638 0 
L 1638 2222 
L -13 4666 
z
" id="DejaVuSans-59" transform="scale(0.015625)"/>
      <path d="M 3597 1894 
L 3597 1613 
L 953 1613 
Q 991 1019 1311 708 
Q 1631 397 2203 397 
Q 2534 397 2845 478 
Q 3156 559 3463 722 
L 3463 178 
Q 3153 47 2828 -22 
Q 2503 -91 2169 -91 
Q 1331 -91 842 396 
Q 353 884 353 1716 
Q 353 2575 817 3079 
Q 1281 3584 2069 3584 
Q 2775 3584 3186 3129 
Q 3597 2675 3597 1894 
z
M 3022 2063 
Q 3016 2534 2758 2815 
Q 2500 3097 2075 3097 
Q 1594 3097 1305 2825 
Q 1016 2553 972 2059 
L 3022 2063 
z
" id="DejaVuSans-65" transform="scale(0.015625)"/>
      <path d="M 2194 1759 
Q 1497 1759 1228 1600 
Q 959 1441 959 1056 
Q 959 750 1161 570 
Q 1363 391 1709 391 
Q 2188 391 2477 730 
Q 2766 1069 2766 1631 
L 2766 1759 
L 2194 1759 
z
M 3341 1997 
L 3341 0 
L 2766 0 
L 2766 531 
Q 2569 213 2275 61 
Q 1981 -91 1556 -91 
Q 1019 -91 701 211 
Q 384 513 384 1019 
Q 384 1609 779 1909 
Q 1175 2209 1959 2209 
L 2766 2209 
L 2766 2266 
Q 2766 2663 2505 2880 
Q 2244 3097 1772 3097 
Q 1472 3097 1187 3025 
Q 903 2953 641 2809 
L 641 3341 
Q 956 3463 1253 3523 
Q 1550 3584 1831 3584 
Q 2591 3584 2966 3190 
Q 3341 2797 3341 1997 
z
" id="DejaVuSans-61" transform="scale(0.015625)"/>
      <path d="M 2631 2963 
Q 2534 3019 2420 3045 
Q 2306 3072 2169 3072 
Q 1681 3072 1420 2755 
Q 1159 2438 1159 1844 
L 1159 0 
L 581 0 
L 581 3500 
L 1159 3500 
L 1159 2956 
Q 1341 3275 1631 3429 
Q 1922 3584 2338 3584 
Q 2397 3584 2469 3576 
Q 2541 3569 2628 3553 
L 2631 2963 
z
" id="DejaVuSans-72" transform="scale(0.015625)"/>
      <path id="DejaVuSans-20" transform="scale(0.015625)"/>
      <path d="M 628 4666 
L 3309 4666 
L 3309 4134 
L 1259 4134 
L 1259 2759 
L 3109 2759 
L 3109 2228 
L 1259 2228 
L 1259 0 
L 628 0 
L 628 4666 
z
" id="DejaVuSans-46" transform="scale(0.015625)"/>
      <path d="M 603 4863 
L 1178 4863 
L 1178 0 
L 603 0 
L 603 4863 
z
" id="DejaVuSans-6c" transform="scale(0.015625)"/>
      <path d="M 1959 3097 
Q 1497 3097 1228 2736 
Q 959 2375 959 1747 
Q 959 1119 1226 758 
Q 1494 397 1959 397 
Q 2419 397 2687 759 
Q 2956 1122 2956 1747 
Q 2956 2369 2687 2733 
Q 2419 3097 1959 3097 
z
M 1959 3584 
Q 2709 3584 3137 3096 
Q 3566 2609 3566 1747 
Q 3566 888 3137 398 
Q 2709 -91 1959 -91 
Q 1206 -91 779 398 
Q 353 888 353 1747 
Q 353 2609 779 3096 
Q 1206 3584 1959 3584 
z
" id="DejaVuSans-6f" transform="scale(0.015625)"/>
      <path d="M 2906 2969 
L 2906 4863 
L 3481 4863 
L 3481 0 
L 2906 0 
L 2906 525 
Q 2725 213 2448 61 
Q 2172 -91 1784 -91 
Q 1150 -91 751 415 
Q 353 922 353 1747 
Q 353 2572 751 3078 
Q 1150 3584 1784 3584 
Q 2172 3584 2448 3432 
Q 2725 3281 2906 2969 
z
M 947 1747 
Q 947 1113 1208 752 
Q 1469 391 1925 391 
Q 2381 391 2643 752 
Q 2906 1113 2906 1747 
Q 2906 2381 2643 2742 
Q 2381 3103 1925 3103 
Q 1469 3103 1208 2742 
Q 947 2381 947 1747 
z
" id="DejaVuSans-64" transform="scale(0.015625)"/>
     </defs>
     <use xlink:href="#DejaVuSans-31"/>
     <use x="63.623047" xlink:href="#DejaVuSans-30"/>
     <use x="127.246094" xlink:href="#DejaVuSans-30"/>
     <use x="190.869141" xlink:href="#DejaVuSans-2d"/>
     <use x="215.078125" xlink:href="#DejaVuSans-59"/>
     <use x="262.912109" xlink:href="#DejaVuSans-65"/>
     <use x="324.435547" xlink:href="#DejaVuSans-61"/>
     <use x="385.714844" xlink:href="#DejaVuSans-72"/>
     <use x="426.828125" xlink:href="#DejaVuSans-20"/>
     <use x="458.615234" xlink:href="#DejaVuSans-46"/>
     <use x="516.134766" xlink:href="#DejaVuSans-6c"/>
     <use x="543.917969" xlink:href="#DejaVuSans-6f"/>
     <use x="605.099609" xlink:href="#DejaVuSans-6f"/>
     <use x="666.28125" xlink:href="#DejaVuSans-64"/>
    </g>
   </g>
   <g id="line2d_76">
    <path d="M 891.660938 279.920313 
L 911.660938 279.920313 
" style="fill:none;stroke:#ff7f0e;stroke-linecap:square;stroke-width:1.5;"/>
   </g>
   <g id="line2d_77"/>
   <g id="text_66">
    <!-- 200-Year Flood -->
    <g transform="translate(919.660938 283.420313)scale(0.1 -0.1)">
     <use xlink:href="#DejaVuSans-32"/>
     <use x="63.623047" xlink:href="#DejaVuSans-30"/>
     <use x="127.246094" xlink:href="#DejaVuSans-30"/>
     <use x="190.869141" xlink:href="#DejaVuSans-2d"/>
     <use x="215.078125" xlink:href="#DejaVuSans-59"/>
     <use x="262.912109" xlink:href="#DejaVuSans-65"/>
     <use x="324.435547" xlink:href="#DejaVuSans-61"/>
     <use x="385.714844" xlink:href="#DejaVuSans-72"/>
     <use x="426.828125" xlink:href="#DejaVuSans-20"/>
     <use x="458.615234" xlink:href="#DejaVuSans-46"/>
     <use x="516.134766" xlink:href="#DejaVuSans-6c"/>
     <use x="543.917969" xlink:href="#DejaVuSans-6f"/>
     <use x="605.099609" xlink:href="#DejaVuSans-6f"/>
     <use x="666.28125" xlink:href="#DejaVuSans-64"/>
    </g>
   </g>
   <g id="line2d_78">
    <path d="M 891.660938 294.598437 
L 911.660938 294.598437 
" style="fill:none;stroke:#2ca02c;stroke-linecap:square;stroke-width:1.5;"/>
   </g>
   <g id="line2d_79"/>
   <g id="text_67">
    <!-- 500-Year Flood -->
    <g transform="translate(919.660938 298.098437)scale(0.1 -0.1)">
     <use xlink:href="#DejaVuSans-35"/>
     <use x="63.623047" xlink:href="#DejaVuSans-30"/>
     <use x="127.246094" xlink:href="#DejaVuSans-30"/>
     <use x="190.869141" xlink:href="#DejaVuSans-2d"/>
     <use x="215.078125" xlink:href="#DejaVuSans-59"/>
     <use x="262.912109" xlink:href="#DejaVuSans-65"/>
     <use x="324.435547" xlink:href="#DejaVuSans-61"/>
     <use x="385.714844" xlink:href="#DejaVuSans-72"/>
     <use x="426.828125" xlink:href="#DejaVuSans-20"/>
     <use x="458.615234" xlink:href="#DejaVuSans-46"/>
     <use x="516.134766" xlink:href="#DejaVuSans-6c"/>
     <use x="543.917969" xlink:href="#DejaVuSans-6f"/>
     <use x="605.099609" xlink:href="#DejaVuSans-6f"/>
     <use x="666.28125" xlink:href="#DejaVuSans-64"/>
    </g>
   </g>
   <g id="line2d_80">
    <path d="M 891.660938 309.276563 
L 911.660938 309.276563 
" style="fill:none;stroke:#d62728;stroke-linecap:square;stroke-width:1.5;"/>
   </g>
   <g id="line2d_81"/>
   <g id="text_68">
    <!-- 1000-Year Flood -->
    <g transform="translate(919.660938 312.776563)scale(0.1 -0.1)">
     <use xlink:href="#DejaVuSans-31"/>
     <use x="63.623047" xlink:href="#DejaVuSans-30"/>
     <use x="127.246094" xlink:href="#DejaVuSans-30"/>
     <use x="190.869141" xlink:href="#DejaVuSans-30"/>
     <use x="254.492188" xlink:href="#DejaVuSans-2d"/>
     <use x="278.701172" xlink:href="#DejaVuSans-59"/>
     <use x="326.535156" xlink:href="#DejaVuSans-65"/>
     <use x="388.058594" xlink:href="#DejaVuSans-61"/>
     <use x="449.337891" xlink:href="#DejaVuSans-72"/>
     <use x="490.451172" xlink:href="#DejaVuSans-20"/>
     <use x="522.238281" xlink:href="#DejaVuSans-46"/>
     <use x="579.757812" xlink:href="#DejaVuSans-6c"/>
     <use x="607.541016" xlink:href="#DejaVuSans-6f"/>
     <use x="668.722656" xlink:href="#DejaVuSans-6f"/>
     <use x="729.904297" xlink:href="#DejaVuSans-64"/>
    </g>
   </g>
  </g>
 </g>
 <defs>
  <clipPath id="p042bdbd094">
   <rect height="209.454545" width="317.73913" x="126" y="57.6"/>
  </clipPath>
  <clipPath id="p46f4aeef3b">
   <rect height="209.454545" width="317.73913" x="539.06087" y="57.6"/>
  </clipPath>
  <clipPath id="pf37c21c9b9">
   <rect height="209.454545" width="317.73913" x="126" y="308.945455"/>
  </clipPath>
  <clipPath id="p7bd7f4d037">
   <rect height="209.454545" width="317.73913" x="539.06087" y="308.945455"/>
  </clipPath>
 </defs>
</svg>
