<?xml version="1.0" encoding="utf-8" standalone="no"?>
<!DOCTYPE svg PUBLIC "-//W3C//DTD SVG 1.1//EN"
  "http://www.w3.org/Graphics/SVG/1.1/DTD/svg11.dtd">
<svg height="504pt" version="1.1" viewBox="0 0 504 504" width="504pt" xmlns="http://www.w3.org/2000/svg" xmlns:xlink="http://www.w3.org/1999/xlink">
 <metadata>
  <rdf:RDF xmlns:cc="http://creativecommons.org/ns#" xmlns:dc="http://purl.org/dc/elements/1.1/" xmlns:rdf="http://www.w3.org/1999/02/22-rdf-syntax-ns#">
   <cc:Work>
    <dc:type rdf:resource="http://purl.org/dc/dcmitype/StillImage"/>
    <dc:date>2022-03-09T16:43:11.513974</dc:date>
    <dc:format>image/svg+xml</dc:format>
    <dc:creator>
     <cc:Agent>
      <dc:title>Matplotlib v3.4.3, https://matplotlib.org/</dc:title>
     </cc:Agent>
    </dc:creator>
   </cc:Work>
  </rdf:RDF>
 </metadata>
 <defs>
  <style type="text/css">*{stroke-linecap:butt;stroke-linejoin:round;}</style>
 </defs>
 <g id="figure_1">
  <g id="patch_1">
   <path d="M 0 504 
L 504 504 
L 504 0 
L 0 0 
z
" style="fill:none;"/>
  </g>
  <g id="axes_1">
   <g id="patch_2">
    <path d="M 63 441 
L 453.6 441 
L 453.6 60.48 
L 63 60.48 
z
" style="fill:#ffffff;"/>
   </g>
   <g id="matplotlib.axis_1">
    <g id="xtick_1">
     <g id="line2d_1">
      <defs>
       <path d="M 0 0 
L 0 3.5 
" id="mc1941c6657" style="stroke:#000000;stroke-width:0.8;"/>
      </defs>
      <g>
       <use style="stroke:#000000;stroke-width:0.8;" x="80.754545" xlink:href="#mc1941c6657" y="441"/>
      </g>
     </g>
     <g id="text_1">
      <!-- 0 -->
      <g transform="translate(77.573295 455.598437)scale(0.1 -0.1)">
       <defs>
        <path d="M 2034 4250 
Q 1547 4250 1301 3770 
Q 1056 3291 1056 2328 
Q 1056 1369 1301 889 
Q 1547 409 2034 409 
Q 2525 409 2770 889 
Q 3016 1369 3016 2328 
Q 3016 3291 2770 3770 
Q 2525 4250 2034 4250 
z
M 2034 4750 
Q 2819 4750 3233 4129 
Q 3647 3509 3647 2328 
Q 3647 1150 3233 529 
Q 2819 -91 2034 -91 
Q 1250 -91 836 529 
Q 422 1150 422 2328 
Q 422 3509 836 4129 
Q 1250 4750 2034 4750 
z
" id="DejaVuSans-30" transform="scale(0.015625)"/>
       </defs>
       <use xlink:href="#DejaVuSans-30"/>
      </g>
     </g>
    </g>
    <g id="xtick_2">
     <g id="line2d_2">
      <g>
       <use style="stroke:#000000;stroke-width:0.8;" x="139.936364" xlink:href="#mc1941c6657" y="441"/>
      </g>
     </g>
     <g id="text_2">
      <!-- 5 -->
      <g transform="translate(136.755114 455.598437)scale(0.1 -0.1)">
       <defs>
        <path d="M 691 4666 
L 3169 4666 
L 3169 4134 
L 1269 4134 
L 1269 2991 
Q 1406 3038 1543 3061 
Q 1681 3084 1819 3084 
Q 2600 3084 3056 2656 
Q 3513 2228 3513 1497 
Q 3513 744 3044 326 
Q 2575 -91 1722 -91 
Q 1428 -91 1123 -41 
Q 819 9 494 109 
L 494 744 
Q 775 591 1075 516 
Q 1375 441 1709 441 
Q 2250 441 2565 725 
Q 2881 1009 2881 1497 
Q 2881 1984 2565 2268 
Q 2250 2553 1709 2553 
Q 1456 2553 1204 2497 
Q 953 2441 691 2322 
L 691 4666 
z
" id="DejaVuSans-35" transform="scale(0.015625)"/>
       </defs>
       <use xlink:href="#DejaVuSans-35"/>
      </g>
     </g>
    </g>
    <g id="xtick_3">
     <g id="line2d_3">
      <g>
       <use style="stroke:#000000;stroke-width:0.8;" x="199.118182" xlink:href="#mc1941c6657" y="441"/>
      </g>
     </g>
     <g id="text_3">
      <!-- 10 -->
      <g transform="translate(192.755682 455.598437)scale(0.1 -0.1)">
       <defs>
        <path d="M 794 531 
L 1825 531 
L 1825 4091 
L 703 3866 
L 703 4441 
L 1819 4666 
L 2450 4666 
L 2450 531 
L 3481 531 
L 3481 0 
L 794 0 
L 794 531 
z
" id="DejaVuSans-31" transform="scale(0.015625)"/>
       </defs>
       <use xlink:href="#DejaVuSans-31"/>
       <use x="63.623047" xlink:href="#DejaVuSans-30"/>
      </g>
     </g>
    </g>
    <g id="xtick_4">
     <g id="line2d_4">
      <g>
       <use style="stroke:#000000;stroke-width:0.8;" x="258.3" xlink:href="#mc1941c6657" y="441"/>
      </g>
     </g>
     <g id="text_4">
      <!-- 15 -->
      <g transform="translate(251.9375 455.598437)scale(0.1 -0.1)">
       <use xlink:href="#DejaVuSans-31"/>
       <use x="63.623047" xlink:href="#DejaVuSans-35"/>
      </g>
     </g>
    </g>
    <g id="xtick_5">
     <g id="line2d_5">
      <g>
       <use style="stroke:#000000;stroke-width:0.8;" x="317.481818" xlink:href="#mc1941c6657" y="441"/>
      </g>
     </g>
     <g id="text_5">
      <!-- 20 -->
      <g transform="translate(311.119318 455.598437)scale(0.1 -0.1)">
       <defs>
        <path d="M 1228 531 
L 3431 531 
L 3431 0 
L 469 0 
L 469 531 
Q 828 903 1448 1529 
Q 2069 2156 2228 2338 
Q 2531 2678 2651 2914 
Q 2772 3150 2772 3378 
Q 2772 3750 2511 3984 
Q 2250 4219 1831 4219 
Q 1534 4219 1204 4116 
Q 875 4013 500 3803 
L 500 4441 
Q 881 4594 1212 4672 
Q 1544 4750 1819 4750 
Q 2544 4750 2975 4387 
Q 3406 4025 3406 3419 
Q 3406 3131 3298 2873 
Q 3191 2616 2906 2266 
Q 2828 2175 2409 1742 
Q 1991 1309 1228 531 
z
" id="DejaVuSans-32" transform="scale(0.015625)"/>
       </defs>
       <use xlink:href="#DejaVuSans-32"/>
       <use x="63.623047" xlink:href="#DejaVuSans-30"/>
      </g>
     </g>
    </g>
    <g id="xtick_6">
     <g id="line2d_6">
      <g>
       <use style="stroke:#000000;stroke-width:0.8;" x="376.663636" xlink:href="#mc1941c6657" y="441"/>
      </g>
     </g>
     <g id="text_6">
      <!-- 25 -->
      <g transform="translate(370.301136 455.598437)scale(0.1 -0.1)">
       <use xlink:href="#DejaVuSans-32"/>
       <use x="63.623047" xlink:href="#DejaVuSans-35"/>
      </g>
     </g>
    </g>
    <g id="xtick_7">
     <g id="line2d_7">
      <g>
       <use style="stroke:#000000;stroke-width:0.8;" x="435.845455" xlink:href="#mc1941c6657" y="441"/>
      </g>
     </g>
     <g id="text_7">
      <!-- 30 -->
      <g transform="translate(429.482955 455.598437)scale(0.1 -0.1)">
       <defs>
        <path d="M 2597 2516 
Q 3050 2419 3304 2112 
Q 3559 1806 3559 1356 
Q 3559 666 3084 287 
Q 2609 -91 1734 -91 
Q 1441 -91 1130 -33 
Q 819 25 488 141 
L 488 750 
Q 750 597 1062 519 
Q 1375 441 1716 441 
Q 2309 441 2620 675 
Q 2931 909 2931 1356 
Q 2931 1769 2642 2001 
Q 2353 2234 1838 2234 
L 1294 2234 
L 1294 2753 
L 1863 2753 
Q 2328 2753 2575 2939 
Q 2822 3125 2822 3475 
Q 2822 3834 2567 4026 
Q 2313 4219 1838 4219 
Q 1578 4219 1281 4162 
Q 984 4106 628 3988 
L 628 4550 
Q 988 4650 1302 4700 
Q 1616 4750 1894 4750 
Q 2613 4750 3031 4423 
Q 3450 4097 3450 3541 
Q 3450 3153 3228 2886 
Q 3006 2619 2597 2516 
z
" id="DejaVuSans-33" transform="scale(0.015625)"/>
       </defs>
       <use xlink:href="#DejaVuSans-33"/>
       <use x="63.623047" xlink:href="#DejaVuSans-30"/>
      </g>
     </g>
    </g>
    <g id="text_8">
     <!-- $\Delta$T (years) -->
     <g transform="translate(227.124 472.190125)scale(0.144 -0.144)">
      <defs>
       <path d="M 2188 4044 
L 906 525 
L 3472 525 
L 2188 4044 
z
M 50 0 
L 1831 4666 
L 2547 4666 
L 4325 0 
L 50 0 
z
" id="DejaVuSans-394" transform="scale(0.015625)"/>
       <path d="M 3703 4238 
L 3750 3244 
L 3631 3244 
Q 3597 3506 3538 3619 
Q 3441 3800 3280 3886 
Q 3119 3972 2856 3972 
L 2259 3972 
L 2259 734 
Q 2259 344 2344 247 
Q 2463 116 2709 116 
L 2856 116 
L 2856 0 
L 1059 0 
L 1059 116 
L 1209 116 
Q 1478 116 1591 278 
Q 1659 378 1659 734 
L 1659 3972 
L 1150 3972 
Q 853 3972 728 3928 
Q 566 3869 450 3700 
Q 334 3531 313 3244 
L 194 3244 
L 244 4238 
L 3703 4238 
z
" id="TimesNewRomanPSMT-54" transform="scale(0.015625)"/>
       <path id="TimesNewRomanPSMT-20" transform="scale(0.015625)"/>
       <path d="M 1988 -1253 
L 1988 -1369 
Q 1516 -1131 1200 -813 
Q 750 -359 506 256 
Q 263 872 263 1534 
Q 263 2503 741 3301 
Q 1219 4100 1988 4444 
L 1988 4313 
Q 1603 4100 1356 3731 
Q 1109 3363 987 2797 
Q 866 2231 866 1616 
Q 866 947 969 400 
Q 1050 -31 1165 -292 
Q 1281 -553 1476 -793 
Q 1672 -1034 1988 -1253 
z
" id="TimesNewRomanPSMT-28" transform="scale(0.015625)"/>
       <path d="M 38 2863 
L 1372 2863 
L 1372 2747 
L 1306 2747 
Q 1166 2747 1095 2686 
Q 1025 2625 1025 2534 
Q 1025 2413 1128 2197 
L 1825 753 
L 2466 2334 
Q 2519 2463 2519 2588 
Q 2519 2644 2497 2672 
Q 2472 2706 2419 2726 
Q 2366 2747 2231 2747 
L 2231 2863 
L 3163 2863 
L 3163 2747 
Q 3047 2734 2984 2696 
Q 2922 2659 2847 2556 
Q 2819 2513 2741 2316 
L 1575 -541 
Q 1406 -956 1132 -1168 
Q 859 -1381 606 -1381 
Q 422 -1381 303 -1275 
Q 184 -1169 184 -1031 
Q 184 -900 270 -820 
Q 356 -741 506 -741 
Q 609 -741 788 -809 
Q 913 -856 944 -856 
Q 1038 -856 1148 -759 
Q 1259 -663 1372 -384 
L 1575 113 
L 547 2272 
Q 500 2369 397 2513 
Q 319 2622 269 2659 
Q 197 2709 38 2747 
L 38 2863 
z
" id="TimesNewRomanPSMT-79" transform="scale(0.015625)"/>
       <path d="M 681 1784 
Q 678 1147 991 784 
Q 1303 422 1725 422 
Q 2006 422 2214 576 
Q 2422 731 2563 1106 
L 2659 1044 
Q 2594 616 2278 264 
Q 1963 -88 1488 -88 
Q 972 -88 605 314 
Q 238 716 238 1394 
Q 238 2128 614 2539 
Q 991 2950 1559 2950 
Q 2041 2950 2350 2633 
Q 2659 2316 2659 1784 
L 681 1784 
z
M 681 1966 
L 2006 1966 
Q 1991 2241 1941 2353 
Q 1863 2528 1708 2628 
Q 1553 2728 1384 2728 
Q 1125 2728 920 2526 
Q 716 2325 681 1966 
z
" id="TimesNewRomanPSMT-65" transform="scale(0.015625)"/>
       <path d="M 1822 413 
Q 1381 72 1269 19 
Q 1100 -59 909 -59 
Q 613 -59 420 144 
Q 228 347 228 678 
Q 228 888 322 1041 
Q 450 1253 767 1440 
Q 1084 1628 1822 1897 
L 1822 2009 
Q 1822 2438 1686 2597 
Q 1550 2756 1291 2756 
Q 1094 2756 978 2650 
Q 859 2544 859 2406 
L 866 2225 
Q 866 2081 792 2003 
Q 719 1925 600 1925 
Q 484 1925 411 2006 
Q 338 2088 338 2228 
Q 338 2497 613 2722 
Q 888 2947 1384 2947 
Q 1766 2947 2009 2819 
Q 2194 2722 2281 2516 
Q 2338 2381 2338 1966 
L 2338 994 
Q 2338 584 2353 492 
Q 2369 400 2405 369 
Q 2441 338 2488 338 
Q 2538 338 2575 359 
Q 2641 400 2828 588 
L 2828 413 
Q 2478 -56 2159 -56 
Q 2006 -56 1915 50 
Q 1825 156 1822 413 
z
M 1822 616 
L 1822 1706 
Q 1350 1519 1213 1441 
Q 966 1303 859 1153 
Q 753 1003 753 825 
Q 753 600 887 451 
Q 1022 303 1197 303 
Q 1434 303 1822 616 
z
" id="TimesNewRomanPSMT-61" transform="scale(0.015625)"/>
       <path d="M 1038 2947 
L 1038 2303 
Q 1397 2947 1775 2947 
Q 1947 2947 2059 2842 
Q 2172 2738 2172 2600 
Q 2172 2478 2090 2393 
Q 2009 2309 1897 2309 
Q 1788 2309 1652 2417 
Q 1516 2525 1450 2525 
Q 1394 2525 1328 2463 
Q 1188 2334 1038 2041 
L 1038 669 
Q 1038 431 1097 309 
Q 1138 225 1241 169 
Q 1344 113 1538 113 
L 1538 0 
L 72 0 
L 72 113 
Q 291 113 397 181 
Q 475 231 506 341 
Q 522 394 522 644 
L 522 1753 
Q 522 2253 501 2348 
Q 481 2444 426 2487 
Q 372 2531 291 2531 
Q 194 2531 72 2484 
L 41 2597 
L 906 2947 
L 1038 2947 
z
" id="TimesNewRomanPSMT-72" transform="scale(0.015625)"/>
       <path d="M 2050 2947 
L 2050 1972 
L 1947 1972 
Q 1828 2431 1642 2597 
Q 1456 2763 1169 2763 
Q 950 2763 815 2647 
Q 681 2531 681 2391 
Q 681 2216 781 2091 
Q 878 1963 1175 1819 
L 1631 1597 
Q 2266 1288 2266 781 
Q 2266 391 1970 151 
Q 1675 -88 1309 -88 
Q 1047 -88 709 6 
Q 606 38 541 38 
Q 469 38 428 -44 
L 325 -44 
L 325 978 
L 428 978 
Q 516 541 762 319 
Q 1009 97 1316 97 
Q 1531 97 1667 223 
Q 1803 350 1803 528 
Q 1803 744 1651 891 
Q 1500 1038 1047 1263 
Q 594 1488 453 1669 
Q 313 1847 313 2119 
Q 313 2472 555 2709 
Q 797 2947 1181 2947 
Q 1350 2947 1591 2875 
Q 1750 2828 1803 2828 
Q 1853 2828 1881 2850 
Q 1909 2872 1947 2947 
L 2050 2947 
z
" id="TimesNewRomanPSMT-73" transform="scale(0.015625)"/>
       <path d="M 144 4313 
L 144 4444 
Q 619 4209 934 3891 
Q 1381 3434 1625 2820 
Q 1869 2206 1869 1541 
Q 1869 572 1392 -226 
Q 916 -1025 144 -1369 
L 144 -1253 
Q 528 -1038 776 -670 
Q 1025 -303 1145 264 
Q 1266 831 1266 1447 
Q 1266 2113 1163 2663 
Q 1084 3094 967 3353 
Q 850 3613 656 3853 
Q 463 4094 144 4313 
z
" id="TimesNewRomanPSMT-29" transform="scale(0.015625)"/>
      </defs>
      <use transform="translate(0 0.09375)" xlink:href="#DejaVuSans-394"/>
      <use transform="translate(68.408203 0.09375)" xlink:href="#TimesNewRomanPSMT-54"/>
      <use transform="translate(129.492188 0.09375)" xlink:href="#TimesNewRomanPSMT-20"/>
      <use transform="translate(154.492188 0.09375)" xlink:href="#TimesNewRomanPSMT-28"/>
      <use transform="translate(187.792969 0.09375)" xlink:href="#TimesNewRomanPSMT-79"/>
      <use transform="translate(237.792969 0.09375)" xlink:href="#TimesNewRomanPSMT-65"/>
      <use transform="translate(282.177734 0.09375)" xlink:href="#TimesNewRomanPSMT-61"/>
      <use transform="translate(326.5625 0.09375)" xlink:href="#TimesNewRomanPSMT-72"/>
      <use transform="translate(359.863281 0.09375)" xlink:href="#TimesNewRomanPSMT-73"/>
      <use transform="translate(398.779297 0.09375)" xlink:href="#TimesNewRomanPSMT-29"/>
     </g>
    </g>
   </g>
   <g id="matplotlib.axis_2">
    <g id="ytick_1">
     <g id="line2d_8">
      <defs>
       <path d="M 0 0 
L -3.5 0 
" id="m2f3ff1ce6e" style="stroke:#000000;stroke-width:0.8;"/>
      </defs>
      <g>
       <use style="stroke:#000000;stroke-width:0.8;" x="63" xlink:href="#m2f3ff1ce6e" y="434.959116"/>
      </g>
     </g>
     <g id="text_9">
      <!-- 25 -->
      <g transform="translate(43.275 438.758334)scale(0.1 -0.1)">
       <use xlink:href="#DejaVuSans-32"/>
       <use x="63.623047" xlink:href="#DejaVuSans-35"/>
      </g>
     </g>
    </g>
    <g id="ytick_2">
     <g id="line2d_9">
      <g>
       <use style="stroke:#000000;stroke-width:0.8;" x="63" xlink:href="#m2f3ff1ce6e" y="383.933008"/>
      </g>
     </g>
     <g id="text_10">
      <!-- 50 -->
      <g transform="translate(43.275 387.732227)scale(0.1 -0.1)">
       <use xlink:href="#DejaVuSans-35"/>
       <use x="63.623047" xlink:href="#DejaVuSans-30"/>
      </g>
     </g>
    </g>
    <g id="ytick_3">
     <g id="line2d_10">
      <g>
       <use style="stroke:#000000;stroke-width:0.8;" x="63" xlink:href="#m2f3ff1ce6e" y="332.906901"/>
      </g>
     </g>
     <g id="text_11">
      <!-- 75 -->
      <g transform="translate(43.275 336.70612)scale(0.1 -0.1)">
       <defs>
        <path d="M 525 4666 
L 3525 4666 
L 3525 4397 
L 1831 0 
L 1172 0 
L 2766 4134 
L 525 4134 
L 525 4666 
z
" id="DejaVuSans-37" transform="scale(0.015625)"/>
       </defs>
       <use xlink:href="#DejaVuSans-37"/>
       <use x="63.623047" xlink:href="#DejaVuSans-35"/>
      </g>
     </g>
    </g>
    <g id="ytick_4">
     <g id="line2d_11">
      <g>
       <use style="stroke:#000000;stroke-width:0.8;" x="63" xlink:href="#m2f3ff1ce6e" y="281.880793"/>
      </g>
     </g>
     <g id="text_12">
      <!-- 100 -->
      <g transform="translate(36.9125 285.680012)scale(0.1 -0.1)">
       <use xlink:href="#DejaVuSans-31"/>
       <use x="63.623047" xlink:href="#DejaVuSans-30"/>
       <use x="127.246094" xlink:href="#DejaVuSans-30"/>
      </g>
     </g>
    </g>
    <g id="ytick_5">
     <g id="line2d_12">
      <g>
       <use style="stroke:#000000;stroke-width:0.8;" x="63" xlink:href="#m2f3ff1ce6e" y="230.854686"/>
      </g>
     </g>
     <g id="text_13">
      <!-- 125 -->
      <g transform="translate(36.9125 234.653905)scale(0.1 -0.1)">
       <use xlink:href="#DejaVuSans-31"/>
       <use x="63.623047" xlink:href="#DejaVuSans-32"/>
       <use x="127.246094" xlink:href="#DejaVuSans-35"/>
      </g>
     </g>
    </g>
    <g id="ytick_6">
     <g id="line2d_13">
      <g>
       <use style="stroke:#000000;stroke-width:0.8;" x="63" xlink:href="#m2f3ff1ce6e" y="179.828579"/>
      </g>
     </g>
     <g id="text_14">
      <!-- 150 -->
      <g transform="translate(36.9125 183.627797)scale(0.1 -0.1)">
       <use xlink:href="#DejaVuSans-31"/>
       <use x="63.623047" xlink:href="#DejaVuSans-35"/>
       <use x="127.246094" xlink:href="#DejaVuSans-30"/>
      </g>
     </g>
    </g>
    <g id="ytick_7">
     <g id="line2d_14">
      <g>
       <use style="stroke:#000000;stroke-width:0.8;" x="63" xlink:href="#m2f3ff1ce6e" y="128.802471"/>
      </g>
     </g>
     <g id="text_15">
      <!-- 175 -->
      <g transform="translate(36.9125 132.60169)scale(0.1 -0.1)">
       <use xlink:href="#DejaVuSans-31"/>
       <use x="63.623047" xlink:href="#DejaVuSans-37"/>
       <use x="127.246094" xlink:href="#DejaVuSans-35"/>
      </g>
     </g>
    </g>
    <g id="ytick_8">
     <g id="line2d_15">
      <g>
       <use style="stroke:#000000;stroke-width:0.8;" x="63" xlink:href="#m2f3ff1ce6e" y="77.776364"/>
      </g>
     </g>
     <g id="text_16">
      <!-- 200 -->
      <g transform="translate(36.9125 81.575582)scale(0.1 -0.1)">
       <use xlink:href="#DejaVuSans-32"/>
       <use x="63.623047" xlink:href="#DejaVuSans-30"/>
       <use x="127.246094" xlink:href="#DejaVuSans-30"/>
      </g>
     </g>
    </g>
    <g id="text_17">
     <!-- Return period -->
     <g transform="translate(29.83225 290.530125)rotate(-90)scale(0.144 -0.144)">
      <defs>
       <path d="M 4325 0 
L 3194 0 
L 1759 1981 
Q 1600 1975 1500 1975 
Q 1459 1975 1412 1976 
Q 1366 1978 1316 1981 
L 1316 750 
Q 1316 350 1403 253 
Q 1522 116 1759 116 
L 1925 116 
L 1925 0 
L 109 0 
L 109 116 
L 269 116 
Q 538 116 653 291 
Q 719 388 719 750 
L 719 3488 
Q 719 3888 631 3984 
Q 509 4122 269 4122 
L 109 4122 
L 109 4238 
L 1653 4238 
Q 2328 4238 2648 4139 
Q 2969 4041 3192 3777 
Q 3416 3513 3416 3147 
Q 3416 2756 3161 2468 
Q 2906 2181 2372 2063 
L 3247 847 
Q 3547 428 3762 290 
Q 3978 153 4325 116 
L 4325 0 
z
M 1316 2178 
Q 1375 2178 1419 2176 
Q 1463 2175 1491 2175 
Q 2097 2175 2405 2437 
Q 2713 2700 2713 3106 
Q 2713 3503 2464 3751 
Q 2216 4000 1806 4000 
Q 1625 4000 1316 3941 
L 1316 2178 
z
" id="TimesNewRomanPSMT-52" transform="scale(0.015625)"/>
       <path d="M 1031 3803 
L 1031 2863 
L 1700 2863 
L 1700 2644 
L 1031 2644 
L 1031 788 
Q 1031 509 1111 412 
Q 1191 316 1316 316 
Q 1419 316 1516 380 
Q 1613 444 1666 569 
L 1788 569 
Q 1678 263 1478 108 
Q 1278 -47 1066 -47 
Q 922 -47 784 33 
Q 647 113 581 261 
Q 516 409 516 719 
L 516 2644 
L 63 2644 
L 63 2747 
Q 234 2816 414 2980 
Q 594 3144 734 3369 
Q 806 3488 934 3803 
L 1031 3803 
z
" id="TimesNewRomanPSMT-74" transform="scale(0.015625)"/>
       <path d="M 2709 2863 
L 2709 1128 
Q 2709 631 2732 520 
Q 2756 409 2807 365 
Q 2859 322 2928 322 
Q 3025 322 3147 375 
L 3191 266 
L 2334 -88 
L 2194 -88 
L 2194 519 
Q 1825 119 1631 15 
Q 1438 -88 1222 -88 
Q 981 -88 804 51 
Q 628 191 559 409 
Q 491 628 491 1028 
L 491 2306 
Q 491 2509 447 2587 
Q 403 2666 317 2708 
Q 231 2750 6 2747 
L 6 2863 
L 1009 2863 
L 1009 947 
Q 1009 547 1148 422 
Q 1288 297 1484 297 
Q 1619 297 1789 381 
Q 1959 466 2194 703 
L 2194 2325 
Q 2194 2569 2105 2655 
Q 2016 2741 1734 2747 
L 1734 2863 
L 2709 2863 
z
" id="TimesNewRomanPSMT-75" transform="scale(0.015625)"/>
       <path d="M 1034 2341 
Q 1538 2947 1994 2947 
Q 2228 2947 2397 2830 
Q 2566 2713 2666 2444 
Q 2734 2256 2734 1869 
L 2734 647 
Q 2734 375 2778 278 
Q 2813 200 2889 156 
Q 2966 113 3172 113 
L 3172 0 
L 1756 0 
L 1756 113 
L 1816 113 
Q 2016 113 2095 173 
Q 2175 234 2206 353 
Q 2219 400 2219 647 
L 2219 1819 
Q 2219 2209 2117 2386 
Q 2016 2563 1775 2563 
Q 1403 2563 1034 2156 
L 1034 647 
Q 1034 356 1069 288 
Q 1113 197 1189 155 
Q 1266 113 1500 113 
L 1500 0 
L 84 0 
L 84 113 
L 147 113 
Q 366 113 442 223 
Q 519 334 519 647 
L 519 1709 
Q 519 2225 495 2337 
Q 472 2450 423 2490 
Q 375 2531 294 2531 
Q 206 2531 84 2484 
L 38 2597 
L 900 2947 
L 1034 2947 
L 1034 2341 
z
" id="TimesNewRomanPSMT-6e" transform="scale(0.015625)"/>
       <path d="M -6 2578 
L 875 2934 
L 994 2934 
L 994 2266 
Q 1216 2644 1439 2795 
Q 1663 2947 1909 2947 
Q 2341 2947 2628 2609 
Q 2981 2197 2981 1534 
Q 2981 794 2556 309 
Q 2206 -88 1675 -88 
Q 1444 -88 1275 -22 
Q 1150 25 994 166 
L 994 -706 
Q 994 -1000 1030 -1079 
Q 1066 -1159 1155 -1206 
Q 1244 -1253 1478 -1253 
L 1478 -1369 
L -22 -1369 
L -22 -1253 
L 56 -1253 
Q 228 -1256 350 -1188 
Q 409 -1153 442 -1076 
Q 475 -1000 475 -688 
L 475 2019 
Q 475 2297 450 2372 
Q 425 2447 370 2484 
Q 316 2522 222 2522 
Q 147 2522 31 2478 
L -6 2578 
z
M 994 2081 
L 994 1013 
Q 994 666 1022 556 
Q 1066 375 1236 237 
Q 1406 100 1666 100 
Q 1978 100 2172 344 
Q 2425 663 2425 1241 
Q 2425 1897 2138 2250 
Q 1938 2494 1663 2494 
Q 1513 2494 1366 2419 
Q 1253 2363 994 2081 
z
" id="TimesNewRomanPSMT-70" transform="scale(0.015625)"/>
       <path d="M 928 4444 
Q 1059 4444 1151 4351 
Q 1244 4259 1244 4128 
Q 1244 3997 1151 3903 
Q 1059 3809 928 3809 
Q 797 3809 703 3903 
Q 609 3997 609 4128 
Q 609 4259 701 4351 
Q 794 4444 928 4444 
z
M 1188 2947 
L 1188 647 
Q 1188 378 1227 289 
Q 1266 200 1342 156 
Q 1419 113 1622 113 
L 1622 0 
L 231 0 
L 231 113 
Q 441 113 512 153 
Q 584 194 626 287 
Q 669 381 669 647 
L 669 1750 
Q 669 2216 641 2353 
Q 619 2453 572 2492 
Q 525 2531 444 2531 
Q 356 2531 231 2484 
L 188 2597 
L 1050 2947 
L 1188 2947 
z
" id="TimesNewRomanPSMT-69" transform="scale(0.015625)"/>
       <path d="M 1600 2947 
Q 2250 2947 2644 2453 
Q 2978 2031 2978 1484 
Q 2978 1100 2793 706 
Q 2609 313 2286 112 
Q 1963 -88 1566 -88 
Q 919 -88 538 428 
Q 216 863 216 1403 
Q 216 1797 411 2186 
Q 606 2575 925 2761 
Q 1244 2947 1600 2947 
z
M 1503 2744 
Q 1338 2744 1170 2645 
Q 1003 2547 900 2300 
Q 797 2053 797 1666 
Q 797 1041 1045 587 
Q 1294 134 1700 134 
Q 2003 134 2200 384 
Q 2397 634 2397 1244 
Q 2397 2006 2069 2444 
Q 1847 2744 1503 2744 
z
" id="TimesNewRomanPSMT-6f" transform="scale(0.015625)"/>
       <path d="M 2222 322 
Q 2013 103 1813 7 
Q 1613 -88 1381 -88 
Q 913 -88 563 304 
Q 213 697 213 1313 
Q 213 1928 600 2439 
Q 988 2950 1597 2950 
Q 1975 2950 2222 2709 
L 2222 3238 
Q 2222 3728 2198 3840 
Q 2175 3953 2125 3993 
Q 2075 4034 2000 4034 
Q 1919 4034 1784 3984 
L 1744 4094 
L 2597 4444 
L 2738 4444 
L 2738 1134 
Q 2738 631 2761 520 
Q 2784 409 2836 365 
Q 2888 322 2956 322 
Q 3041 322 3181 375 
L 3216 266 
L 2366 -88 
L 2222 -88 
L 2222 322 
z
M 2222 541 
L 2222 2016 
Q 2203 2228 2109 2403 
Q 2016 2578 1861 2667 
Q 1706 2756 1559 2756 
Q 1284 2756 1069 2509 
Q 784 2184 784 1559 
Q 784 928 1059 592 
Q 1334 256 1672 256 
Q 1956 256 2222 541 
z
" id="TimesNewRomanPSMT-64" transform="scale(0.015625)"/>
      </defs>
      <use xlink:href="#TimesNewRomanPSMT-52"/>
      <use x="66.699219" xlink:href="#TimesNewRomanPSMT-65"/>
      <use x="111.083984" xlink:href="#TimesNewRomanPSMT-74"/>
      <use x="138.867188" xlink:href="#TimesNewRomanPSMT-75"/>
      <use x="188.867188" xlink:href="#TimesNewRomanPSMT-72"/>
      <use x="222.167969" xlink:href="#TimesNewRomanPSMT-6e"/>
      <use x="272.167969" xlink:href="#TimesNewRomanPSMT-20"/>
      <use x="297.167969" xlink:href="#TimesNewRomanPSMT-70"/>
      <use x="347.167969" xlink:href="#TimesNewRomanPSMT-65"/>
      <use x="391.552734" xlink:href="#TimesNewRomanPSMT-72"/>
      <use x="424.853516" xlink:href="#TimesNewRomanPSMT-69"/>
      <use x="452.636719" xlink:href="#TimesNewRomanPSMT-6f"/>
      <use x="502.636719" xlink:href="#TimesNewRomanPSMT-64"/>
     </g>
    </g>
   </g>
   <g id="line2d_16">
    <path clip-path="url(#p9c7ad3d574)" d="M 80.754545 281.880793 
L 92.590909 289.350616 
L 104.427273 296.513437 
L 116.263636 303.382961 
L 128.1 309.972238 
L 139.936364 316.293696 
L 151.772727 322.359175 
L 163.609091 328.179956 
L 175.445455 333.766785 
L 187.281818 339.129905 
L 199.118182 344.279078 
L 210.954545 349.22361 
L 222.790909 353.972373 
L 234.627273 358.533826 
L 246.463636 362.916038 
L 258.3 367.126702 
L 270.136364 371.17316 
L 281.972727 375.062414 
L 293.809091 378.801147 
L 305.645455 382.395736 
L 317.481818 385.852268 
L 329.318182 389.176554 
L 341.154545 392.374142 
L 352.990909 395.450328 
L 364.827273 398.410171 
L 376.663636 401.258504 
L 388.5 403.999942 
L 400.336364 406.638896 
L 412.172727 409.179578 
L 424.009091 411.626017 
L 435.845455 413.982061 
" style="fill:none;stroke:#0000ff;stroke-linecap:square;stroke-width:0.75;"/>
   </g>
   <g id="line2d_17">
    <path clip-path="url(#p9c7ad3d574)" d="M 80.754545 77.776364 
L 92.590909 93.963961 
L 104.427273 109.441997 
L 116.263636 124.243979 
L 128.1 138.401734 
L 139.936364 151.945497 
L 151.772727 164.903992 
L 163.609091 177.304514 
L 175.445455 189.173005 
L 187.281818 200.534121 
L 199.118182 211.411301 
L 210.954545 221.826834 
L 222.790909 231.801913 
L 234.627273 241.356692 
L 246.463636 250.510347 
L 258.3 259.281116 
L 270.136364 267.686354 
L 281.972727 275.742579 
L 293.809091 283.465509 
L 305.645455 290.870107 
L 317.481818 297.970619 
L 329.318182 304.78061 
L 341.154545 311.312997 
L 352.990909 317.580083 
L 364.827273 323.59359 
L 376.663636 329.364684 
L 388.5 334.904004 
L 400.336364 340.221691 
L 412.172727 345.327409 
L 424.009091 350.230373 
L 435.845455 354.939367 
" style="fill:none;stroke:#0000ff;stroke-linecap:square;stroke-width:0.75;"/>
   </g>
   <g id="line2d_18"/>
   <g id="line2d_19">
    <path clip-path="url(#p9c7ad3d574)" d="M 80.754545 281.880793 
L 92.590909 290.46201 
L 104.427273 298.638299 
L 116.263636 306.430405 
L 128.1 313.857936 
L 139.936364 320.939429 
L 151.772727 327.692417 
L 163.609091 334.133478 
L 175.445455 340.278299 
L 187.281818 346.14172 
L 199.118182 351.737786 
L 210.954545 357.079791 
L 222.790909 362.180321 
L 234.627273 367.051291 
L 246.463636 371.703989 
L 258.3 376.149106 
L 270.136364 380.396769 
L 281.972727 384.456578 
L 293.809091 388.337628 
L 305.645455 392.048544 
L 317.481818 395.597501 
L 329.318182 398.992254 
L 341.154545 402.240156 
L 352.990909 405.348183 
L 364.827273 408.322956 
L 376.663636 411.170756 
L 388.5 413.897547 
L 400.336364 416.508988 
L 412.172727 419.010457 
L 424.009091 421.407056 
L 435.845455 423.703636 
" style="fill:none;stroke:#ff0000;stroke-linecap:square;stroke-width:0.75;"/>
   </g>
   <g id="line2d_20">
    <path clip-path="url(#p9c7ad3d574)" d="M 80.754545 77.776364 
L 92.590909 96.368439 
L 104.427273 114.025 
L 116.263636 130.796738 
L 128.1 146.731429 
L 139.936364 161.874104 
L 151.772727 176.267221 
L 163.609091 189.950815 
L 175.445455 202.962649 
L 187.281818 215.338344 
L 199.118182 227.111511 
L 210.954545 238.31387 
L 222.790909 248.975362 
L 234.627273 259.124253 
L 246.463636 268.787234 
L 258.3 277.989516 
L 270.136364 286.75491 
L 281.972727 295.105918 
L 293.809091 303.063801 
L 305.645455 310.648656 
L 317.481818 317.879484 
L 329.318182 324.774247 
L 341.154545 331.349936 
L 352.990909 337.622623 
L 364.827273 343.60751 
L 376.663636 349.318987 
L 388.5 354.77067 
L 400.336364 359.97545 
L 412.172727 364.945532 
L 424.009091 369.692474 
L 435.845455 374.227223 
" style="fill:none;stroke:#ff0000;stroke-linecap:square;stroke-width:0.75;"/>
   </g>
   <g id="line2d_21"/>
   <g id="line2d_22">
    <path clip-path="url(#p9c7ad3d574)" d="M 80.754545 281.880793 
L 92.590909 287.807021 
L 104.427273 293.539869 
L 116.263636 299.086196 
L 128.1 304.452599 
L 139.936364 309.645426 
L 151.772727 314.670786 
L 163.609091 319.534558 
L 175.445455 324.242397 
L 187.281818 328.799751 
L 199.118182 333.21186 
L 210.954545 337.48377 
L 222.790909 341.62034 
L 234.627273 345.626248 
L 246.463636 349.505998 
L 258.3 353.263928 
L 270.136364 356.904215 
L 281.972727 360.430885 
L 293.809091 363.847812 
L 305.645455 367.158732 
L 317.481818 370.367243 
L 329.318182 373.47681 
L 341.154545 376.490776 
L 352.990909 379.412359 
L 364.827273 382.244661 
L 376.663636 384.990675 
L 388.5 387.653282 
L 400.336364 390.235262 
L 412.172727 392.739295 
L 424.009091 395.167965 
L 435.845455 397.523762 
" style="fill:none;stroke:#008000;stroke-linecap:square;stroke-width:0.75;"/>
   </g>
   <g id="line2d_23">
    <path clip-path="url(#p9c7ad3d574)" d="M 80.754545 77.776364 
L 92.590909 90.622695 
L 104.427273 103.021824 
L 116.263636 114.990533 
L 128.1 126.544935 
L 139.936364 137.7005 
L 151.772727 148.472085 
L 163.609091 158.873957 
L 175.445455 168.919819 
L 187.281818 178.622834 
L 199.118182 187.995646 
L 210.954545 197.050403 
L 222.790909 205.798775 
L 234.627273 214.251977 
L 246.463636 222.420788 
L 258.3 230.315564 
L 270.136364 237.946261 
L 281.972727 245.322449 
L 293.809091 252.453327 
L 305.645455 259.34774 
L 317.481818 266.014192 
L 329.318182 272.460861 
L 341.154545 278.695611 
L 352.990909 284.726005 
L 364.827273 290.55932 
L 376.663636 296.202552 
L 388.5 301.662435 
L 400.336364 306.945446 
L 412.172727 312.057818 
L 424.009091 317.005549 
L 435.845455 321.794411 
" style="fill:none;stroke:#008000;stroke-linecap:square;stroke-width:0.75;"/>
   </g>
   <g id="line2d_24"/>
   <g id="line2d_25">
    <path clip-path="url(#p9c7ad3d574)" d="M 80.754545 281.880793 
L 92.590909 287.647081 
L 104.427273 293.230272 
L 116.263636 298.636685 
L 128.1 303.872406 
L 139.936364 308.943297 
L 151.772727 313.855003 
L 163.609091 318.612963 
L 175.445455 323.222417 
L 187.281818 327.688415 
L 199.118182 332.015822 
L 210.954545 336.209325 
L 222.790909 340.273443 
L 234.627273 344.212531 
L 246.463636 348.030787 
L 258.3 351.732257 
L 270.136364 355.320843 
L 281.972727 358.800306 
L 293.809091 362.174272 
L 305.645455 365.44624 
L 317.481818 368.619582 
L 329.318182 371.697551 
L 341.154545 374.683285 
L 352.990909 377.579812 
L 364.827273 380.39005 
L 376.663636 383.116818 
L 388.5 385.762834 
L 400.336364 388.33072 
L 412.172727 390.823009 
L 424.009091 393.242144 
L 435.845455 395.590481 
" style="fill:none;stroke:#ff00ff;stroke-linecap:square;stroke-width:0.75;"/>
   </g>
   <g id="line2d_26">
    <path clip-path="url(#p9c7ad3d574)" d="M 80.754545 77.776364 
L 92.590909 90.276375 
L 104.427273 102.352939 
L 116.263636 114.02152 
L 128.1 125.296981 
L 139.936364 136.193612 
L 151.772727 146.725146 
L 163.609091 156.90479 
L 175.445455 166.74524 
L 187.281818 176.258706 
L 199.118182 185.456929 
L 210.954545 194.351201 
L 222.790909 202.952384 
L 234.627273 211.270924 
L 246.463636 219.316872 
L 258.3 227.099898 
L 270.136364 234.629306 
L 281.972727 241.914048 
L 293.809091 248.96274 
L 305.645455 255.783672 
L 317.481818 262.384827 
L 329.318182 268.773885 
L 341.154545 274.958242 
L 352.990909 280.945018 
L 364.827273 286.741068 
L 376.663636 292.352993 
L 388.5 297.787149 
L 400.336364 303.04966 
L 412.172727 308.14642 
L 424.009091 313.083111 
L 435.845455 317.865204 
" style="fill:none;stroke:#ff00ff;stroke-linecap:square;stroke-width:0.75;"/>
   </g>
   <g id="line2d_27"/>
   <g id="patch_3">
    <path d="M 63 441 
L 63 60.48 
" style="fill:none;stroke:#000000;stroke-linecap:square;stroke-linejoin:miter;stroke-width:0.8;"/>
   </g>
   <g id="patch_4">
    <path d="M 453.6 441 
L 453.6 60.48 
" style="fill:none;stroke:#000000;stroke-linecap:square;stroke-linejoin:miter;stroke-width:0.8;"/>
   </g>
   <g id="patch_5">
    <path d="M 63 441 
L 453.6 441 
" style="fill:none;stroke:#000000;stroke-linecap:square;stroke-linejoin:miter;stroke-width:0.8;"/>
   </g>
   <g id="patch_6">
    <path d="M 63 60.48 
L 453.6 60.48 
" style="fill:none;stroke:#000000;stroke-linecap:square;stroke-linejoin:miter;stroke-width:0.8;"/>
   </g>
   <g id="text_18">
    <!-- Return Period Reduction -->
    <g transform="translate(172.39275 54.48)scale(0.1728 -0.1728)">
     <defs>
      <path d="M 1313 1984 
L 1313 750 
Q 1313 350 1400 253 
Q 1519 116 1759 116 
L 1922 116 
L 1922 0 
L 106 0 
L 106 116 
L 266 116 
Q 534 116 650 291 
Q 713 388 713 750 
L 713 3488 
Q 713 3888 628 3984 
Q 506 4122 266 4122 
L 106 4122 
L 106 4238 
L 1659 4238 
Q 2228 4238 2556 4120 
Q 2884 4003 3109 3725 
Q 3334 3447 3334 3066 
Q 3334 2547 2992 2222 
Q 2650 1897 2025 1897 
Q 1872 1897 1694 1919 
Q 1516 1941 1313 1984 
z
M 1313 2163 
Q 1478 2131 1606 2115 
Q 1734 2100 1825 2100 
Q 2150 2100 2386 2351 
Q 2622 2603 2622 3003 
Q 2622 3278 2509 3514 
Q 2397 3750 2190 3867 
Q 1984 3984 1722 3984 
Q 1563 3984 1313 3925 
L 1313 2163 
z
" id="TimesNewRomanPSMT-50" transform="scale(0.015625)"/>
      <path d="M 2631 1088 
Q 2516 522 2178 217 
Q 1841 -88 1431 -88 
Q 944 -88 581 321 
Q 219 731 219 1428 
Q 219 2103 620 2525 
Q 1022 2947 1584 2947 
Q 2006 2947 2278 2723 
Q 2550 2500 2550 2259 
Q 2550 2141 2473 2067 
Q 2397 1994 2259 1994 
Q 2075 1994 1981 2113 
Q 1928 2178 1911 2362 
Q 1894 2547 1784 2644 
Q 1675 2738 1481 2738 
Q 1169 2738 978 2506 
Q 725 2200 725 1697 
Q 725 1184 976 792 
Q 1228 400 1656 400 
Q 1963 400 2206 609 
Q 2378 753 2541 1131 
L 2631 1088 
z
" id="TimesNewRomanPSMT-63" transform="scale(0.015625)"/>
     </defs>
     <use xlink:href="#TimesNewRomanPSMT-52"/>
     <use x="66.699219" xlink:href="#TimesNewRomanPSMT-65"/>
     <use x="111.083984" xlink:href="#TimesNewRomanPSMT-74"/>
     <use x="138.867188" xlink:href="#TimesNewRomanPSMT-75"/>
     <use x="188.867188" xlink:href="#TimesNewRomanPSMT-72"/>
     <use x="222.167969" xlink:href="#TimesNewRomanPSMT-6e"/>
     <use x="272.167969" xlink:href="#TimesNewRomanPSMT-20"/>
     <use x="297.167969" xlink:href="#TimesNewRomanPSMT-50"/>
     <use x="352.783203" xlink:href="#TimesNewRomanPSMT-65"/>
     <use x="397.167969" xlink:href="#TimesNewRomanPSMT-72"/>
     <use x="430.46875" xlink:href="#TimesNewRomanPSMT-69"/>
     <use x="458.251953" xlink:href="#TimesNewRomanPSMT-6f"/>
     <use x="508.251953" xlink:href="#TimesNewRomanPSMT-64"/>
     <use x="558.251953" xlink:href="#TimesNewRomanPSMT-20"/>
     <use x="583.251953" xlink:href="#TimesNewRomanPSMT-52"/>
     <use x="649.951172" xlink:href="#TimesNewRomanPSMT-65"/>
     <use x="694.335938" xlink:href="#TimesNewRomanPSMT-64"/>
     <use x="744.335938" xlink:href="#TimesNewRomanPSMT-75"/>
     <use x="794.335938" xlink:href="#TimesNewRomanPSMT-63"/>
     <use x="838.720703" xlink:href="#TimesNewRomanPSMT-74"/>
     <use x="866.503906" xlink:href="#TimesNewRomanPSMT-69"/>
     <use x="894.287109" xlink:href="#TimesNewRomanPSMT-6f"/>
     <use x="944.287109" xlink:href="#TimesNewRomanPSMT-6e"/>
    </g>
   </g>
   <g id="legend_1">
    <g id="patch_7">
     <path d="M 369.507812 127.1925 
L 446.6 127.1925 
Q 448.6 127.1925 448.6 125.1925 
L 448.6 67.48 
Q 448.6 65.48 446.6 65.48 
L 369.507812 65.48 
Q 367.507812 65.48 367.507812 67.48 
L 367.507812 125.1925 
Q 367.507812 127.1925 369.507812 127.1925 
z
" style="fill:#ffffff;opacity:0.8;stroke:#cccccc;stroke-linejoin:miter;"/>
    </g>
    <g id="line2d_28">
     <path d="M 371.507812 73.578438 
L 391.507812 73.578438 
" style="fill:none;stroke:#0000ff;stroke-linecap:square;stroke-width:1.5;"/>
    </g>
    <g id="line2d_29"/>
    <g id="text_19">
     <!-- Station 1 -->
     <g transform="translate(399.507812 77.078438)scale(0.1 -0.1)">
      <defs>
       <path d="M 3425 4513 
L 3425 3897 
Q 3066 4069 2747 4153 
Q 2428 4238 2131 4238 
Q 1616 4238 1336 4038 
Q 1056 3838 1056 3469 
Q 1056 3159 1242 3001 
Q 1428 2844 1947 2747 
L 2328 2669 
Q 3034 2534 3370 2195 
Q 3706 1856 3706 1288 
Q 3706 609 3251 259 
Q 2797 -91 1919 -91 
Q 1588 -91 1214 -16 
Q 841 59 441 206 
L 441 856 
Q 825 641 1194 531 
Q 1563 422 1919 422 
Q 2459 422 2753 634 
Q 3047 847 3047 1241 
Q 3047 1584 2836 1778 
Q 2625 1972 2144 2069 
L 1759 2144 
Q 1053 2284 737 2584 
Q 422 2884 422 3419 
Q 422 4038 858 4394 
Q 1294 4750 2059 4750 
Q 2388 4750 2728 4690 
Q 3069 4631 3425 4513 
z
" id="DejaVuSans-53" transform="scale(0.015625)"/>
       <path d="M 1172 4494 
L 1172 3500 
L 2356 3500 
L 2356 3053 
L 1172 3053 
L 1172 1153 
Q 1172 725 1289 603 
Q 1406 481 1766 481 
L 2356 481 
L 2356 0 
L 1766 0 
Q 1100 0 847 248 
Q 594 497 594 1153 
L 594 3053 
L 172 3053 
L 172 3500 
L 594 3500 
L 594 4494 
L 1172 4494 
z
" id="DejaVuSans-74" transform="scale(0.015625)"/>
       <path d="M 2194 1759 
Q 1497 1759 1228 1600 
Q 959 1441 959 1056 
Q 959 750 1161 570 
Q 1363 391 1709 391 
Q 2188 391 2477 730 
Q 2766 1069 2766 1631 
L 2766 1759 
L 2194 1759 
z
M 3341 1997 
L 3341 0 
L 2766 0 
L 2766 531 
Q 2569 213 2275 61 
Q 1981 -91 1556 -91 
Q 1019 -91 701 211 
Q 384 513 384 1019 
Q 384 1609 779 1909 
Q 1175 2209 1959 2209 
L 2766 2209 
L 2766 2266 
Q 2766 2663 2505 2880 
Q 2244 3097 1772 3097 
Q 1472 3097 1187 3025 
Q 903 2953 641 2809 
L 641 3341 
Q 956 3463 1253 3523 
Q 1550 3584 1831 3584 
Q 2591 3584 2966 3190 
Q 3341 2797 3341 1997 
z
" id="DejaVuSans-61" transform="scale(0.015625)"/>
       <path d="M 603 3500 
L 1178 3500 
L 1178 0 
L 603 0 
L 603 3500 
z
M 603 4863 
L 1178 4863 
L 1178 4134 
L 603 4134 
L 603 4863 
z
" id="DejaVuSans-69" transform="scale(0.015625)"/>
       <path d="M 1959 3097 
Q 1497 3097 1228 2736 
Q 959 2375 959 1747 
Q 959 1119 1226 758 
Q 1494 397 1959 397 
Q 2419 397 2687 759 
Q 2956 1122 2956 1747 
Q 2956 2369 2687 2733 
Q 2419 3097 1959 3097 
z
M 1959 3584 
Q 2709 3584 3137 3096 
Q 3566 2609 3566 1747 
Q 3566 888 3137 398 
Q 2709 -91 1959 -91 
Q 1206 -91 779 398 
Q 353 888 353 1747 
Q 353 2609 779 3096 
Q 1206 3584 1959 3584 
z
" id="DejaVuSans-6f" transform="scale(0.015625)"/>
       <path d="M 3513 2113 
L 3513 0 
L 2938 0 
L 2938 2094 
Q 2938 2591 2744 2837 
Q 2550 3084 2163 3084 
Q 1697 3084 1428 2787 
Q 1159 2491 1159 1978 
L 1159 0 
L 581 0 
L 581 3500 
L 1159 3500 
L 1159 2956 
Q 1366 3272 1645 3428 
Q 1925 3584 2291 3584 
Q 2894 3584 3203 3211 
Q 3513 2838 3513 2113 
z
" id="DejaVuSans-6e" transform="scale(0.015625)"/>
       <path id="DejaVuSans-20" transform="scale(0.015625)"/>
      </defs>
      <use xlink:href="#DejaVuSans-53"/>
      <use x="63.476562" xlink:href="#DejaVuSans-74"/>
      <use x="102.685547" xlink:href="#DejaVuSans-61"/>
      <use x="163.964844" xlink:href="#DejaVuSans-74"/>
      <use x="203.173828" xlink:href="#DejaVuSans-69"/>
      <use x="230.957031" xlink:href="#DejaVuSans-6f"/>
      <use x="292.138672" xlink:href="#DejaVuSans-6e"/>
      <use x="355.517578" xlink:href="#DejaVuSans-20"/>
      <use x="387.304688" xlink:href="#DejaVuSans-31"/>
     </g>
    </g>
    <g id="line2d_30">
     <path d="M 371.507812 88.256563 
L 391.507812 88.256563 
" style="fill:none;stroke:#ff0000;stroke-linecap:square;stroke-width:1.5;"/>
    </g>
    <g id="line2d_31"/>
    <g id="text_20">
     <!-- Station 2 -->
     <g transform="translate(399.507812 91.756563)scale(0.1 -0.1)">
      <use xlink:href="#DejaVuSans-53"/>
      <use x="63.476562" xlink:href="#DejaVuSans-74"/>
      <use x="102.685547" xlink:href="#DejaVuSans-61"/>
      <use x="163.964844" xlink:href="#DejaVuSans-74"/>
      <use x="203.173828" xlink:href="#DejaVuSans-69"/>
      <use x="230.957031" xlink:href="#DejaVuSans-6f"/>
      <use x="292.138672" xlink:href="#DejaVuSans-6e"/>
      <use x="355.517578" xlink:href="#DejaVuSans-20"/>
      <use x="387.304688" xlink:href="#DejaVuSans-32"/>
     </g>
    </g>
    <g id="line2d_32">
     <path d="M 371.507812 102.934687 
L 391.507812 102.934687 
" style="fill:none;stroke:#008000;stroke-linecap:square;stroke-width:1.5;"/>
    </g>
    <g id="line2d_33"/>
    <g id="text_21">
     <!-- Station 3 -->
     <g transform="translate(399.507812 106.434687)scale(0.1 -0.1)">
      <use xlink:href="#DejaVuSans-53"/>
      <use x="63.476562" xlink:href="#DejaVuSans-74"/>
      <use x="102.685547" xlink:href="#DejaVuSans-61"/>
      <use x="163.964844" xlink:href="#DejaVuSans-74"/>
      <use x="203.173828" xlink:href="#DejaVuSans-69"/>
      <use x="230.957031" xlink:href="#DejaVuSans-6f"/>
      <use x="292.138672" xlink:href="#DejaVuSans-6e"/>
      <use x="355.517578" xlink:href="#DejaVuSans-20"/>
      <use x="387.304688" xlink:href="#DejaVuSans-33"/>
     </g>
    </g>
    <g id="line2d_34">
     <path d="M 371.507812 117.612813 
L 391.507812 117.612813 
" style="fill:none;stroke:#ff00ff;stroke-linecap:square;stroke-width:1.5;"/>
    </g>
    <g id="line2d_35"/>
    <g id="text_22">
     <!-- Station 4 -->
     <g transform="translate(399.507812 121.112813)scale(0.1 -0.1)">
      <defs>
       <path d="M 2419 4116 
L 825 1625 
L 2419 1625 
L 2419 4116 
z
M 2253 4666 
L 3047 4666 
L 3047 1625 
L 3713 1625 
L 3713 1100 
L 3047 1100 
L 3047 0 
L 2419 0 
L 2419 1100 
L 313 1100 
L 313 1709 
L 2253 4666 
z
" id="DejaVuSans-34" transform="scale(0.015625)"/>
      </defs>
      <use xlink:href="#DejaVuSans-53"/>
      <use x="63.476562" xlink:href="#DejaVuSans-74"/>
      <use x="102.685547" xlink:href="#DejaVuSans-61"/>
      <use x="163.964844" xlink:href="#DejaVuSans-74"/>
      <use x="203.173828" xlink:href="#DejaVuSans-69"/>
      <use x="230.957031" xlink:href="#DejaVuSans-6f"/>
      <use x="292.138672" xlink:href="#DejaVuSans-6e"/>
      <use x="355.517578" xlink:href="#DejaVuSans-20"/>
      <use x="387.304688" xlink:href="#DejaVuSans-34"/>
     </g>
    </g>
   </g>
  </g>
 </g>
 <defs>
  <clipPath id="p9c7ad3d574">
   <rect height="380.52" width="390.6" x="63" y="60.48"/>
  </clipPath>
 </defs>
</svg>
