<?xml version="1.0" encoding="utf-8" standalone="no"?>
<!DOCTYPE svg PUBLIC "-//W3C//DTD SVG 1.1//EN"
  "http://www.w3.org/Graphics/SVG/1.1/DTD/svg11.dtd">
<svg height="288pt" version="1.1" viewBox="0 0 432 288" width="432pt" xmlns="http://www.w3.org/2000/svg" xmlns:xlink="http://www.w3.org/1999/xlink">
 <metadata>
  <rdf:RDF xmlns:cc="http://creativecommons.org/ns#" xmlns:dc="http://purl.org/dc/elements/1.1/" xmlns:rdf="http://www.w3.org/1999/02/22-rdf-syntax-ns#">
   <cc:Work>
    <dc:type rdf:resource="http://purl.org/dc/dcmitype/StillImage"/>
    <dc:date>2022-03-09T16:33:18.761361</dc:date>
    <dc:format>image/svg+xml</dc:format>
    <dc:creator>
     <cc:Agent>
      <dc:title>Matplotlib v3.4.3, https://matplotlib.org/</dc:title>
     </cc:Agent>
    </dc:creator>
   </cc:Work>
  </rdf:RDF>
 </metadata>
 <defs>
  <style type="text/css">*{stroke-linecap:butt;stroke-linejoin:round;}</style>
 </defs>
 <g id="figure_1">
  <g id="patch_1">
   <path d="M 0 288 
L 432 288 
L 432 0 
L 0 0 
z
" style="fill:none;"/>
  </g>
  <g id="axes_1">
   <g id="patch_2">
    <path d="M 54 252 
L 388.8 252 
L 388.8 34.56 
L 54 34.56 
z
" style="fill:#ffffff;"/>
   </g>
   <g id="matplotlib.axis_1">
    <g id="xtick_1">
     <g id="line2d_1">
      <defs>
       <path d="M 0 0 
L 0 3.5 
" id="meb3206df82" style="stroke:#000000;stroke-width:0.8;"/>
      </defs>
      <g>
       <use style="stroke:#000000;stroke-width:0.8;" x="55.977838" xlink:href="#meb3206df82" y="252"/>
      </g>
     </g>
     <g id="text_1">
      <!-- 0 -->
      <g transform="translate(52.796588 266.598437)scale(0.1 -0.1)">
       <defs>
        <path d="M 2034 4250 
Q 1547 4250 1301 3770 
Q 1056 3291 1056 2328 
Q 1056 1369 1301 889 
Q 1547 409 2034 409 
Q 2525 409 2770 889 
Q 3016 1369 3016 2328 
Q 3016 3291 2770 3770 
Q 2525 4250 2034 4250 
z
M 2034 4750 
Q 2819 4750 3233 4129 
Q 3647 3509 3647 2328 
Q 3647 1150 3233 529 
Q 2819 -91 2034 -91 
Q 1250 -91 836 529 
Q 422 1150 422 2328 
Q 422 3509 836 4129 
Q 1250 4750 2034 4750 
z
" id="DejaVuSans-30" transform="scale(0.015625)"/>
       </defs>
       <use xlink:href="#DejaVuSans-30"/>
      </g>
     </g>
    </g>
    <g id="xtick_2">
     <g id="line2d_2">
      <g>
       <use style="stroke:#000000;stroke-width:0.8;" x="117.639863" xlink:href="#meb3206df82" y="252"/>
      </g>
     </g>
     <g id="text_2">
      <!-- 50 -->
      <g transform="translate(111.277363 266.598437)scale(0.1 -0.1)">
       <defs>
        <path d="M 691 4666 
L 3169 4666 
L 3169 4134 
L 1269 4134 
L 1269 2991 
Q 1406 3038 1543 3061 
Q 1681 3084 1819 3084 
Q 2600 3084 3056 2656 
Q 3513 2228 3513 1497 
Q 3513 744 3044 326 
Q 2575 -91 1722 -91 
Q 1428 -91 1123 -41 
Q 819 9 494 109 
L 494 744 
Q 775 591 1075 516 
Q 1375 441 1709 441 
Q 2250 441 2565 725 
Q 2881 1009 2881 1497 
Q 2881 1984 2565 2268 
Q 2250 2553 1709 2553 
Q 1456 2553 1204 2497 
Q 953 2441 691 2322 
L 691 4666 
z
" id="DejaVuSans-35" transform="scale(0.015625)"/>
       </defs>
       <use xlink:href="#DejaVuSans-35"/>
       <use x="63.623047" xlink:href="#DejaVuSans-30"/>
      </g>
     </g>
    </g>
    <g id="xtick_3">
     <g id="line2d_3">
      <g>
       <use style="stroke:#000000;stroke-width:0.8;" x="179.301887" xlink:href="#meb3206df82" y="252"/>
      </g>
     </g>
     <g id="text_3">
      <!-- 100 -->
      <g transform="translate(169.758137 266.598437)scale(0.1 -0.1)">
       <defs>
        <path d="M 794 531 
L 1825 531 
L 1825 4091 
L 703 3866 
L 703 4441 
L 1819 4666 
L 2450 4666 
L 2450 531 
L 3481 531 
L 3481 0 
L 794 0 
L 794 531 
z
" id="DejaVuSans-31" transform="scale(0.015625)"/>
       </defs>
       <use xlink:href="#DejaVuSans-31"/>
       <use x="63.623047" xlink:href="#DejaVuSans-30"/>
       <use x="127.246094" xlink:href="#DejaVuSans-30"/>
      </g>
     </g>
    </g>
    <g id="xtick_4">
     <g id="line2d_4">
      <g>
       <use style="stroke:#000000;stroke-width:0.8;" x="240.963912" xlink:href="#meb3206df82" y="252"/>
      </g>
     </g>
     <g id="text_4">
      <!-- 150 -->
      <g transform="translate(231.420162 266.598437)scale(0.1 -0.1)">
       <use xlink:href="#DejaVuSans-31"/>
       <use x="63.623047" xlink:href="#DejaVuSans-35"/>
       <use x="127.246094" xlink:href="#DejaVuSans-30"/>
      </g>
     </g>
    </g>
    <g id="xtick_5">
     <g id="line2d_5">
      <g>
       <use style="stroke:#000000;stroke-width:0.8;" x="302.625937" xlink:href="#meb3206df82" y="252"/>
      </g>
     </g>
     <g id="text_5">
      <!-- 200 -->
      <g transform="translate(293.082187 266.598437)scale(0.1 -0.1)">
       <defs>
        <path d="M 1228 531 
L 3431 531 
L 3431 0 
L 469 0 
L 469 531 
Q 828 903 1448 1529 
Q 2069 2156 2228 2338 
Q 2531 2678 2651 2914 
Q 2772 3150 2772 3378 
Q 2772 3750 2511 3984 
Q 2250 4219 1831 4219 
Q 1534 4219 1204 4116 
Q 875 4013 500 3803 
L 500 4441 
Q 881 4594 1212 4672 
Q 1544 4750 1819 4750 
Q 2544 4750 2975 4387 
Q 3406 4025 3406 3419 
Q 3406 3131 3298 2873 
Q 3191 2616 2906 2266 
Q 2828 2175 2409 1742 
Q 1991 1309 1228 531 
z
" id="DejaVuSans-32" transform="scale(0.015625)"/>
       </defs>
       <use xlink:href="#DejaVuSans-32"/>
       <use x="63.623047" xlink:href="#DejaVuSans-30"/>
       <use x="127.246094" xlink:href="#DejaVuSans-30"/>
      </g>
     </g>
    </g>
    <g id="xtick_6">
     <g id="line2d_6">
      <g>
       <use style="stroke:#000000;stroke-width:0.8;" x="364.287962" xlink:href="#meb3206df82" y="252"/>
      </g>
     </g>
     <g id="text_6">
      <!-- 250 -->
      <g transform="translate(354.744212 266.598437)scale(0.1 -0.1)">
       <use xlink:href="#DejaVuSans-32"/>
       <use x="63.623047" xlink:href="#DejaVuSans-35"/>
       <use x="127.246094" xlink:href="#DejaVuSans-30"/>
      </g>
     </g>
    </g>
    <g id="text_7">
     <!-- Future Return Period (Years) -->
     <g transform="translate(151.441406 280.276563)scale(0.1 -0.1)">
      <defs>
       <path d="M 628 4666 
L 3309 4666 
L 3309 4134 
L 1259 4134 
L 1259 2759 
L 3109 2759 
L 3109 2228 
L 1259 2228 
L 1259 0 
L 628 0 
L 628 4666 
z
" id="DejaVuSans-46" transform="scale(0.015625)"/>
       <path d="M 544 1381 
L 544 3500 
L 1119 3500 
L 1119 1403 
Q 1119 906 1312 657 
Q 1506 409 1894 409 
Q 2359 409 2629 706 
Q 2900 1003 2900 1516 
L 2900 3500 
L 3475 3500 
L 3475 0 
L 2900 0 
L 2900 538 
Q 2691 219 2414 64 
Q 2138 -91 1772 -91 
Q 1169 -91 856 284 
Q 544 659 544 1381 
z
M 1991 3584 
L 1991 3584 
z
" id="DejaVuSans-75" transform="scale(0.015625)"/>
       <path d="M 1172 4494 
L 1172 3500 
L 2356 3500 
L 2356 3053 
L 1172 3053 
L 1172 1153 
Q 1172 725 1289 603 
Q 1406 481 1766 481 
L 2356 481 
L 2356 0 
L 1766 0 
Q 1100 0 847 248 
Q 594 497 594 1153 
L 594 3053 
L 172 3053 
L 172 3500 
L 594 3500 
L 594 4494 
L 1172 4494 
z
" id="DejaVuSans-74" transform="scale(0.015625)"/>
       <path d="M 2631 2963 
Q 2534 3019 2420 3045 
Q 2306 3072 2169 3072 
Q 1681 3072 1420 2755 
Q 1159 2438 1159 1844 
L 1159 0 
L 581 0 
L 581 3500 
L 1159 3500 
L 1159 2956 
Q 1341 3275 1631 3429 
Q 1922 3584 2338 3584 
Q 2397 3584 2469 3576 
Q 2541 3569 2628 3553 
L 2631 2963 
z
" id="DejaVuSans-72" transform="scale(0.015625)"/>
       <path d="M 3597 1894 
L 3597 1613 
L 953 1613 
Q 991 1019 1311 708 
Q 1631 397 2203 397 
Q 2534 397 2845 478 
Q 3156 559 3463 722 
L 3463 178 
Q 3153 47 2828 -22 
Q 2503 -91 2169 -91 
Q 1331 -91 842 396 
Q 353 884 353 1716 
Q 353 2575 817 3079 
Q 1281 3584 2069 3584 
Q 2775 3584 3186 3129 
Q 3597 2675 3597 1894 
z
M 3022 2063 
Q 3016 2534 2758 2815 
Q 2500 3097 2075 3097 
Q 1594 3097 1305 2825 
Q 1016 2553 972 2059 
L 3022 2063 
z
" id="DejaVuSans-65" transform="scale(0.015625)"/>
       <path id="DejaVuSans-20" transform="scale(0.015625)"/>
       <path d="M 2841 2188 
Q 3044 2119 3236 1894 
Q 3428 1669 3622 1275 
L 4263 0 
L 3584 0 
L 2988 1197 
Q 2756 1666 2539 1819 
Q 2322 1972 1947 1972 
L 1259 1972 
L 1259 0 
L 628 0 
L 628 4666 
L 2053 4666 
Q 2853 4666 3247 4331 
Q 3641 3997 3641 3322 
Q 3641 2881 3436 2590 
Q 3231 2300 2841 2188 
z
M 1259 4147 
L 1259 2491 
L 2053 2491 
Q 2509 2491 2742 2702 
Q 2975 2913 2975 3322 
Q 2975 3731 2742 3939 
Q 2509 4147 2053 4147 
L 1259 4147 
z
" id="DejaVuSans-52" transform="scale(0.015625)"/>
       <path d="M 3513 2113 
L 3513 0 
L 2938 0 
L 2938 2094 
Q 2938 2591 2744 2837 
Q 2550 3084 2163 3084 
Q 1697 3084 1428 2787 
Q 1159 2491 1159 1978 
L 1159 0 
L 581 0 
L 581 3500 
L 1159 3500 
L 1159 2956 
Q 1366 3272 1645 3428 
Q 1925 3584 2291 3584 
Q 2894 3584 3203 3211 
Q 3513 2838 3513 2113 
z
" id="DejaVuSans-6e" transform="scale(0.015625)"/>
       <path d="M 1259 4147 
L 1259 2394 
L 2053 2394 
Q 2494 2394 2734 2622 
Q 2975 2850 2975 3272 
Q 2975 3691 2734 3919 
Q 2494 4147 2053 4147 
L 1259 4147 
z
M 628 4666 
L 2053 4666 
Q 2838 4666 3239 4311 
Q 3641 3956 3641 3272 
Q 3641 2581 3239 2228 
Q 2838 1875 2053 1875 
L 1259 1875 
L 1259 0 
L 628 0 
L 628 4666 
z
" id="DejaVuSans-50" transform="scale(0.015625)"/>
       <path d="M 603 3500 
L 1178 3500 
L 1178 0 
L 603 0 
L 603 3500 
z
M 603 4863 
L 1178 4863 
L 1178 4134 
L 603 4134 
L 603 4863 
z
" id="DejaVuSans-69" transform="scale(0.015625)"/>
       <path d="M 1959 3097 
Q 1497 3097 1228 2736 
Q 959 2375 959 1747 
Q 959 1119 1226 758 
Q 1494 397 1959 397 
Q 2419 397 2687 759 
Q 2956 1122 2956 1747 
Q 2956 2369 2687 2733 
Q 2419 3097 1959 3097 
z
M 1959 3584 
Q 2709 3584 3137 3096 
Q 3566 2609 3566 1747 
Q 3566 888 3137 398 
Q 2709 -91 1959 -91 
Q 1206 -91 779 398 
Q 353 888 353 1747 
Q 353 2609 779 3096 
Q 1206 3584 1959 3584 
z
" id="DejaVuSans-6f" transform="scale(0.015625)"/>
       <path d="M 2906 2969 
L 2906 4863 
L 3481 4863 
L 3481 0 
L 2906 0 
L 2906 525 
Q 2725 213 2448 61 
Q 2172 -91 1784 -91 
Q 1150 -91 751 415 
Q 353 922 353 1747 
Q 353 2572 751 3078 
Q 1150 3584 1784 3584 
Q 2172 3584 2448 3432 
Q 2725 3281 2906 2969 
z
M 947 1747 
Q 947 1113 1208 752 
Q 1469 391 1925 391 
Q 2381 391 2643 752 
Q 2906 1113 2906 1747 
Q 2906 2381 2643 2742 
Q 2381 3103 1925 3103 
Q 1469 3103 1208 2742 
Q 947 2381 947 1747 
z
" id="DejaVuSans-64" transform="scale(0.015625)"/>
       <path d="M 1984 4856 
Q 1566 4138 1362 3434 
Q 1159 2731 1159 2009 
Q 1159 1288 1364 580 
Q 1569 -128 1984 -844 
L 1484 -844 
Q 1016 -109 783 600 
Q 550 1309 550 2009 
Q 550 2706 781 3412 
Q 1013 4119 1484 4856 
L 1984 4856 
z
" id="DejaVuSans-28" transform="scale(0.015625)"/>
       <path d="M -13 4666 
L 666 4666 
L 1959 2747 
L 3244 4666 
L 3922 4666 
L 2272 2222 
L 2272 0 
L 1638 0 
L 1638 2222 
L -13 4666 
z
" id="DejaVuSans-59" transform="scale(0.015625)"/>
       <path d="M 2194 1759 
Q 1497 1759 1228 1600 
Q 959 1441 959 1056 
Q 959 750 1161 570 
Q 1363 391 1709 391 
Q 2188 391 2477 730 
Q 2766 1069 2766 1631 
L 2766 1759 
L 2194 1759 
z
M 3341 1997 
L 3341 0 
L 2766 0 
L 2766 531 
Q 2569 213 2275 61 
Q 1981 -91 1556 -91 
Q 1019 -91 701 211 
Q 384 513 384 1019 
Q 384 1609 779 1909 
Q 1175 2209 1959 2209 
L 2766 2209 
L 2766 2266 
Q 2766 2663 2505 2880 
Q 2244 3097 1772 3097 
Q 1472 3097 1187 3025 
Q 903 2953 641 2809 
L 641 3341 
Q 956 3463 1253 3523 
Q 1550 3584 1831 3584 
Q 2591 3584 2966 3190 
Q 3341 2797 3341 1997 
z
" id="DejaVuSans-61" transform="scale(0.015625)"/>
       <path d="M 2834 3397 
L 2834 2853 
Q 2591 2978 2328 3040 
Q 2066 3103 1784 3103 
Q 1356 3103 1142 2972 
Q 928 2841 928 2578 
Q 928 2378 1081 2264 
Q 1234 2150 1697 2047 
L 1894 2003 
Q 2506 1872 2764 1633 
Q 3022 1394 3022 966 
Q 3022 478 2636 193 
Q 2250 -91 1575 -91 
Q 1294 -91 989 -36 
Q 684 19 347 128 
L 347 722 
Q 666 556 975 473 
Q 1284 391 1588 391 
Q 1994 391 2212 530 
Q 2431 669 2431 922 
Q 2431 1156 2273 1281 
Q 2116 1406 1581 1522 
L 1381 1569 
Q 847 1681 609 1914 
Q 372 2147 372 2553 
Q 372 3047 722 3315 
Q 1072 3584 1716 3584 
Q 2034 3584 2315 3537 
Q 2597 3491 2834 3397 
z
" id="DejaVuSans-73" transform="scale(0.015625)"/>
       <path d="M 513 4856 
L 1013 4856 
Q 1481 4119 1714 3412 
Q 1947 2706 1947 2009 
Q 1947 1309 1714 600 
Q 1481 -109 1013 -844 
L 513 -844 
Q 928 -128 1133 580 
Q 1338 1288 1338 2009 
Q 1338 2731 1133 3434 
Q 928 4138 513 4856 
z
" id="DejaVuSans-29" transform="scale(0.015625)"/>
      </defs>
      <use xlink:href="#DejaVuSans-46"/>
      <use x="52.019531" xlink:href="#DejaVuSans-75"/>
      <use x="115.398438" xlink:href="#DejaVuSans-74"/>
      <use x="154.607422" xlink:href="#DejaVuSans-75"/>
      <use x="217.986328" xlink:href="#DejaVuSans-72"/>
      <use x="256.849609" xlink:href="#DejaVuSans-65"/>
      <use x="318.373047" xlink:href="#DejaVuSans-20"/>
      <use x="350.160156" xlink:href="#DejaVuSans-52"/>
      <use x="415.142578" xlink:href="#DejaVuSans-65"/>
      <use x="476.666016" xlink:href="#DejaVuSans-74"/>
      <use x="515.875" xlink:href="#DejaVuSans-75"/>
      <use x="579.253906" xlink:href="#DejaVuSans-72"/>
      <use x="618.617188" xlink:href="#DejaVuSans-6e"/>
      <use x="681.996094" xlink:href="#DejaVuSans-20"/>
      <use x="713.783203" xlink:href="#DejaVuSans-50"/>
      <use x="770.460938" xlink:href="#DejaVuSans-65"/>
      <use x="831.984375" xlink:href="#DejaVuSans-72"/>
      <use x="873.097656" xlink:href="#DejaVuSans-69"/>
      <use x="900.880859" xlink:href="#DejaVuSans-6f"/>
      <use x="962.0625" xlink:href="#DejaVuSans-64"/>
      <use x="1025.539062" xlink:href="#DejaVuSans-20"/>
      <use x="1057.326172" xlink:href="#DejaVuSans-28"/>
      <use x="1096.339844" xlink:href="#DejaVuSans-59"/>
      <use x="1144.173828" xlink:href="#DejaVuSans-65"/>
      <use x="1205.697266" xlink:href="#DejaVuSans-61"/>
      <use x="1266.976562" xlink:href="#DejaVuSans-72"/>
      <use x="1308.089844" xlink:href="#DejaVuSans-73"/>
      <use x="1360.189453" xlink:href="#DejaVuSans-29"/>
     </g>
    </g>
   </g>
   <g id="matplotlib.axis_2">
    <g id="ytick_1">
     <g id="line2d_7">
      <defs>
       <path d="M 0 0 
L -3.5 0 
" id="m2f52e51100" style="stroke:#000000;stroke-width:0.8;"/>
      </defs>
      <g>
       <use style="stroke:#000000;stroke-width:0.8;" x="54" xlink:href="#m2f52e51100" y="250.369922"/>
      </g>
     </g>
     <g id="text_8">
      <!-- 0 -->
      <g transform="translate(40.6375 254.169141)scale(0.1 -0.1)">
       <use xlink:href="#DejaVuSans-30"/>
      </g>
     </g>
    </g>
    <g id="ytick_2">
     <g id="line2d_8">
      <g>
       <use style="stroke:#000000;stroke-width:0.8;" x="54" xlink:href="#m2f52e51100" y="209.102129"/>
      </g>
     </g>
     <g id="text_9">
      <!-- 100 -->
      <g transform="translate(27.9125 212.901348)scale(0.1 -0.1)">
       <use xlink:href="#DejaVuSans-31"/>
       <use x="63.623047" xlink:href="#DejaVuSans-30"/>
       <use x="127.246094" xlink:href="#DejaVuSans-30"/>
      </g>
     </g>
    </g>
    <g id="ytick_3">
     <g id="line2d_9">
      <g>
       <use style="stroke:#000000;stroke-width:0.8;" x="54" xlink:href="#m2f52e51100" y="167.834337"/>
      </g>
     </g>
     <g id="text_10">
      <!-- 200 -->
      <g transform="translate(27.9125 171.633555)scale(0.1 -0.1)">
       <use xlink:href="#DejaVuSans-32"/>
       <use x="63.623047" xlink:href="#DejaVuSans-30"/>
       <use x="127.246094" xlink:href="#DejaVuSans-30"/>
      </g>
     </g>
    </g>
    <g id="ytick_4">
     <g id="line2d_10">
      <g>
       <use style="stroke:#000000;stroke-width:0.8;" x="54" xlink:href="#m2f52e51100" y="126.566544"/>
      </g>
     </g>
     <g id="text_11">
      <!-- 300 -->
      <g transform="translate(27.9125 130.365763)scale(0.1 -0.1)">
       <defs>
        <path d="M 2597 2516 
Q 3050 2419 3304 2112 
Q 3559 1806 3559 1356 
Q 3559 666 3084 287 
Q 2609 -91 1734 -91 
Q 1441 -91 1130 -33 
Q 819 25 488 141 
L 488 750 
Q 750 597 1062 519 
Q 1375 441 1716 441 
Q 2309 441 2620 675 
Q 2931 909 2931 1356 
Q 2931 1769 2642 2001 
Q 2353 2234 1838 2234 
L 1294 2234 
L 1294 2753 
L 1863 2753 
Q 2328 2753 2575 2939 
Q 2822 3125 2822 3475 
Q 2822 3834 2567 4026 
Q 2313 4219 1838 4219 
Q 1578 4219 1281 4162 
Q 984 4106 628 3988 
L 628 4550 
Q 988 4650 1302 4700 
Q 1616 4750 1894 4750 
Q 2613 4750 3031 4423 
Q 3450 4097 3450 3541 
Q 3450 3153 3228 2886 
Q 3006 2619 2597 2516 
z
" id="DejaVuSans-33" transform="scale(0.015625)"/>
       </defs>
       <use xlink:href="#DejaVuSans-33"/>
       <use x="63.623047" xlink:href="#DejaVuSans-30"/>
       <use x="127.246094" xlink:href="#DejaVuSans-30"/>
      </g>
     </g>
    </g>
    <g id="ytick_5">
     <g id="line2d_11">
      <g>
       <use style="stroke:#000000;stroke-width:0.8;" x="54" xlink:href="#m2f52e51100" y="85.298751"/>
      </g>
     </g>
     <g id="text_12">
      <!-- 400 -->
      <g transform="translate(27.9125 89.09797)scale(0.1 -0.1)">
       <defs>
        <path d="M 2419 4116 
L 825 1625 
L 2419 1625 
L 2419 4116 
z
M 2253 4666 
L 3047 4666 
L 3047 1625 
L 3713 1625 
L 3713 1100 
L 3047 1100 
L 3047 0 
L 2419 0 
L 2419 1100 
L 313 1100 
L 313 1709 
L 2253 4666 
z
" id="DejaVuSans-34" transform="scale(0.015625)"/>
       </defs>
       <use xlink:href="#DejaVuSans-34"/>
       <use x="63.623047" xlink:href="#DejaVuSans-30"/>
       <use x="127.246094" xlink:href="#DejaVuSans-30"/>
      </g>
     </g>
    </g>
    <g id="ytick_6">
     <g id="line2d_12">
      <g>
       <use style="stroke:#000000;stroke-width:0.8;" x="54" xlink:href="#m2f52e51100" y="44.030958"/>
      </g>
     </g>
     <g id="text_13">
      <!-- 500 -->
      <g transform="translate(27.9125 47.830177)scale(0.1 -0.1)">
       <use xlink:href="#DejaVuSans-35"/>
       <use x="63.623047" xlink:href="#DejaVuSans-30"/>
       <use x="127.246094" xlink:href="#DejaVuSans-30"/>
      </g>
     </g>
    </g>
    <g id="text_14">
     <!-- Current Return Period (Years) -->
     <g transform="translate(21.832812 216.097188)rotate(-90)scale(0.1 -0.1)">
      <defs>
       <path d="M 4122 4306 
L 4122 3641 
Q 3803 3938 3442 4084 
Q 3081 4231 2675 4231 
Q 1875 4231 1450 3742 
Q 1025 3253 1025 2328 
Q 1025 1406 1450 917 
Q 1875 428 2675 428 
Q 3081 428 3442 575 
Q 3803 722 4122 1019 
L 4122 359 
Q 3791 134 3420 21 
Q 3050 -91 2638 -91 
Q 1578 -91 968 557 
Q 359 1206 359 2328 
Q 359 3453 968 4101 
Q 1578 4750 2638 4750 
Q 3056 4750 3426 4639 
Q 3797 4528 4122 4306 
z
" id="DejaVuSans-43" transform="scale(0.015625)"/>
      </defs>
      <use xlink:href="#DejaVuSans-43"/>
      <use x="69.824219" xlink:href="#DejaVuSans-75"/>
      <use x="133.203125" xlink:href="#DejaVuSans-72"/>
      <use x="172.566406" xlink:href="#DejaVuSans-72"/>
      <use x="211.429688" xlink:href="#DejaVuSans-65"/>
      <use x="272.953125" xlink:href="#DejaVuSans-6e"/>
      <use x="336.332031" xlink:href="#DejaVuSans-74"/>
      <use x="375.541016" xlink:href="#DejaVuSans-20"/>
      <use x="407.328125" xlink:href="#DejaVuSans-52"/>
      <use x="472.310547" xlink:href="#DejaVuSans-65"/>
      <use x="533.833984" xlink:href="#DejaVuSans-74"/>
      <use x="573.042969" xlink:href="#DejaVuSans-75"/>
      <use x="636.421875" xlink:href="#DejaVuSans-72"/>
      <use x="675.785156" xlink:href="#DejaVuSans-6e"/>
      <use x="739.164062" xlink:href="#DejaVuSans-20"/>
      <use x="770.951172" xlink:href="#DejaVuSans-50"/>
      <use x="827.628906" xlink:href="#DejaVuSans-65"/>
      <use x="889.152344" xlink:href="#DejaVuSans-72"/>
      <use x="930.265625" xlink:href="#DejaVuSans-69"/>
      <use x="958.048828" xlink:href="#DejaVuSans-6f"/>
      <use x="1019.230469" xlink:href="#DejaVuSans-64"/>
      <use x="1082.707031" xlink:href="#DejaVuSans-20"/>
      <use x="1114.494141" xlink:href="#DejaVuSans-28"/>
      <use x="1153.507812" xlink:href="#DejaVuSans-59"/>
      <use x="1201.341797" xlink:href="#DejaVuSans-65"/>
      <use x="1262.865234" xlink:href="#DejaVuSans-61"/>
      <use x="1324.144531" xlink:href="#DejaVuSans-72"/>
      <use x="1365.257812" xlink:href="#DejaVuSans-73"/>
      <use x="1417.357422" xlink:href="#DejaVuSans-29"/>
     </g>
    </g>
   </g>
   <g id="line2d_13">
    <path clip-path="url(#p5faf5e24df)" d="M 70.281136 242.116364 
L 78.296951 236.751551 
L 88.355007 229.736026 
L 100.371025 221.069789 
L 114.284576 210.752841 
L 130.049168 198.785181 
L 148.154967 184.754132 
L 168.025193 169.07237 
L 190.146998 151.32722 
L 214.478212 131.518679 
L 240.983022 109.646749 
L 269.630479 85.711429 
L 300.393444 59.71272 
L 318.31161 44.443636 
L 318.31161 44.443636 
" style="fill:none;stroke:#0000ff;stroke-linecap:square;stroke-width:0.75;"/>
   </g>
   <g id="line2d_14">
    <path clip-path="url(#p5faf5e24df)" d="M 69.218182 242.116364 
L 75.920958 237.164229 
L 84.460161 230.561382 
L 94.230878 222.720501 
L 105.698896 213.228909 
L 118.80557 202.086605 
L 133.505315 189.293589 
L 149.761292 174.849861 
L 167.994802 158.342744 
L 187.713308 140.184916 
L 209.334431 119.963697 
L 232.389968 98.091767 
L 257.291744 74.156447 
L 284.011119 48.157738 
L 287.803199 44.443636 
L 287.803199 44.443636 
" style="fill:none;stroke:#ff0000;stroke-linecap:square;stroke-width:0.75;"/>
   </g>
   <g id="line2d_15">
    <path clip-path="url(#p5faf5e24df)" d="M 71.927581 242.116364 
L 82.549776 235.926195 
L 95.539365 228.085314 
L 111.500961 218.181044 
L 130.351665 206.213384 
L 152.028998 192.182334 
L 176.483299 176.087895 
L 204.287373 157.517388 
L 234.777582 136.883492 
L 268.525691 113.773528 
L 305.48877 88.187497 
L 345.629698 60.125398 
L 367.905111 44.443636 
L 367.905111 44.443636 
" style="fill:none;stroke:#008000;stroke-linecap:square;stroke-width:0.75;"/>
   </g>
   <g id="line2d_16">
    <path clip-path="url(#p5faf5e24df)" d="M 72.11046 242.116364 
L 82.890399 235.926195 
L 96.085368 228.085314 
L 112.311394 218.181044 
L 131.486238 206.213384 
L 154.191215 191.769656 
L 179.714118 175.262539 
L 208.642952 156.279355 
L 240.306103 135.23278 
L 275.288688 111.710139 
L 313.549627 85.711429 
L 355.053281 57.236652 
L 373.581818 44.443636 
L 373.581818 44.443636 
" style="fill:none;stroke:#ff00ff;stroke-linecap:square;stroke-width:0.75;"/>
   </g>
   <g id="patch_3">
    <path d="M 54 252 
L 54 34.56 
" style="fill:none;stroke:#000000;stroke-linecap:square;stroke-linejoin:miter;stroke-width:0.8;"/>
   </g>
   <g id="patch_4">
    <path d="M 388.8 252 
L 388.8 34.56 
" style="fill:none;stroke:#000000;stroke-linecap:square;stroke-linejoin:miter;stroke-width:0.8;"/>
   </g>
   <g id="patch_5">
    <path d="M 54 252 
L 388.8 252 
" style="fill:none;stroke:#000000;stroke-linecap:square;stroke-linejoin:miter;stroke-width:0.8;"/>
   </g>
   <g id="patch_6">
    <path d="M 54 34.56 
L 388.8 34.56 
" style="fill:none;stroke:#000000;stroke-linecap:square;stroke-linejoin:miter;stroke-width:0.8;"/>
   </g>
   <g id="text_15">
    <!-- Recurrence Reduction after $\Delta$T = 20 Years -->
    <g transform="translate(93.9 28.56)scale(0.12 -0.12)">
     <defs>
      <path d="M 3122 3366 
L 3122 2828 
Q 2878 2963 2633 3030 
Q 2388 3097 2138 3097 
Q 1578 3097 1268 2742 
Q 959 2388 959 1747 
Q 959 1106 1268 751 
Q 1578 397 2138 397 
Q 2388 397 2633 464 
Q 2878 531 3122 666 
L 3122 134 
Q 2881 22 2623 -34 
Q 2366 -91 2075 -91 
Q 1284 -91 818 406 
Q 353 903 353 1747 
Q 353 2603 823 3093 
Q 1294 3584 2113 3584 
Q 2378 3584 2631 3529 
Q 2884 3475 3122 3366 
z
" id="DejaVuSans-63" transform="scale(0.015625)"/>
      <path d="M 2375 4863 
L 2375 4384 
L 1825 4384 
Q 1516 4384 1395 4259 
Q 1275 4134 1275 3809 
L 1275 3500 
L 2222 3500 
L 2222 3053 
L 1275 3053 
L 1275 0 
L 697 0 
L 697 3053 
L 147 3053 
L 147 3500 
L 697 3500 
L 697 3744 
Q 697 4328 969 4595 
Q 1241 4863 1831 4863 
L 2375 4863 
z
" id="DejaVuSans-66" transform="scale(0.015625)"/>
      <path d="M 2188 4044 
L 906 525 
L 3472 525 
L 2188 4044 
z
M 50 0 
L 1831 4666 
L 2547 4666 
L 4325 0 
L 50 0 
z
" id="DejaVuSans-394" transform="scale(0.015625)"/>
      <path d="M -19 4666 
L 3928 4666 
L 3928 4134 
L 2272 4134 
L 2272 0 
L 1638 0 
L 1638 4134 
L -19 4134 
L -19 4666 
z
" id="DejaVuSans-54" transform="scale(0.015625)"/>
      <path d="M 678 2906 
L 4684 2906 
L 4684 2381 
L 678 2381 
L 678 2906 
z
M 678 1631 
L 4684 1631 
L 4684 1100 
L 678 1100 
L 678 1631 
z
" id="DejaVuSans-3d" transform="scale(0.015625)"/>
     </defs>
     <use transform="translate(0 0.015625)" xlink:href="#DejaVuSans-52"/>
     <use transform="translate(69.482422 0.015625)" xlink:href="#DejaVuSans-65"/>
     <use transform="translate(131.005859 0.015625)" xlink:href="#DejaVuSans-63"/>
     <use transform="translate(185.986328 0.015625)" xlink:href="#DejaVuSans-75"/>
     <use transform="translate(249.365234 0.015625)" xlink:href="#DejaVuSans-72"/>
     <use transform="translate(290.478516 0.015625)" xlink:href="#DejaVuSans-72"/>
     <use transform="translate(331.591797 0.015625)" xlink:href="#DejaVuSans-65"/>
     <use transform="translate(393.115234 0.015625)" xlink:href="#DejaVuSans-6e"/>
     <use transform="translate(456.494141 0.015625)" xlink:href="#DejaVuSans-63"/>
     <use transform="translate(511.474609 0.015625)" xlink:href="#DejaVuSans-65"/>
     <use transform="translate(572.998047 0.015625)" xlink:href="#DejaVuSans-20"/>
     <use transform="translate(604.785156 0.015625)" xlink:href="#DejaVuSans-52"/>
     <use transform="translate(674.267578 0.015625)" xlink:href="#DejaVuSans-65"/>
     <use transform="translate(735.791016 0.015625)" xlink:href="#DejaVuSans-64"/>
     <use transform="translate(799.267578 0.015625)" xlink:href="#DejaVuSans-75"/>
     <use transform="translate(862.646484 0.015625)" xlink:href="#DejaVuSans-63"/>
     <use transform="translate(917.626953 0.015625)" xlink:href="#DejaVuSans-74"/>
     <use transform="translate(956.835938 0.015625)" xlink:href="#DejaVuSans-69"/>
     <use transform="translate(984.619141 0.015625)" xlink:href="#DejaVuSans-6f"/>
     <use transform="translate(1045.800781 0.015625)" xlink:href="#DejaVuSans-6e"/>
     <use transform="translate(1109.179688 0.015625)" xlink:href="#DejaVuSans-20"/>
     <use transform="translate(1140.966797 0.015625)" xlink:href="#DejaVuSans-61"/>
     <use transform="translate(1202.246094 0.015625)" xlink:href="#DejaVuSans-66"/>
     <use transform="translate(1237.451172 0.015625)" xlink:href="#DejaVuSans-74"/>
     <use transform="translate(1276.660156 0.015625)" xlink:href="#DejaVuSans-65"/>
     <use transform="translate(1338.183594 0.015625)" xlink:href="#DejaVuSans-72"/>
     <use transform="translate(1379.296875 0.015625)" xlink:href="#DejaVuSans-20"/>
     <use transform="translate(1411.083984 0.015625)" xlink:href="#DejaVuSans-394"/>
     <use transform="translate(1479.492188 0.015625)" xlink:href="#DejaVuSans-54"/>
     <use transform="translate(1540.576172 0.015625)" xlink:href="#DejaVuSans-20"/>
     <use transform="translate(1572.363281 0.015625)" xlink:href="#DejaVuSans-3d"/>
     <use transform="translate(1656.152344 0.015625)" xlink:href="#DejaVuSans-20"/>
     <use transform="translate(1687.939453 0.015625)" xlink:href="#DejaVuSans-32"/>
     <use transform="translate(1751.5625 0.015625)" xlink:href="#DejaVuSans-30"/>
     <use transform="translate(1815.185547 0.015625)" xlink:href="#DejaVuSans-20"/>
     <use transform="translate(1846.972656 0.015625)" xlink:href="#DejaVuSans-59"/>
     <use transform="translate(1908.056641 0.015625)" xlink:href="#DejaVuSans-65"/>
     <use transform="translate(1969.580078 0.015625)" xlink:href="#DejaVuSans-61"/>
     <use transform="translate(2030.859375 0.015625)" xlink:href="#DejaVuSans-72"/>
     <use transform="translate(2071.972656 0.015625)" xlink:href="#DejaVuSans-73"/>
    </g>
   </g>
   <g id="legend_1">
    <g id="patch_7">
     <path d="M 61 101.2725 
L 138.092187 101.2725 
Q 140.092187 101.2725 140.092187 99.2725 
L 140.092187 41.56 
Q 140.092187 39.56 138.092187 39.56 
L 61 39.56 
Q 59 39.56 59 41.56 
L 59 99.2725 
Q 59 101.2725 61 101.2725 
z
" style="fill:#ffffff;opacity:0.8;stroke:#cccccc;stroke-linejoin:miter;"/>
    </g>
    <g id="line2d_17">
     <path d="M 63 47.658437 
L 83 47.658437 
" style="fill:none;stroke:#0000ff;stroke-linecap:square;stroke-width:0.75;"/>
    </g>
    <g id="line2d_18"/>
    <g id="text_16">
     <!-- Station 1 -->
     <g transform="translate(91 51.158437)scale(0.1 -0.1)">
      <defs>
       <path d="M 3425 4513 
L 3425 3897 
Q 3066 4069 2747 4153 
Q 2428 4238 2131 4238 
Q 1616 4238 1336 4038 
Q 1056 3838 1056 3469 
Q 1056 3159 1242 3001 
Q 1428 2844 1947 2747 
L 2328 2669 
Q 3034 2534 3370 2195 
Q 3706 1856 3706 1288 
Q 3706 609 3251 259 
Q 2797 -91 1919 -91 
Q 1588 -91 1214 -16 
Q 841 59 441 206 
L 441 856 
Q 825 641 1194 531 
Q 1563 422 1919 422 
Q 2459 422 2753 634 
Q 3047 847 3047 1241 
Q 3047 1584 2836 1778 
Q 2625 1972 2144 2069 
L 1759 2144 
Q 1053 2284 737 2584 
Q 422 2884 422 3419 
Q 422 4038 858 4394 
Q 1294 4750 2059 4750 
Q 2388 4750 2728 4690 
Q 3069 4631 3425 4513 
z
" id="DejaVuSans-53" transform="scale(0.015625)"/>
      </defs>
      <use xlink:href="#DejaVuSans-53"/>
      <use x="63.476562" xlink:href="#DejaVuSans-74"/>
      <use x="102.685547" xlink:href="#DejaVuSans-61"/>
      <use x="163.964844" xlink:href="#DejaVuSans-74"/>
      <use x="203.173828" xlink:href="#DejaVuSans-69"/>
      <use x="230.957031" xlink:href="#DejaVuSans-6f"/>
      <use x="292.138672" xlink:href="#DejaVuSans-6e"/>
      <use x="355.517578" xlink:href="#DejaVuSans-20"/>
      <use x="387.304688" xlink:href="#DejaVuSans-31"/>
     </g>
    </g>
    <g id="line2d_19">
     <path d="M 63 62.336562 
L 83 62.336562 
" style="fill:none;stroke:#ff0000;stroke-linecap:square;stroke-width:0.75;"/>
    </g>
    <g id="line2d_20"/>
    <g id="text_17">
     <!-- Station 2 -->
     <g transform="translate(91 65.836562)scale(0.1 -0.1)">
      <use xlink:href="#DejaVuSans-53"/>
      <use x="63.476562" xlink:href="#DejaVuSans-74"/>
      <use x="102.685547" xlink:href="#DejaVuSans-61"/>
      <use x="163.964844" xlink:href="#DejaVuSans-74"/>
      <use x="203.173828" xlink:href="#DejaVuSans-69"/>
      <use x="230.957031" xlink:href="#DejaVuSans-6f"/>
      <use x="292.138672" xlink:href="#DejaVuSans-6e"/>
      <use x="355.517578" xlink:href="#DejaVuSans-20"/>
      <use x="387.304688" xlink:href="#DejaVuSans-32"/>
     </g>
    </g>
    <g id="line2d_21">
     <path d="M 63 77.014687 
L 83 77.014687 
" style="fill:none;stroke:#008000;stroke-linecap:square;stroke-width:0.75;"/>
    </g>
    <g id="line2d_22"/>
    <g id="text_18">
     <!-- Station 3 -->
     <g transform="translate(91 80.514687)scale(0.1 -0.1)">
      <use xlink:href="#DejaVuSans-53"/>
      <use x="63.476562" xlink:href="#DejaVuSans-74"/>
      <use x="102.685547" xlink:href="#DejaVuSans-61"/>
      <use x="163.964844" xlink:href="#DejaVuSans-74"/>
      <use x="203.173828" xlink:href="#DejaVuSans-69"/>
      <use x="230.957031" xlink:href="#DejaVuSans-6f"/>
      <use x="292.138672" xlink:href="#DejaVuSans-6e"/>
      <use x="355.517578" xlink:href="#DejaVuSans-20"/>
      <use x="387.304688" xlink:href="#DejaVuSans-33"/>
     </g>
    </g>
    <g id="line2d_23">
     <path d="M 63 91.692813 
L 83 91.692813 
" style="fill:none;stroke:#ff00ff;stroke-linecap:square;stroke-width:0.75;"/>
    </g>
    <g id="line2d_24"/>
    <g id="text_19">
     <!-- Station 4 -->
     <g transform="translate(91 95.192813)scale(0.1 -0.1)">
      <use xlink:href="#DejaVuSans-53"/>
      <use x="63.476562" xlink:href="#DejaVuSans-74"/>
      <use x="102.685547" xlink:href="#DejaVuSans-61"/>
      <use x="163.964844" xlink:href="#DejaVuSans-74"/>
      <use x="203.173828" xlink:href="#DejaVuSans-69"/>
      <use x="230.957031" xlink:href="#DejaVuSans-6f"/>
      <use x="292.138672" xlink:href="#DejaVuSans-6e"/>
      <use x="355.517578" xlink:href="#DejaVuSans-20"/>
      <use x="387.304688" xlink:href="#DejaVuSans-34"/>
     </g>
    </g>
   </g>
  </g>
 </g>
 <defs>
  <clipPath id="p5faf5e24df">
   <rect height="217.44" width="334.8" x="54" y="34.56"/>
  </clipPath>
 </defs>
</svg>
